<svg xmlns="http://www.w3.org/2000/svg" width="31.59" height="32.281" viewBox="0 0 31.59 32.281">
  <path id="_24-hour" data-name="24-hour" d="M29.026,7.735a1.191,1.191,0,0,0-2,1.288,13.168,13.168,0,0,1,1.028,1.925A1.19,1.19,0,0,0,30.235,10a15.521,15.521,0,0,0-1.209-2.266ZM8.106,21.284V19.23l3.077-3.148a5.478,5.478,0,0,0,.493-.546,2.571,2.571,0,0,0,.315-.493,1.131,1.131,0,0,0,.113-.488A.9.9,0,0,0,12,14.1a.59.59,0,0,0-.325-.262,1.705,1.705,0,0,0-.567-.081H8.266V11.7q.653-.144,1.458-.262a12.279,12.279,0,0,1,1.873-.126,4.349,4.349,0,0,1,1.836.32,1.91,1.91,0,0,1,.957.944,3.672,3.672,0,0,1,.286,1.535A3.83,3.83,0,0,1,14.5,15.3a3.791,3.791,0,0,1-.5,1,7.13,7.13,0,0,1-.787.931l-1.705,1.747H14.95v2.319Zm12.24,0V19.448H16.219L15.773,18.3l2.867-6.917h2.623l-2.421,5.892h1.493V15.807l.493-1.28h2.1v2.746h.787v1.784l-.787.4v1.836ZM26.956,4.17a1.445,1.445,0,0,1,.087.412,1.325,1.325,0,0,1-.923,1.474L22.586,7.137a1.322,1.322,0,0,1-.766-2.531l.336-.1a13.26,13.26,0,0,0-2.673-1.1,13.423,13.423,0,1,0-3.73,26.316,9.317,9.317,0,0,0,1.049-.034,12.592,12.592,0,0,0,1.5-.2,1.191,1.191,0,1,1,.446,2.337,15.556,15.556,0,0,1-1.779.231c-.181,0-1.026.042-1.215.042A15.8,15.8,0,1,1,23.488,2.531l-.331-.866A1.327,1.327,0,1,1,25.637.721L26.948,4.17ZM22.392,28a1.189,1.189,0,0,0,1.167,2.072,14.608,14.608,0,0,0,2.13-1.443,1.191,1.191,0,1,0-1.5-1.852A12.3,12.3,0,0,1,22.392,28Zm4.688-4.459A1.189,1.189,0,1,0,29.1,24.8a16.038,16.038,0,0,0,1.183-2.28,1.191,1.191,0,1,0-2.2-.918,13.57,13.57,0,0,1-1,1.939Zm2.038-6.175a1.188,1.188,0,0,0,2.361.184,16.143,16.143,0,0,0,0-2.568,1.191,1.191,0,1,0-2.361.2,13.811,13.811,0,0,1,0,2.185Z" transform="translate(0.06 0.182)" fill="#46a62b"/>
</svg>
