<svg xmlns="http://www.w3.org/2000/svg" width="579.521" height="320.951" viewBox="0 0 579.521 320.951">
  <g id="Group_2203" data-name="Group 2203" transform="translate(0 0)">
    <path id="Path_4838" data-name="Path 4838" d="M273.98,146.584c81.879-4.735,167.726,19.929,155.107,55.683s67.463-12.7,99.422.191c22.752,9.177,13.658,37.116,24.664,48.373,25.239,25.812,51.049-6.692,83.171,12.81s18.764,201.877,5.687,201.851l-495.341-.9-5.926.191s-36.328-52.388-3.442-82.98,10.306-44.58,6.31-56.4c-4.589-13.575-15.3-37.283,31.356-54.681s34.607-55.256,33.459-63.094-16.347-56.3,65.532-61.037Z" transform="translate(-123.548 -146.002)" fill="#eafcfc"/>
    <rect id="Rectangle_408" data-name="Rectangle 408" width="37.524" height="290.441" transform="translate(402.821 28.195)" fill="#9bc1f9" opacity="0.6"/>
    <rect id="Rectangle_409" data-name="Rectangle 409" width="37.524" height="201.849" transform="translate(350.418 116.787)" fill="#9bc1f9" opacity="0.6"/>
    <rect id="Rectangle_410" data-name="Rectangle 410" width="37.524" height="227.515" transform="translate(455.978 91.121)" fill="#9bc1f9" opacity="0.6"/>
    <rect id="Rectangle_411" data-name="Rectangle 411" width="37.524" height="236.462" transform="translate(298.014 82.174)" fill="#9bc1f9" opacity="0.6"/>
    <rect id="Rectangle_412" data-name="Rectangle 412" width="37.524" height="166.351" transform="translate(245.611 152.283)" fill="#9bc1f9" opacity="0.6"/>
    <g id="Group_2170" data-name="Group 2170" transform="translate(245.611 95.134)">
      <rect id="Rectangle_413" data-name="Rectangle 413" width="37.524" height="223.502" transform="translate(157.21 0)" fill="#9bc1f9" opacity="0.3"/>
      <rect id="Rectangle_414" data-name="Rectangle 414" width="37.524" height="155.328" transform="translate(104.807 68.173)" fill="#9bc1f9" opacity="0.3"/>
      <rect id="Rectangle_415" data-name="Rectangle 415" width="37.524" height="175.079" transform="translate(210.367 48.424)" fill="#9bc1f9" opacity="0.3"/>
      <rect id="Rectangle_416" data-name="Rectangle 416" width="37.524" height="181.964" transform="translate(52.403 41.539)" fill="#9bc1f9" opacity="0.3"/>
      <rect id="Rectangle_417" data-name="Rectangle 417" width="37.524" height="128.013" transform="translate(0 95.49)" fill="#9bc1f9" opacity="0.3"/>
    </g>
    <path id="Path_4839" data-name="Path 4839" d="M1701.631,308.45l-29.9,22.612,11.405.728-71.374,125.618-39.52-59.248-55.9,130.4-35.959-51.075-44.819,63.355,2.82,11.34,41.979-59.054,38.011,53.989,55.7-129.923,38.344,57.488,79.02-139.075,7.336,7.891Z" transform="translate(-1189.891 -278.032)" fill="#5183bf"/>
    <g id="Group_2172" data-name="Group 2172" transform="translate(46.211 104.402)">
      <path id="Path_4840" data-name="Path 4840" d="M535.613,833.822c-42.907-34.169-78.96-78.361-106.257-130.252q-29.508,23.7-59.016,47.407c31.562,60,73.245,111.1,122.856,150.6Q514.4,867.7,535.613,833.822Z" transform="translate(-370.34 -703.57)" fill="#3c8f7c"/>
      <path id="Path_4841" data-name="Path 4841" d="M466.28,769.73q-18.33,14.962-36.659,29.92c2.91,5.424,1.854,12.744-2.481,16.457,27.746,49.058,62.518,91.683,103.008,126.271a9.391,9.391,0,0,1,14.034-2.294l26.746-42.071c-4.127-3.348-4.715-10.192-1.406-15.157-35.558-30.373-66.092-67.8-90.457-110.885C474.732,775.681,468.958,774.724,466.28,769.73Z" transform="translate(-416.504 -757.342)" fill="#96d9c9"/>
      <g id="Group_2171" data-name="Group 2171" transform="translate(57.633 76.8)">
        <path id="Path_4842" data-name="Path 4842" d="M719.657,1161.461c9.162-11.823,9.074-29.265.433-39.7-8.666-10.407-23.469-10.9-33.712-.376-10.225,10.5-11.2,29.164-1.461,40.88C694.646,1174,710.515,1173.265,719.657,1161.461Z" transform="translate(-678.131 -1113.723)" fill="#50bfa5"/>
        <path id="Path_4843" data-name="Path 4843" d="M763.718,1171.016q-1.727,1.918-3.455,3.833c2.754,5.048,2.172,10.265-.8,13.673-3,3.432-6.355,3.751-11.471.717-3.717-2.1-5.5-2.719-6.634-1.492-.959,1.035-1.275,2.916.755,5.483a14.045,14.045,0,0,0,3.181,2.979,3.439,3.439,0,0,1,.91,4.368h0a2.471,2.471,0,0,1-3.666,1.064,19.568,19.568,0,0,1-3.352-3.11l-2.988,3.3q-1.565-1.963-3.11-3.945,1.626-1.761,3.252-3.526c-2.631-5.08-2.108-10.13.946-13.334,3.37-3.539,7.267-2.453,11.735.35,3.1,1.932,4.893,2.238,6.175.811,1.352-1.507.912-3.8-.792-5.977a15.175,15.175,0,0,0-3.865-3.471,3.3,3.3,0,0,1-.788-4.367c.032-.056.064-.11.1-.167a2.481,2.481,0,0,1,3.5-1.077,20.673,20.673,0,0,1,4.239,3.771q1.621-1.767,3.243-3.537Q762.271,1169.2,763.718,1171.016Z" transform="translate(-722.799 -1156.829)" fill="#3c8f7c"/>
        <path id="Path_4844" data-name="Path 4844" d="M937.663,1415.731Q923,1403.173,909.419,1389.14q-2.326,3.025-4.649,6.046,13.757,14.215,28.639,26.964Q935.536,1418.939,937.663,1415.731Z" transform="translate(-862.333 -1337.569)" fill="#50bfa5"/>
      </g>
    </g>
    <g id="Group_2174" data-name="Group 2174" transform="translate(18.991 167.733)">
      <path id="Path_4845" data-name="Path 4845" d="M408.715,1094.936c-53.893-6.834-106.749-24.866-155.781-53.146q-13.982,32.758-27.963,65.519c56.692,32.7,117.8,53.545,180.118,61.449Q406.9,1131.846,408.715,1094.936Z" transform="translate(-224.97 -1041.79)" fill="#3c8f7c"/>
      <path id="Path_4846" data-name="Path 4846" d="M289.5,1099.116q-8.569,20.537-17.141,41.073c5.175,2.93,7.838,9.237,5.9,14.232a478.68,478.68,0,0,0,151.018,51.521c.44-5.509,5.376-9.222,11.04-8.454l2.606-46.031c-5.213-.708-9.07-5.861-8.632-11.364a420.392,420.392,0,0,1-132.617-45.242A8.3,8.3,0,0,1,289.5,1099.116Z" transform="translate(-263.486 -1084.915)" fill="#96d9c9"/>
      <g id="Group_2173" data-name="Group 2173" transform="translate(74.321 46.911)">
        <path id="Path_4847" data-name="Path 4847" d="M671.215,1325.271c2.159-13.712-6.447-27.514-19.039-31.71a22.62,22.62,0,0,0-29.4,15.637c-3.728,13.165,4.552,28.439,18.725,33.133C655.67,1347.042,669.064,1338.96,671.215,1325.271Z" transform="translate(-621.884 -1292.321)" fill="#50bfa5"/>
        <path id="Path_4848" data-name="Path 4848" d="M715.5,1320.923l-1.118,4.675c4.855,2.7,6.9,7.119,5.994,11.229-.919,4.14-3.674,5.979-9.591,5.992-4.247.09-6.1.442-6.479,1.951-.324,1.275.32,2.917,3.335,3.994a14.618,14.618,0,0,0,4.213.859,3.183,3.183,0,0,1,2.925,3.037h0a2.433,2.433,0,0,1-2.657,2.577,20.528,20.528,0,0,1-4.425-.884l-.977,4.03q-2.314-.817-4.625-1.661l1.1-4.335c-4.763-2.788-6.78-7.044-5.7-11.029,1.189-4.4,5.1-5.382,10.34-5.269,3.629.069,5.335-.537,5.748-2.277.434-1.835-1.071-3.451-3.608-4.37a15.954,15.954,0,0,0-5.046-.929,3.037,3.037,0,0,1-2.818-3.093c0-.06,0-.118,0-.178a2.44,2.44,0,0,1,2.509-2.511,21.656,21.656,0,0,1,5.518.989q.542-2.168,1.082-4.34C712.642,1319.906,714.071,1320.417,715.5,1320.923Z" transform="translate(-683.101 -1314.313)" fill="#3c8f7c"/>
      </g>
    </g>
    <path id="Path_4849" data-name="Path 4849" d="M969.33,730.381a33.2,33.2,0,0,1-3.837-1.532,19.3,19.3,0,0,0-4.374-1.642c-2.421-.373-6.578-.124-8.874,2.357-2.861,3.093-7.943.558-6.919,16.755,1.159,18.333,11.388,16.32,11.635,16.011s9.123-11.729,9.123-11.729,3.1,6.765,3.1,6.516S985.031,735.652,969.33,730.381Z" transform="translate(-791.343 -618.266)" fill="#0e2e35"/>
    <g id="Group_2176" data-name="Group 2176" transform="translate(50.879 232.979)">
      <path id="Path_4850" data-name="Path 4850" d="M533.16,1390.24c-42.4,16.753-89.187,24.411-137.89,22.571q4.848,31.084,9.7,62.172c56.31,2.127,110.4-6.728,159.431-26.1Q548.779,1419.564,533.16,1390.24Z" transform="translate(-395.27 -1390.24)" fill="#3c8f7c"/>
      <path id="Path_4851" data-name="Path 4851" d="M422.49,1454.417q3.182,19.408,6.363,38.814c5.116.152,9.95,3.947,10.828,8.61,46.847.343,91.971-7.044,133.673-21.882a7.8,7.8,0,0,1,4.164-11.062l-19.226-36.708c-4.123,1.584-9.3-.828-11.5-5.269-36.622,13.03-76.247,19.517-117.386,19.215C430.281,1450.792,427.2,1454.556,422.49,1454.417Z" transform="translate(-417.393 -1420.052)" fill="#96d9c9"/>
      <g id="Group_2175" data-name="Group 2175" transform="translate(62.825 28.196)">
        <path id="Path_4852" data-name="Path 4852" d="M774.333,1557.894c-4.72-11.5-17.324-18.667-28.424-16.766-11.091,1.931-17.579,12.394-14.244,24.134,3.327,11.72,16.369,20.159,28.849,18C773,1581.111,779.048,1569.375,774.333,1557.894Z" transform="translate(-730.789 -1540.824)" fill="#50bfa5"/>
        <path id="Path_4853" data-name="Path 4853" d="M797.659,1560.06l1.331,4.078c4.779.109,8.3,2.691,9.522,6.243,1.23,3.582.067,6.132-4.237,8.563-3.052,1.807-4.239,2.837-3.826,4.162.348,1.12,1.571,2.127,4.264,1.728a11.607,11.607,0,0,0,3.464-1.058,2.86,2.86,0,0,1,3.526,1.155h0a2.053,2.053,0,0,1-.753,3.082,16.183,16.183,0,0,1-3.629,1.125q.57,1.761,1.137,3.52-2.062.315-4.131.607-.6-1.9-1.193-3.8c-4.75-.21-8.173-2.68-9.216-6.209-1.153-3.895,1.245-6.252,5.115-8.31,2.676-1.43,3.64-2.6,3.144-4.114-.526-1.6-2.363-2.234-4.634-1.906a12.593,12.593,0,0,0-4.1,1.346,2.739,2.739,0,0,1-3.473-1.242l-.079-.139a2.062,2.062,0,0,1,.676-2.97,17.045,17.045,0,0,1,4.475-1.491q-.6-1.9-1.2-3.8C795.109,1560.44,796.386,1560.253,797.659,1560.06Z" transform="translate(-778.539 -1556.458)" fill="#3c8f7c"/>
        <path id="Path_4854" data-name="Path 4854" d="M1021.256,1569.26q-15.128,5.362-30.866,9.329l2.431,5.857q15.945-4.019,31.3-9.46Q1022.686,1572.124,1021.256,1569.26Z" transform="translate(-941.781 -1563.935)" fill="#50bfa5"/>
      </g>
    </g>
    <g id="Group_2178" data-name="Group 2178" transform="translate(118.808 296.719)">
      <path id="Path_4855" data-name="Path 4855" d="M758.05,1755.24v15.182c0,2.455,27.379,4.443,61.153,4.443s61.153-1.99,61.153-4.443V1755.24Z" transform="translate(-758.05 -1750.636)" fill="#e59f39"/>
      <g id="Group_2177" data-name="Group 2177" transform="translate(0 4.604)">
        <path id="Path_4856" data-name="Path 4856" d="M802.306,1774.7V1755.25H758.05v15.182C758.05,1772.458,776.75,1774.169,802.306,1774.7Z" transform="translate(-758.05 -1755.248)" fill="#eab054"/>
        <path id="Path_4857" data-name="Path 4857" d="M1005.392,1774.734c4.75.086,9.72.131,14.837.131,7.625,0,14.923-.1,21.655-.287V1755.24H1005.39v19.494Z" transform="translate(-959.077 -1755.24)" fill="#eab054"/>
        <path id="Path_4858" data-name="Path 4858" d="M1213.39,1774.508c21.788-.68,37.047-2.253,37.047-4.086V1755.24H1213.39Z" transform="translate(-1128.129 -1755.24)" fill="#eab054"/>
      </g>
      <ellipse id="Ellipse_96" data-name="Ellipse 96" cx="61.153" cy="4.443" rx="61.153" ry="4.443" transform="translate(0.002)" fill="#e59f39"/>
      <path id="Path_4859" data-name="Path 4859" d="M916.426,1741.01c0,1.7-22.546,3.082-50.358,3.082s-50.358-1.38-50.358-3.082,22.546-3.08,50.358-3.08S916.426,1739.31,916.426,1741.01Z" transform="translate(-804.913 -1736.567)" fill="#f7cc7f"/>
    </g>
    <g id="Group_2180" data-name="Group 2180" transform="translate(108.346 280.655)">
      <path id="Path_4860" data-name="Path 4860" d="M702.18,1669.45v15.182c0,2.455,27.379,4.443,61.153,4.443s61.153-1.99,61.153-4.443V1669.45Z" transform="translate(-702.18 -1664.845)" fill="#e59f39"/>
      <g id="Group_2179" data-name="Group 2179" transform="translate(0 4.603)">
        <path id="Path_4861" data-name="Path 4861" d="M746.436,1688.9V1669.45H702.18v15.182C702.18,1686.66,720.88,1688.371,746.436,1688.9Z" transform="translate(-702.18 -1669.448)" fill="#eab054"/>
        <path id="Path_4862" data-name="Path 4862" d="M949.522,1688.944c4.75.086,9.72.131,14.837.131,7.625,0,14.923-.1,21.655-.286V1669.45H949.52v19.494Z" transform="translate(-903.207 -1669.448)" fill="#eab054"/>
        <path id="Path_4863" data-name="Path 4863" d="M1157.51,1688.708c21.788-.68,37.047-2.252,37.047-4.086V1669.44H1157.51Z" transform="translate(-1072.251 -1669.44)" fill="#eab054"/>
      </g>
      <ellipse id="Ellipse_97" data-name="Ellipse 97" cx="61.153" cy="4.443" rx="61.153" ry="4.443" fill="#e59f39"/>
      <path id="Path_4864" data-name="Path 4864" d="M860.546,1655.212c0,1.7-22.546,3.08-50.358,3.08s-50.358-1.38-50.358-3.08,22.546-3.082,50.358-3.082S860.546,1653.51,860.546,1655.212Z" transform="translate(-749.035 -1650.769)" fill="#f7cc7f"/>
    </g>
    <g id="Group_2182" data-name="Group 2182" transform="translate(115.318 264.163)">
      <path id="Path_4865" data-name="Path 4865" d="M739.41,1581.38v15.182c0,2.455,27.379,4.443,61.153,4.443s61.153-1.99,61.153-4.443V1581.38Z" transform="translate(-739.41 -1576.774)" fill="#e59f39"/>
      <g id="Group_2181" data-name="Group 2181" transform="translate(0 4.604)">
        <path id="Path_4866" data-name="Path 4866" d="M783.664,1600.833V1581.38H739.41v15.182C739.41,1598.588,758.108,1600.3,783.664,1600.833Z" transform="translate(-739.41 -1581.378)" fill="#eab054"/>
        <path id="Path_4867" data-name="Path 4867" d="M986.752,1600.864c4.75.086,9.72.131,14.837.131,7.625,0,14.923-.1,21.655-.286V1581.37H986.75v19.494Z" transform="translate(-940.437 -1581.37)" fill="#eab054"/>
        <path id="Path_4868" data-name="Path 4868" d="M1194.74,1600.638c21.788-.68,37.047-2.253,37.047-4.086V1581.37H1194.74Z" transform="translate(-1109.481 -1581.37)" fill="#eab054"/>
      </g>
      <ellipse id="Ellipse_98" data-name="Ellipse 98" cx="61.153" cy="4.443" rx="61.153" ry="4.443" transform="translate(0)" fill="#e59f39"/>
      <path id="Path_4869" data-name="Path 4869" d="M897.776,1567.132c0,1.7-22.546,3.08-50.358,3.08s-50.358-1.38-50.358-3.08,22.546-3.082,50.358-3.082S897.776,1565.432,897.776,1567.132Z" transform="translate(-786.265 -1562.689)" fill="#f7cc7f"/>
    </g>
    <g id="Group_2184" data-name="Group 2184" transform="translate(108.346 247.898)">
      <path id="Path_4870" data-name="Path 4870" d="M702.18,1494.51v15.182c0,2.455,27.379,4.443,61.153,4.443s61.153-1.99,61.153-4.443V1494.51Z" transform="translate(-702.18 -1489.906)" fill="#e59f39"/>
      <g id="Group_2183" data-name="Group 2183" transform="translate(0 4.602)">
        <path id="Path_4871" data-name="Path 4871" d="M746.436,1513.963V1494.51H702.18v15.182C702.18,1511.72,720.88,1513.429,746.436,1513.963Z" transform="translate(-702.18 -1494.508)" fill="#eab054"/>
        <path id="Path_4872" data-name="Path 4872" d="M949.522,1513.994c4.75.086,9.72.131,14.837.131,7.625,0,14.923-.1,21.655-.286V1494.5H949.52v19.494Z" transform="translate(-903.207 -1494.5)" fill="#eab054"/>
        <path id="Path_4873" data-name="Path 4873" d="M1157.51,1513.768c21.788-.68,37.047-2.252,37.047-4.086V1494.5H1157.51Z" transform="translate(-1072.251 -1494.5)" fill="#eab054"/>
      </g>
      <ellipse id="Ellipse_99" data-name="Ellipse 99" cx="61.153" cy="4.443" rx="61.153" ry="4.443" fill="#e59f39"/>
      <path id="Path_4874" data-name="Path 4874" d="M860.546,1480.28c0,1.7-22.546,3.082-50.358,3.082s-50.358-1.38-50.358-3.082,22.546-3.08,50.358-3.08S860.546,1478.578,860.546,1480.28Z" transform="translate(-749.035 -1475.837)" fill="#f7cc7f"/>
    </g>
    <g id="Group_2186" data-name="Group 2186" transform="translate(418.892 295.599)">
      <path id="Path_4875" data-name="Path 4875" d="M2478.3,1748.32v14.6c0,2.359-26.329,4.273-58.808,4.273s-58.809-1.914-58.809-4.273v-14.6Z" transform="translate(-2360.678 -1743.892)" fill="#e59f39"/>
      <g id="Group_2185" data-name="Group 2185" transform="translate(0 4.426)">
        <path id="Path_4876" data-name="Path 4876" d="M2761.53,1767.018V1748.31h42.559v14.6C2804.089,1764.861,2786.106,1766.506,2761.53,1767.018Z" transform="translate(-2686.47 -1748.31)" fill="#eab054"/>
        <path id="Path_4877" data-name="Path 4877" d="M2598.624,1767.065c-4.569.082-9.347.127-14.268.127-7.333,0-14.352-.1-20.825-.275v-18.6h35.094Z" transform="translate(-2525.545 -1748.318)" fill="#eab054"/>
        <path id="Path_4878" data-name="Path 4878" d="M2396.3,1766.848c-20.953-.654-35.627-2.167-35.627-3.928v-14.6H2396.3Z" transform="translate(-2360.67 -1748.318)" fill="#eab054"/>
      </g>
      <ellipse id="Ellipse_100" data-name="Ellipse 100" cx="58.808" cy="4.273" rx="58.808" ry="4.273" transform="translate(0.002)" fill="#e59f39"/>
      <path id="Path_4879" data-name="Path 4879" d="M2416.12,1734.632c0,1.637,21.681,2.962,48.427,2.962s48.427-1.326,48.427-2.962-21.681-2.962-48.427-2.962S2416.12,1733,2416.12,1734.632Z" transform="translate(-2405.737 -1730.359)" fill="#f7cc7f"/>
    </g>
    <g id="Group_2188" data-name="Group 2188" transform="translate(428.955 280.15)">
      <path id="Path_4880" data-name="Path 4880" d="M2532.027,1665.81v14.6c0,2.359-26.329,4.273-58.809,4.273s-58.809-1.914-58.809-4.273v-14.6Z" transform="translate(-2414.41 -1661.382)" fill="#e59f39"/>
      <g id="Group_2187" data-name="Group 2187" transform="translate(0 4.428)">
        <path id="Path_4881" data-name="Path 4881" d="M2815.26,1684.518V1665.81h42.559v14.6C2857.819,1682.361,2839.836,1684,2815.26,1684.518Z" transform="translate(-2740.202 -1665.81)" fill="#eab054"/>
        <path id="Path_4882" data-name="Path 4882" d="M2652.355,1684.565c-4.569.083-9.347.127-14.27.127-7.333,0-14.352-.1-20.825-.275v-18.6h35.094v18.745Z" transform="translate(-2579.277 -1665.818)" fill="#eab054"/>
        <path id="Path_4883" data-name="Path 4883" d="M2450.037,1684.338c-20.953-.654-35.628-2.166-35.628-3.928v-14.6h35.628Z" transform="translate(-2414.41 -1665.81)" fill="#eab054"/>
      </g>
      <ellipse id="Ellipse_101" data-name="Ellipse 101" cx="58.808" cy="4.273" rx="58.808" ry="4.273" transform="translate(0)" fill="#e59f39"/>
      <ellipse id="Ellipse_102" data-name="Ellipse 102" cx="48.427" cy="2.962" rx="48.427" ry="2.962" transform="translate(10.381 1.311)" fill="#f7cc7f"/>
    </g>
    <g id="Group_2190" data-name="Group 2190" transform="translate(422.251 264.292)">
      <path id="Path_4884" data-name="Path 4884" d="M2496.227,1581.11v14.6c0,2.359-26.329,4.273-58.809,4.273s-58.808-1.914-58.808-4.273v-14.6Z" transform="translate(-2378.61 -1576.683)" fill="#e59f39"/>
      <g id="Group_2189" data-name="Group 2189" transform="translate(0 4.426)">
        <path id="Path_4885" data-name="Path 4885" d="M2779.46,1599.818V1581.11h42.559v14.6C2822.019,1597.661,2804.036,1599.307,2779.46,1599.818Z" transform="translate(-2704.402 -1581.11)" fill="#eab054"/>
        <path id="Path_4886" data-name="Path 4886" d="M2616.553,1599.865c-4.569.082-9.347.127-14.268.127-7.333,0-14.353-.1-20.826-.275v-18.6h35.094Z" transform="translate(-2543.477 -1581.118)" fill="#eab054"/>
        <path id="Path_4887" data-name="Path 4887" d="M2414.237,1599.638c-20.953-.654-35.627-2.166-35.627-3.928v-14.6h35.627Z" transform="translate(-2378.61 -1581.11)" fill="#eab054"/>
      </g>
      <ellipse id="Ellipse_103" data-name="Ellipse 103" cx="58.808" cy="4.273" rx="58.808" ry="4.273" transform="translate(0)" fill="#e59f39"/>
      <ellipse id="Ellipse_104" data-name="Ellipse 104" cx="48.427" cy="2.962" rx="48.427" ry="2.962" transform="translate(10.381 1.311)" fill="#f7cc7f"/>
    </g>
    <g id="Group_2192" data-name="Group 2192" transform="translate(428.955 248.649)">
      <path id="Path_4888" data-name="Path 4888" d="M2532.027,1497.58v14.6c0,2.359-26.329,4.273-58.809,4.273s-58.809-1.914-58.809-4.273v-14.6Z" transform="translate(-2414.41 -1493.152)" fill="#e59f39"/>
      <g id="Group_2191" data-name="Group 2191" transform="translate(0 4.426)">
        <path id="Path_4889" data-name="Path 4889" d="M2815.26,1516.278V1497.57h42.559v14.6C2857.819,1514.12,2839.836,1515.766,2815.26,1516.278Z" transform="translate(-2740.202 -1497.57)" fill="#eab054"/>
        <path id="Path_4890" data-name="Path 4890" d="M2652.355,1516.325c-4.569.083-9.347.127-14.27.127-7.333,0-14.352-.1-20.825-.275v-18.6h35.094v18.745Z" transform="translate(-2579.277 -1497.578)" fill="#eab054"/>
        <path id="Path_4891" data-name="Path 4891" d="M2450.037,1516.108c-20.953-.654-35.628-2.167-35.628-3.928v-14.6h35.628Z" transform="translate(-2414.41 -1497.578)" fill="#eab054"/>
      </g>
      <ellipse id="Ellipse_105" data-name="Ellipse 105" cx="58.808" cy="4.273" rx="58.808" ry="4.273" transform="translate(0)" fill="#e59f39"/>
      <ellipse id="Ellipse_106" data-name="Ellipse 106" cx="48.427" cy="2.962" rx="48.427" ry="2.962" transform="translate(10.381 1.311)" fill="#f7cc7f"/>
    </g>
    <g id="Group_2194" data-name="Group 2194" transform="translate(471.027 206.291)">
      <path id="Path_4892" data-name="Path 4892" d="M2742.008,1279.291l-3.534,12.334c-.571,1.994-23.276-2.762-50.715-10.621s-49.218-15.847-48.646-17.841l3.533-12.334Z" transform="translate(-2639.101 -1250.246)" fill="#e59f39"/>
      <g id="Group_2193" data-name="Group 2193" transform="translate(0.002 0.586)">
        <path id="Path_4893" data-name="Path 4893" d="M2972.5,1363.633l4.526-15.8,35.953,10.3-3.533,12.334C3008.975,1372.11,2993.385,1369.148,2972.5,1363.633Z" transform="translate(-2910.074 -1329.669)" fill="#eab054"/>
        <path id="Path_4894" data-name="Path 4894" d="M2834.981,1324.249c-3.88-1.035-7.928-2.155-12.085-3.346-6.194-1.775-12.1-3.556-17.527-5.273l4.5-15.71,29.646,8.492Z" transform="translate(-2774.239 -1290.73)" fill="#eab054"/>
        <path id="Path_4895" data-name="Path 4895" d="M2668.27,1275.113c-17.544-5.623-29.574-10.452-29.147-11.939l3.533-12.334,30.1,8.621Z" transform="translate(-2639.112 -1250.84)" fill="#eab054"/>
      </g>
      <path id="Path_4896" data-name="Path 4896" d="M2658.192,1248.167c-.571,1.994,21.209,9.982,48.646,17.841s50.145,12.615,50.716,10.621-21.21-9.982-48.646-17.841S2658.764,1246.173,2658.192,1248.167Z" transform="translate(-2654.609 -1247.713)" fill="#e59f39"/>
      <path id="Path_4897" data-name="Path 4897" d="M2705.042,1262.393c-.4,1.382,17.6,7.75,40.194,14.221s41.231,10.6,41.629,9.214-17.6-7.75-40.195-14.221S2705.439,1261.011,2705.042,1262.393Z" transform="translate(-2692.69 -1259.427)" fill="#f7cc7f"/>
    </g>
    <g id="Group_2196" data-name="Group 2196" transform="translate(442.935 149.9)">
      <path id="Path_4898" data-name="Path 4898" d="M2588.165,949.5l3.762,12.265c.609,1.983-21.02,10.373-48.306,18.741s-49.9,13.545-50.51,11.563L2489.35,979.8Z" transform="translate(-2489.298 -948.948)" fill="#e59f39"/>
      <g id="Group_2195" data-name="Group 2195" transform="translate(0.052 0.552)">
        <path id="Path_4899" data-name="Path 4899" d="M2830.95,976.183l-4.819-15.717,35.754-10.965,3.762,12.265C2866.148,963.4,2851.465,969.421,2830.95,976.183Z" transform="translate(-2763.07 -949.5)" fill="#eab054"/>
        <path id="Path_4900" data-name="Path 4900" d="M2694.084,1026.539c-3.816,1.247-7.821,2.515-11.956,3.782-6.16,1.889-12.083,3.616-17.567,5.134l-4.792-15.624,29.484-9.042Z" transform="translate(-2627.859 -999.314)" fill="#eab054"/>
        <path id="Path_4901" data-name="Path 4901" d="M2524.056,1077.894c-17.771,4.85-30.489,7.359-30.944,5.88l-3.762-12.265,29.931-9.179Z" transform="translate(-2489.35 -1041.203)" fill="#eab054"/>
      </g>
      <path id="Path_4902" data-name="Path 4902" d="M2489.086,977.278c.608,1.983,23.222-3.195,50.508-11.563s48.914-16.758,48.306-18.741-23.222,3.194-50.508,11.563S2488.477,975.295,2489.086,977.278Z" transform="translate(-2489.073 -946.551)" fill="#e59f39"/>
      <path id="Path_4903" data-name="Path 4903" d="M2535.688,986.977c.421,1.374,18.979-3.1,41.449-9.988s40.344-13.592,39.923-14.967-18.979,3.1-41.449,9.988S2535.265,985.6,2535.688,986.977Z" transform="translate(-2526.953 -958.924)" fill="#f7cc7f"/>
    </g>
    <path id="Path_4904" data-name="Path 4904" d="M1295.07,1756.661s1.453,7.713,1.455,7.73c.081,1.005.051,3.546.268,4.425.817,3.3,14.69-4.719,11.049-5.363a15.066,15.066,0,0,1-3.264-3.5,30.6,30.6,0,0,1-1.826-5.095Z" transform="translate(-1075.707 -1453.608)" fill="#f7a491"/>
    <path id="Path_4905" data-name="Path 4905" d="M1302.756,1793.342a54.091,54.091,0,0,1-5.4,1.069c-1.822.182-4.163-2.65-5.469-2.114-1.438.59-2.223,9.572-2.223,9.572s22.883,1.043,28.291-.452C1320.1,1800.826,1309.877,1796.07,1302.756,1793.342Z" transform="translate(-1071.31 -1483.98)" fill="#f47458"/>
    <path id="Path_4906" data-name="Path 4906" d="M1465.47,1754.79s1.453,7.713,1.455,7.729c.081,1.005.051,3.546.268,4.425.816,3.3,14.435-4.19,10.795-4.835a20.55,20.55,0,0,1-3.007-4.024,30.58,30.58,0,0,1-1.826-5.095Z" transform="translate(-1214.201 -1452.088)" fill="#f7a491"/>
    <path id="Path_4907" data-name="Path 4907" d="M1471.286,1793.342a54.091,54.091,0,0,1-5.4,1.069c-1.822.182-4.163-2.65-5.469-2.114-1.438.59-2.223,9.572-2.223,9.572s22.883,1.043,28.291-.452C1488.627,1800.826,1478.407,1796.07,1471.286,1793.342Z" transform="translate(-1208.284 -1483.98)" fill="#f47458"/>
    <path id="Path_4908" data-name="Path 4908" d="M1038.537,1299.809l41.631-9.656s18.668-4.936,23.175.857,23.644,85.757,23.644,85.757-9.872.858-10.516.429l-23.106-41.013a35.739,35.739,0,0,1-4.262-12.615l-1.639-11.744-16.953,4.936s-19.528,4.292-27.467-.644S1038.537,1299.809,1038.537,1299.809Z" transform="translate(-866.609 -1074.322)" fill="#0e2e35"/>
    <path id="Path_4909" data-name="Path 4909" d="M1099.8,966.93c.657.028,2.459.627,5.095,5.591,3.365,6.338,8.282,25.482,8.282,25.482l-14.68,5.449-1.886-4-3.106-30.763S1099.614,966.922,1099.8,966.93Z" transform="translate(-911.88 -813.214)" fill="#eab054"/>
    <path id="Path_4910" data-name="Path 4910" d="M910.477,952.19c4.2.006,14.585,1.227,19.4,2.762,0,0,3.541,30.334-3.189,53.384-1.505,5.161,1.245,21.389,1.245,21.389l-43.5-.573s5.153-39.236,3.211-45.574-1.987-28.424-1.987-28.424.3-.047,9.772-1.678A99,99,0,0,1,910.477,952.19Z" transform="translate(-741.966 -801.234)" fill="#f7cc7f"/>
    <path id="Path_4911" data-name="Path 4911" d="M859.015,985.83c4.067-1.52,6.057,35,6.6,50.03,7.2.691,19.754.006,22.881-.228,1.47-.11,4.859-1.348,6.321-1.537a14.768,14.768,0,0,1,3.593-.17c.27.047,7.778,3.106,8.42,3.777.8.831,2.949,2.93,2.586,3.839s-4.14-2.53-4.14-2.53l-1.846-1.032c2.3,2.237,6.681,5.185,6.05,6.258-.616,1.047-4.571-1.944-7.389-3.983,2.417,2.176,5.421,6.071,4.728,6.677-.622.545-4.037-3.962-7.688-5.26-1.352-.481-2.7.85-3.766,1.011a7.678,7.678,0,0,1-2.756.154l-3.666-.354a19.135,19.135,0,0,0-3.026.44c-1.578.335-4.168.687-6.179,1.178-11.576,2.818-15.437,4.127-18.981,4.125C850.026,1048.219,849.4,989.423,859.015,985.83Z" transform="translate(-715.789 -828.538)" fill="#f7a491"/>
    <path id="Path_4912" data-name="Path 4912" d="M845.962,1005.311c-.762-15.4-.65-34.375,8.01-37.612,3.417-1.277,9.441,6.4,8.359,37.925C857.707,1006,850.919,1006.311,845.962,1005.311Z" transform="translate(-710.454 -813.732)" fill="#eab054"/>
    <path id="Path_4913" data-name="Path 4913" d="M1025.495,1118.864l-40.981,2.678a2.681,2.681,0,0,0-2.365,1.82l-10.607,31.6-22.593,1.476a1.146,1.146,0,0,0-1.069,1.217h0a1.147,1.147,0,0,0,1.219,1.069l64.3-4.2a4.5,4.5,0,0,0,3.921-2.917l10.856-29.134A2.678,2.678,0,0,0,1025.495,1118.864Z" transform="translate(-793.525 -936.694)" fill="#f47458"/>
    <path id="Path_4914" data-name="Path 4914" d="M1233.912,1211.509a2.26,2.26,0,1,1-2.09-2.683A2.416,2.416,0,0,1,1233.912,1211.509Z" transform="translate(-1022.361 -1009.814)" fill="#fff"/>
    <path id="Path_4915" data-name="Path 4915" d="M882.947,1320.588l45.366-7.833s19.614-2.988,24.121,2.8,17.6,80.9,17.6,80.9-9.872.858-10.516.429c-.5-.333-12.45-25.372-17.816-36.654a42.84,42.84,0,0,1-3.561-11.289l-1.725-10.222-5.709,1.966a69.7,69.7,0,0,1-31.249,3.344c-4.408-.547-8.522-1.489-11.074-3.075C880.438,1336.024,882.947,1320.588,882.947,1320.588Z" transform="translate(-740.447 -1093.659)" fill="#184655"/>
    <path id="Path_4916" data-name="Path 4916" d="M987.035,877.847l.884,6.552s1.977,9.437-.567,11.257-10.821-11.527-10.821-11.527l.874-16.6Z" transform="translate(-816.813 -732.427)" fill="#f7a491"/>
    <path id="Path_4917" data-name="Path 4917" d="M979.68,872.91A18.828,18.828,0,0,0,990.342,883.4l-.749-5.554-9.632-10.317Z" transform="translate(-819.373 -732.427)" fill="#f47458"/>
    <path id="Path_4918" data-name="Path 4918" d="M981.605,770.577a8.755,8.755,0,0,1,10.094,8.834,66.181,66.181,0,0,1-.738,8.4c-1.172,7.563-6.349,14.221-9.772,13.626s-12.036-7.117-10.52-17.88C971.6,776.918,975.947,771.487,981.605,770.577Z" transform="translate(-811.906 -653.538)" fill="#f7a491"/>
    <path id="Path_4919" data-name="Path 4919" d="M962.5,832.205a2.55,2.55,0,1,1-1.94-3.438A2.82,2.82,0,0,1,962.5,832.205Z" transform="translate(-801.366 -700.898)" fill="#f7a491"/>
    <path id="Path_4920" data-name="Path 4920" d="M968.087,770.528s4.138,1.024,5.675-1.627,7.027-8.377,14.01-6-6.144-5.771-6.7-5.771-7.261-.047-7.261-.047-5.166,4.236-5.353,4.7-1.676,5.539-1.676,5.539Z" transform="translate(-808.888 -642.658)" fill="#0e2e35"/>
    <g id="Group_2198" data-name="Group 2198" transform="translate(362.004 280.738)">
      <rect id="Rectangle_418" data-name="Rectangle 418" width="103.025" height="37.496" transform="translate(103.025 37.496) rotate(180)" fill="#50bfa5"/>
      <g id="Group_2197" data-name="Group 2197" transform="translate(0)">
        <rect id="Rectangle_419" data-name="Rectangle 419" width="103.025" height="4.823" transform="translate(103.025 10.288) rotate(180)" fill="#96d9c9"/>
        <rect id="Rectangle_420" data-name="Rectangle 420" width="103.025" height="4.823" transform="translate(103.025 19.711) rotate(180)" fill="#96d9c9"/>
        <rect id="Rectangle_421" data-name="Rectangle 421" width="103.025" height="4.823" transform="translate(103.025 29.131) rotate(180)" fill="#96d9c9"/>
        <rect id="Rectangle_422" data-name="Rectangle 422" width="103.025" height="4.823" transform="translate(103.025 37.496) rotate(180)" fill="#96d9c9"/>
        <rect id="Rectangle_423" data-name="Rectangle 423" width="21.427" height="37.496" transform="translate(59.779 37.496) rotate(180)" fill="#f7cc7f"/>
      </g>
      <rect id="Rectangle_424" data-name="Rectangle 424" width="15.558" height="37.496" transform="translate(117.334 37.496) rotate(180)" fill="#3c8f7c"/>
    </g>
    <rect id="Rectangle_425" data-name="Rectangle 425" width="569.301" height="3.249" transform="translate(10.22 317.702)" fill="#0e2e35"/>
    <path id="Path_4921" data-name="Path 4921" d="M1109.627,232.47a10.236,10.236,0,0,0-12.549-7.6,15.071,15.071,0,0,0-18.118-8,18.56,18.56,0,0,0-33.337,3.243,12.732,12.732,0,0,0-18.923,11.126q0,.626.06,1.236h82.868Z" transform="translate(-857.588 -196.302)" fill="#fff" opacity="0.8"/>
    <path id="Path_4922" data-name="Path 4922" d="M1396.614,528.291a7.746,7.746,0,0,0-9.5-5.752,11.4,11.4,0,0,0-13.71-6.056,14.045,14.045,0,0,0-25.228,2.453,9.636,9.636,0,0,0-14.321,8.42c0,.315.017.627.047.934Z" transform="translate(-1107.234 -441.591)" fill="#fff" opacity="0.8"/>
    <path id="Path_4923" data-name="Path 4923" d="M736.45,500.691a6.754,6.754,0,0,1,8.28-5.016,9.944,9.944,0,0,1,11.956-5.28,12.248,12.248,0,0,1,22,2.138,8.4,8.4,0,0,1,12.486,7.342c0,.275-.015.547-.039.814H736.45Z" transform="translate(-621.687 -421.093)" fill="#fff" opacity="0.8"/>
    <g id="Group_2199" data-name="Group 2199" transform="translate(222.962 111.774)">
      <path id="Path_4924" data-name="Path 4924" d="M1354.68,753.536l.73,8.885,5.161-5.812,16.691-13.669-14.233,4.485s-7.007,3.4-7.329,3.854A18.058,18.058,0,0,0,1354.68,753.536Z" transform="translate(-1347.117 -742.94)" fill="#50bfa5"/>
      <path id="Path_4925" data-name="Path 4925" d="M1314.29,749.72l30.143-6.78-22.58,10.6Z" transform="translate(-1314.29 -742.94)" fill="#96d9c9"/>
      <path id="Path_4926" data-name="Path 4926" d="M1376.261,760.116l-9.291-4.636,20.279-12.54Z" transform="translate(-1357.106 -742.94)" fill="#96d9c9"/>
    </g>
    <g id="Group_2202" data-name="Group 2202" transform="translate(212.129 126.02)">
      <g id="Group_2200" data-name="Group 2200" transform="translate(14.648 0)">
        <path id="Path_4927" data-name="Path 4927" d="M1334.9,820.3a11.041,11.041,0,0,1,2.429-.639l-.067-.646a11.587,11.587,0,0,0-2.588.676Z" transform="translate(-1334.67 -819.02)" fill="#3c8f7c"/>
      </g>
      <g id="Group_2201" data-name="Group 2201" transform="translate(0 3.307)">
        <path id="Path_4928" data-name="Path 4928" d="M1256.44,887.169a26.43,26.43,0,0,0,3.269-3.574l.519.391a27.015,27.015,0,0,1-3.348,3.663Zm5.778-7.707c.318-.669.612-1.365.871-2.071.294-.8.554-1.635.773-2.481l.629.163c-.225.869-.49,1.725-.792,2.543-.266.725-.567,1.44-.895,2.125Zm2.623-14.2.65-.015a42.146,42.146,0,0,1-.159,4.943l-.646-.062A42,42,0,0,0,1264.842,865.258Zm-.925-9.735.642-.092c.271,1.9.466,3.453.61,4.887l-.646.066C1264.381,858.958,1264.188,857.414,1263.917,855.523Zm-.727-4.891a23.789,23.789,0,0,1-.245-4.93l.648.041a23.248,23.248,0,0,0,.24,4.794l.006.037-.644.088Zm.817-9.81a11.779,11.779,0,0,1,2.82-4.142l.446.472a11.166,11.166,0,0,0-2.664,3.915Z" transform="translate(-1256.44 -836.68)" fill="#3c8f7c"/>
      </g>
    </g>
  </g>
</svg>
