<svg xmlns="http://www.w3.org/2000/svg" width="31.588" height="32.055" viewBox="0 0 31.588 32.055">
  <path id="database-server" d="M4.7,7.086a27.878,27.878,0,0,0,8.479,1.164,27.877,27.877,0,0,0,8.479-1.164c1.889-.631,3.058-1.4,3.058-2.142S23.542,3.433,21.653,2.8a28.035,28.035,0,0,0-8.476-1.164A28.085,28.085,0,0,0,4.7,2.8C.691,4.14.579,5.711,4.7,7.086ZM31.58,31.609V13.3a.561.561,0,0,0-.545-.454H20.584a.561.561,0,0,0-.556.556V31.5a.543.543,0,0,0,.164.391.522.522,0,0,0,.391.164H31.045a.553.553,0,0,0,.391-.164.6.6,0,0,0,.151-.292Zm-4.3-3.913a1.654,1.654,0,0,1-3.238.185l1.769-1.1,1.469.91Zm2.249-11.677v1.391H22.089V16.018Zm0,3.845v1.391H25.864l-.037-.123-.047.115H22.089V19.864ZM1.657,12.713c.149.7,1.284,1.4,3.042,1.985a27.878,27.878,0,0,0,8.479,1.164c1.161,0,2.283-.055,3.342-.157v1.649c-1.064.1-2.186.151-3.339.151a29.526,29.526,0,0,1-9-1.252,10.334,10.334,0,0,1-2.523-1.19v4.912c.149.7,1.284,1.4,3.042,1.985a27.959,27.959,0,0,0,8.479,1.164c1.158,0,2.28-.055,3.337-.154v1.641c-1.067.1-2.189.149-3.342.149a29.438,29.438,0,0,1-9-1.255,10.334,10.334,0,0,1-2.523-1.187v4.912c.149.7,1.284,1.4,3.042,1.985A27.959,27.959,0,0,0,13.18,30.38c1.161,0,2.283-.055,3.339-.157V31.5a2.482,2.482,0,0,0,.018.368c-1.072.1-2.2.151-3.358.151a29.438,29.438,0,0,1-9-1.255C2.961,30.356.01,29.015.01,27.411v-.522Q0,15.914,0,4.957c0-1.544,1.6-2.841,4.174-3.7a29.605,29.605,0,0,1,9-1.252,29.481,29.481,0,0,1,9,1.255c2.324.777,3.885,1.931,4.143,3.285a.8.8,0,0,1,.047.277V9.337H24.719V7.43a10.36,10.36,0,0,1-2.544,1.2,29.272,29.272,0,0,1-8.993,1.255A29.578,29.578,0,0,1,4.174,8.633,10.334,10.334,0,0,1,1.651,7.446v5.267Z" fill="#46a62b" fill-rule="evenodd"/>
</svg>
