<svg xmlns="http://www.w3.org/2000/svg" width="365.326" height="274.67" viewBox="0 0 365.326 274.67">
  <g id="_5124558" data-name="5124558" transform="translate(-29.074 -71.861)">
    <g id="BACKGROUND" transform="translate(29.074 71.86)">
      <path id="Path_4532" data-name="Path 4532" d="M335.03,332.056s45.493-32.4,58.586-87.537-6.9-122-44.8-155.776S242.662,77.715,212.337,105.975l-30.326,28.26s-28.951,15.85-66.865,14.476S43.459,199.026,34.5,239.7s12.41,94.433,12.41,94.433Z" transform="translate(-32.302 -71.86)" fill="#46a62b"/>
      <path id="Path_4533" data-name="Path 4533" d="M356.2,340.72s31.708-17.233,39.979-57.211S368.615,207,365.167,187.01s4.139-44.8-27.569-64.108S249.37,110.492,228,105.67s-46.184-37.913-88.92-30.326S54.981,105.67,52.915,155.3,66.7,206.308,50.85,233.194s-22.055,45.493-14.476,73.061,23.438,35.156,23.438,35.156Z" transform="translate(-32.805 -72.255)" fill="#3c9822"/>
      <path id="Path_4534" data-name="Path 4534" d="M343.763,352.468c1.974-2.066,30.9-59.968-1.316-113.04s-113.082-46.875-145.3-26.194-47.991,47.558-51.281,75.818,18.407,72.378,18.407,72.378Z" transform="translate(-86.561 -92.965)" fill="#46a62b"/>
    </g>
    <g id="OBJECTS" transform="translate(33.493 92.183)">
      <g id="Group_2037" data-name="Group 2037" transform="translate(21.788 114.822)">
        <g id="Group_2031" data-name="Group 2031">
          <path id="Path_4535" data-name="Path 4535" d="M389,261.006h37.164a4.166,4.166,0,0,0,4.164-4.164V238.284a4.166,4.166,0,0,0-4.164-4.164H389a4.166,4.166,0,0,0-4.164,4.164v18.557A4.166,4.166,0,0,0,389,261.006Z" transform="translate(-384.84 -234.12)" fill="#60a8ff"/>
          <path id="Path_4536" data-name="Path 4536" d="M410.969,276.219,405.08,262.26h11.777Z" transform="translate(-388.222 -238.822)" fill="#60a8ff"/>
        </g>
        <g id="Group_2036" data-name="Group 2036" transform="translate(7.03 3.18)">
          <g id="Group_2034" data-name="Group 2034" transform="translate(0 1.193)">
            <g id="Group_2032" data-name="Group 2032">
              <path id="Path_4537" data-name="Path 4537" d="M427.838,243.826H417.194v1.558l-5.214-3.007,5.214-3.007v1.558h10.644Z" transform="translate(-411.98 -239.37)" fill="#223a7a"/>
            </g>
            <g id="Group_2033" data-name="Group 2033" transform="translate(0 9.02)">
              <path id="Path_4538" data-name="Path 4538" d="M411.98,251.749h10.636V250.2l5.222,3.007-5.222,3.007v-1.558H411.98Z" transform="translate(-411.98 -250.2)" fill="#fff"/>
            </g>
          </g>
          <g id="Group_2035" data-name="Group 2035" transform="translate(17.772)">
            <path id="Path_4539" data-name="Path 4539" d="M397.26,252.646l.508.183a15.9,15.9,0,0,0,2.4-3.765,13.635,13.635,0,0,0,.85-4.356l-.366-.158,2.249-5.38a4.442,4.442,0,0,1,1.091,1.241c1.274,2.149,1.149,5.455-.133,8.679s-2.649,6.105-5.147,7.912a4.936,4.936,0,0,1-3.723,1.1Z" transform="translate(-392.643 -238.144)" fill="#223a7a"/>
            <path id="Path_4540" data-name="Path 4540" d="M408.24,254.574l.7.258-2.3,5.514a4.529,4.529,0,0,1-.7-.3,1.348,1.348,0,0,1-.608-1.674l1.2-3.032A1.342,1.342,0,0,1,408.24,254.574Z" transform="translate(-405.24 -240.704)" fill="#223a7a"/>
            <path id="Path_4541" data-name="Path 4541" d="M401.406,238.015a5.105,5.105,0,0,1,.9.425l-2.3,5.5-.775-.325a1.343,1.343,0,0,1-.733-1.724l1.208-3.1A1.351,1.351,0,0,1,401.406,238.015Z" transform="translate(-392.917 -237.938)" fill="#223a7a"/>
          </g>
        </g>
      </g>
      <g id="Group_2038" data-name="Group 2038" transform="translate(209.597 143.375)">
        <path id="Path_4542" data-name="Path 4542" d="M203.134,354.9V292.871s.691-16.716-8.1-21.539-45.834-2.24-45.834-2.24V354.9h53.93Z" transform="translate(-149.205 -268.401)" fill="#323232"/>
      </g>
      <g id="Group_2075" data-name="Group 2075" transform="translate(119.787 34.582)">
        <g id="Group_2039" data-name="Group 2039" transform="translate(58.227 51.405)">
          <path id="Path_4543" data-name="Path 4543" d="M237.958,199.5s2.24,18.782,3.1,20.331l.858,1.549,4.306,2.932s-8.271,11.719-18.44,13.609-9.3-4.139-9.3-4.139l1.549-3.273-2.066-17.924C217.968,212.6,236.409,204.156,237.958,199.5Z" transform="translate(-217.96 -199.5)" fill="#ff9d8c"/>
        </g>
        <path id="Path_4544" data-name="Path 4544" d="M261.678,230.572l-6.721-2.932s-4.306,7.063-14.3,11.2-10.17,1.724-10.686,0a6.529,6.529,0,0,1,.175-3.615l-.741-6.03-4,1.333L211.53,342.762l35.673,1.724Z" transform="translate(-169.835 -152.797)" fill="#fff"/>
        <g id="Group_2040" data-name="Group 2040" transform="translate(0 76.509)">
          <path id="Path_4545" data-name="Path 4545" d="M309.977,229.64s-2.415,5.572-4.656,18.665A445.106,445.106,0,0,0,300.5,298.62c-.516,15.159-.858,49.8-.858,49.8H254.665c-.516,0-3.615-17.058-3.615-17.058s19.648-16.833,20.681-19.59c.691-1.841.341-35.9,3.273-51.581s6.721-18.84,14.651-22.746C297.834,233.413,309.977,229.64,309.977,229.64Z" transform="translate(-251.05 -229.64)" fill="#3d3d40"/>
        </g>
        <g id="Group_2041" data-name="Group 2041" transform="translate(35.073 103.386)">
          <path id="Path_4546" data-name="Path 4546" d="M278.066,334.08a.412.412,0,0,0,.416-.416c0-1.233.217-18.74.433-35.664s.433-34.44.433-35.673a.416.416,0,0,0-.833,0c0,1.233-.217,18.74-.433,35.664s-.433,34.44-.433,35.673A.423.423,0,0,0,278.066,334.08Z" transform="translate(-277.65 -261.91)" fill="#8593b6"/>
        </g>
        <g id="Group_2042" data-name="Group 2042" transform="translate(71.475 171.338)">
          <path id="Path_4547" data-name="Path 4547" d="M224.816,343.5l.341,23.954H172.768s-2.24-20.331-1.383-22.23C172.26,343.333,224.816,343.5,224.816,343.5Z" transform="translate(-171.19 -343.495)" fill="#323232"/>
        </g>
        <g id="Group_2043" data-name="Group 2043" transform="translate(58.236 53.446)">
          <path id="Path_4548" data-name="Path 4548" d="M238.172,219.732a27.464,27.464,0,0,1-7.329,3.94l-1.233-10.661s13.851-6.347,18.549-11.061C247.176,207.305,244.76,214.41,238.172,219.732Z" transform="translate(-229.61 -201.95)" fill="#8e9bbb"/>
        </g>
        <g id="Group_2044" data-name="Group 2044" transform="translate(37.514 12.559)">
          <path id="Path_4549" data-name="Path 4549" d="M228.795,156.725a37.362,37.362,0,0,0-4.306,13.784c-.691,7.579,0,27.052,6.205,35.323s19.132,5.855,24.987.858c5.38-4.589,10.686-9.653,12.06-19.648s-2.932-28.951-15.167-32.916C240.347,150.178,228.795,156.725,228.795,156.725Z" transform="translate(-224.272 -152.86)" fill="#ff9d8c"/>
        </g>
        <g id="Group_2052" data-name="Group 2052" transform="translate(26.494 169.942)">
          <g id="Group_2045" data-name="Group 2045">
            <path id="Path_4550" data-name="Path 4550" d="M235.541,356.346s.608,0,1.533-.025c.217-.008.458,0,.708-.008.891-.025,1.974-.05,3.065-.083l.733-.025c1.083-.025,2.007.108,2.873.058h.025c.183-.008.45.017.666.025a1.619,1.619,0,0,0,.275.008,4.046,4.046,0,0,0,1.141-.45,77.475,77.475,0,0,1,17.874-2.382c7.7.033,14.6.558,15.725-.383,1.133-.958,1.816-10.628-4.756-11.261l-8.079,3.065s-18.449-2.19-25.212,2.8C235.333,352.673,235.541,356.346,235.541,356.346Z" transform="translate(-235.541 -341.82)" fill="#ff9d8c"/>
          </g>
          <g id="Group_2047" data-name="Group 2047" transform="translate(8.938 8.964)">
            <g id="Group_2046" data-name="Group 2046">
              <path id="Path_4551" data-name="Path 4551" d="M266.589,358.061c.183-.008.45.017.666.025a7.818,7.818,0,0,1,.708-.95c2.082-2.124,7.113-3.5,8.937-3.94a.313.313,0,0,0,.233-.375.32.32,0,0,0-.383-.233c-2.657.641-8.3,2.282-9.895,4.972C266.806,357.636,266.673,357.894,266.589,358.061Z" transform="translate(-266.589 -352.582)" fill="#223a7a"/>
            </g>
          </g>
          <g id="Group_2049" data-name="Group 2049" transform="translate(5.306 6.858)">
            <g id="Group_2048" data-name="Group 2048">
              <path id="Path_4552" data-name="Path 4552" d="M269.444,357.6c.242-.008.491-.008.733-.025,2.274-4.148,6-5.339,10.586-6.813l.275-.092a.324.324,0,0,0,.2-.4.32.32,0,0,0-.4-.2l-.267.092C275.715,351.725,271.8,352.974,269.444,357.6Z" transform="translate(-269.444 -350.054)" fill="#223a7a"/>
            </g>
          </g>
          <g id="Group_2051" data-name="Group 2051" transform="translate(1.533 4.985)">
            <g id="Group_2050" data-name="Group 2050">
              <path id="Path_4553" data-name="Path 4553" d="M272.606,357.313c.217-.008.458,0,.708-.008a18.164,18.164,0,0,1,11.977-8.879.319.319,0,0,0,.258-.367.325.325,0,0,0-.366-.25C278.969,348.984,273.947,354.056,272.606,357.313Z" transform="translate(-272.606 -347.806)" fill="#223a7a"/>
            </g>
          </g>
        </g>
        <g id="Group_2053" data-name="Group 2053" transform="translate(26.902)">
          <path id="Path_4554" data-name="Path 4554" d="M264.566,176.01a16.129,16.129,0,0,1-6.463-6.9,19.56,19.56,0,0,1-2.324-9.653s-4.822-.775-12.06,1.383-15.85,5.081-23.088.95-7.238-10.769-3.706-13.526c3.956-3.09,11.8-1.208,11.8-1.208s-3.015-2.932-1.383-4.656,7.579.516,7.579.516,7.238-5.772,20.939-5.081,20.248,10.253,21.022,20.939-3.1,21.372-3.1,21.372Z" transform="translate(-214.617 -137.781)" fill="#223a7a"/>
        </g>
        <g id="Group_2055" data-name="Group 2055" transform="translate(45.473 40.608)">
          <g id="Group_2054" data-name="Group 2054">
            <path id="Path_4555" data-name="Path 4555" d="M262.238,186.748c.775,1.916.758,4.139.95,6.163.15,1.582.441,3.423-1.008,4.489-.691.508-3.965,1.882-2.282,3a4.435,4.435,0,0,0,2.449.275c.5-.025,1.008-.042,1.516-.083.541-.042,1.066-.2,1.607-.208a.316.316,0,0,1,.158.583,6.756,6.756,0,0,1-3.157.75,4.782,4.782,0,0,1-2.615-.458,1.859,1.859,0,0,1-1.191-1.341,2.159,2.159,0,0,1,1.033-1.849c.65-.483,1.449-.708,2.107-1.183.916-.65.841-1.757.775-2.774-.158-2.449-.716-4.856-.933-7.3-.042-.358.475-.358.591-.067Z" transform="translate(-258.653 -186.537)" fill="#8e9bbb"/>
          </g>
        </g>
        <g id="Group_2056" data-name="Group 2056" transform="translate(41.954 43.555)">
          <path id="Path_4556" data-name="Path 4556" d="M266.8,193.061c.258,1.449,1.316,2.482,2.357,2.3s1.682-1.516,1.433-2.965-1.316-2.482-2.357-2.3S266.544,191.612,266.8,193.061Z" transform="translate(-266.745 -190.075)" fill="#223a7a"/>
        </g>
        <g id="Group_2057" data-name="Group 2057" transform="translate(55.152 42.236)">
          <path id="Path_4557" data-name="Path 4557" d="M250.611,191.647c.233,1.566,1.341,2.7,2.465,2.532s1.857-1.574,1.624-3.14-1.341-2.7-2.465-2.532S250.378,190.081,250.611,191.647Z" transform="translate(-250.568 -188.49)" fill="#223a7a"/>
        </g>
        <g id="Group_2059" data-name="Group 2059" transform="translate(39.622 38.495)">
          <g id="Group_2058" data-name="Group 2058">
            <path id="Path_4558" data-name="Path 4558" d="M272.425,186.066c-.808.133-1.616,0-2.432.058-.192.017-.391.042-.583.058-.142.017.258-.042.067-.008a.643.643,0,0,1-.125.017c-.1.017-.2.042-.3.067-.175.042-.341.108-.516.142a1.993,1.993,0,0,1-.491.067c-.092-.008-.175-.025-.267-.033a1.176,1.176,0,0,1,.167.033,1.728,1.728,0,0,1-.333-.033.9.9,0,0,1-.616-1.091.923.923,0,0,1,.175-.35,1.513,1.513,0,0,1,.108-.133c-.033.033-.067.075-.1.108a1.587,1.587,0,0,1,.108-.142.484.484,0,0,1,.183-.183c.067-.05.125-.1.192-.15a2.359,2.359,0,0,1,.75-.3,6.346,6.346,0,0,1,1.483-.192,10.758,10.758,0,0,1,1.466.117,2.813,2.813,0,0,1,1.258.466.848.848,0,0,1,.391.808.825.825,0,0,1-.583.675Z" transform="translate(-266.962 -184)" fill="#223a7a"/>
          </g>
        </g>
        <g id="Group_2061" data-name="Group 2061" transform="translate(53.884 37.308)">
          <g id="Group_2060" data-name="Group 2060">
            <path id="Path_4559" data-name="Path 4559" d="M248.187,183.52a3.2,3.2,0,0,1,.333-.175c.1-.042.366-.183.167-.075.075-.042.15-.083.225-.117a5.182,5.182,0,0,1,1.041-.375,6.975,6.975,0,0,1,2.424-.167,5.625,5.625,0,0,1,2.39.75,1.313,1.313,0,0,1,.3.217l.175.225-.05-.075a.818.818,0,0,1,.358.7.687.687,0,0,1-.375.616,1.055,1.055,0,0,1-.841.008h.433a1.553,1.553,0,0,1-.65-.008c-.008,0-.233-.058-.083-.025s-.233-.025-.275-.033-.308-.033-.033-.008c-.05-.008-.1-.008-.15-.017-.133-.017-.258-.033-.391-.042-.566-.042-1.133-.067-1.707-.092-.525-.017-1.066-.025-1.6,0l-.675.025c-.125,0-.075.025.017,0a.872.872,0,0,1-.142.033c-.092.025-.183.058-.275.092a.8.8,0,0,1-.616-1.458Z" transform="translate(-247.8 -182.574)" fill="#223a7a"/>
          </g>
        </g>
        <g id="Group_2062" data-name="Group 2062" transform="translate(46.292 58.366)">
          <path id="Path_4560" data-name="Path 4560" d="M257.3,211.7a7.813,7.813,0,0,0-3.89-3.506c1.441-.15,8.262-.775,9.978.2,1.924,1.091-.358,5.489-4.339,5.705a5.3,5.3,0,0,1-1.166-.067A5.773,5.773,0,0,0,257.3,211.7Z" transform="translate(-253.407 -207.857)" fill="#223a7a"/>
        </g>
        <g id="Group_2063" data-name="Group 2063" transform="translate(66.848 52.271)">
          <path id="Path_4561" data-name="Path 4561" d="M238.566,201.231s-.691,2.674-4.656,5.772a46.173,46.173,0,0,1-9.712,5.372l-.458-2.007s5.947-2.582,8.7-5.43,3.1-4.4,3.1-4.4Z" transform="translate(-223.74 -200.54)" fill="#dee1eb"/>
        </g>
        <g id="Group_2064" data-name="Group 2064" transform="translate(60.955 60.602)">
          <path id="Path_4562" data-name="Path 4562" d="M244.3,210.549a4.973,4.973,0,0,0-5.189,4.006c-.225,1.632,1.308,3.465,4.9,1.857C248.456,214.4,247.49,210.69,244.3,210.549Z" transform="translate(-239.09 -210.542)" fill="#223a7a"/>
        </g>
        <g id="Group_2065" data-name="Group 2065" transform="translate(47.725 0.564)">
          <path id="Path_4563" data-name="Path 4563" d="M249.6,171.126s-1.374-9.9-8.012-16.633c-12.668-12.835-23.438-12.06-23.438-12.06s.083-1.807,4.139-3.19c3.806-1.291,5.514-.6,5.514-.6s10.428.858,19.215,10.594,9.736,22.147,9.736,22.147Z" transform="translate(-218.15 -138.458)" fill="#dee1eb"/>
        </g>
        <g id="Group_2068" data-name="Group 2068" transform="translate(72.194 31.83)">
          <g id="Group_2066" data-name="Group 2066">
            <path id="Path_4564" data-name="Path 4564" d="M217.579,176.191c8.3-1.408,12.926,5.081,13.268,11.636s-4.414,11.527-10.769,11.027C205.777,197.73,207.41,177.915,217.579,176.191Z" transform="translate(-209.649 -175.997)" fill="#fff"/>
          </g>
          <g id="Group_2067" data-name="Group 2067" transform="translate(5.645 3.589)">
            <path id="Path_4565" data-name="Path 4565" d="M219.989,193.2a5.647,5.647,0,0,0,5.1-3.04,6.3,6.3,0,0,0-.242-6.513.318.318,0,0,0-.433-.083.311.311,0,0,0-.083.433,5.674,5.674,0,0,1,.208,5.864,5.037,5.037,0,0,1-4.714,2.715,5.449,5.449,0,0,1-4.523-2.44,6.913,6.913,0,0,1-.683-6.122,4.66,4.66,0,0,1,4.648-3.057.315.315,0,0,0,.35-.267.311.311,0,0,0-.267-.35,5.224,5.224,0,0,0-5.314,3.456,7.533,7.533,0,0,0,.75,6.688,6.057,6.057,0,0,0,5.022,2.715Z" transform="translate(-213.572 -180.306)" fill="#818fb3"/>
          </g>
        </g>
        <g id="Group_2069" data-name="Group 2069" transform="translate(60.826 75.359)">
          <path id="Path_4566" data-name="Path 4566" d="M186.373,228.26s25.162,6.205,33.949,16.2,12.926,59.277,13.093,68.414-6.205,12.926-9.995,15.508-20.506,7.238-33.949,7.929-26.194,0-26.194,0a17.936,17.936,0,0,0-2.024-7.238c-1.916-4-4.348-4.822-4.348-4.822l11.544-4.139s2.024-36.222,5.172-53.763C177.237,246.184,186.373,228.26,186.373,228.26Z" transform="translate(-156.906 -228.26)" fill="#3d3d40"/>
        </g>
        <g id="Group_2070" data-name="Group 2070" transform="translate(41.113 77.434)">
          <path id="Path_4567" data-name="Path 4567" d="M262.359,314.739a.373.373,0,0,0,.167-.033.411.411,0,0,0,.208-.55c-2.357-5.322-4.8-15.758-6.172-23.088l-.117-.591c-.416-2.157-.933-4.831.1-6.688.525-.941,1.716-2.99,2.865-4.956,1.191-2.041,2.307-3.973,2.624-4.548.608-1.124-1.308-4.131-4.073-8.254-.75-1.116-1.391-2.074-1.766-2.724-.983-1.707-.333-3.265.433-5.081l.258-.625c.691-1.691,1.474-3.382,2.232-5.022.308-.666.616-1.341.924-2.016.408-.891.808-1.8,1.224-2.715a158.284,158.284,0,0,1,8.179-16.466.419.419,0,1,0-.716-.433,159.035,159.035,0,0,0-8.221,16.55c-.408.916-.816,1.824-1.216,2.707-.308.675-.616,1.341-.924,2.007-.758,1.649-1.549,3.348-2.24,5.056l-.258.616c-.775,1.841-1.574,3.756-.383,5.814.391.675,1.041,1.649,1.8,2.774,1.441,2.149,4.439,6.621,4.031,7.4-.308.566-1.424,2.49-2.607,4.523-1.149,1.974-2.34,4.023-2.874,4.972-1.183,2.116-.633,4.964-.192,7.246l.117.591c.5,2.665,3.157,16.325,6.23,23.271A.372.372,0,0,0,262.359,314.739Z" transform="translate(-254.881 -230.751)" fill="#8593b6"/>
        </g>
        <g id="Group_2071" data-name="Group 2071" transform="translate(72.743 76.051)">
          <path id="Path_4568" data-name="Path 4568" d="M208.817,315.927a.391.391,0,0,0,.292-.125c1.957-1.974,11.4-18.324,12.1-21.4.383-1.682-.583-5.955-1.516-10.086-.725-3.2-1.474-6.5-1.258-7.4.317-1.341,2.732-3.315,5.072-5.222,2.824-2.307,5.739-4.689,6.305-6.838.641-2.44.092-17.716-.267-27.819-.133-3.631-.233-6.5-.233-7.529a.412.412,0,0,0-.416-.416h0a.412.412,0,0,0-.416.416c0,1.041.1,3.915.233,7.554.341,9.445.908,25.253.3,27.577-.5,1.882-3.432,4.281-6.022,6.4-2.557,2.091-4.964,4.056-5.347,5.672-.258,1.083.441,4.189,1.258,7.779.875,3.848,1.857,8.212,1.516,9.712-.691,3.015-9.961,19.057-11.885,21a.428.428,0,0,0,0,.591A.33.33,0,0,0,208.817,315.927Z" transform="translate(-208.415 -229.09)" fill="#8593b6"/>
        </g>
        <g id="Group_2072" data-name="Group 2072" transform="translate(101.279 106.25)">
          <path id="Path_4569" data-name="Path 4569" d="M198.549,314.832h.058a.428.428,0,0,0,.358-.475c-.308-2.166-5.089-45.309-5.306-48.616a.418.418,0,0,0-.441-.391.424.424,0,0,0-.391.441c.217,3.307,5.006,46.509,5.314,48.674A.413.413,0,0,0,198.549,314.832Z" transform="translate(-192.827 -265.349)" fill="#8593b6"/>
        </g>
        <g id="Group_2073" data-name="Group 2073" transform="translate(72.291 151.453)">
          <path id="Path_4570" data-name="Path 4570" d="M182.7,335.62a.361.361,0,0,0,.158-.033c1.058-.433,5.739-2.007,11.66-4.006,11.96-4.031,28.335-9.553,31.45-11.177a.414.414,0,0,0-.383-.733c-3.057,1.591-20.073,7.329-31.333,11.127-5.939,2.007-10.628,3.581-11.71,4.023a.417.417,0,0,0-.233.541A.445.445,0,0,0,182.7,335.62Z" transform="translate(-182.281 -319.621)" fill="#8593b6"/>
        </g>
        <g id="Group_2074" data-name="Group 2074" transform="translate(72.027 176.445)">
          <path id="Path_4571" data-name="Path 4571" d="M177.958,357.817c10.528,0,30.925-1.9,46.425-7.379a.416.416,0,1,0-.283-.783c-19.581,6.93-46.975,8.112-52.072,6.963a.418.418,0,1,0-.183.816A34.156,34.156,0,0,0,177.958,357.817Z" transform="translate(-171.518 -349.628)" fill="#8593b6"/>
        </g>
      </g>
      <g id="Group_2084" data-name="Group 2084" transform="translate(267.886 85.573)">
        <g id="Group_2083" data-name="Group 2083">
          <g id="Group_2076" data-name="Group 2076">
            <path id="Path_4572" data-name="Path 4572" d="M93.836,229.184c-3.265,2.873-7.4,4.714-10.27,8.037-1.124,1.308-2.141,2.7-3.19,4.073-.766,1-2.8,2.657-3.123,3.906-.142.55-.117-.2.033-.75.008-.025.017-.042.025-.067.283-2.54.491-5.089.583-7.646s-.067-5.106.092-7.646c.225-3.59,1.349-7.063,4.281-9.312,1.433-1.1,3.273-1.766,4.6-2.99,1.249-1.158.75-2.482.017-3.773a12.753,12.753,0,0,1-1.791-3.79,6.666,6.666,0,0,1,1.091-4.556c1.707-2.865,5.489-6.063,9.079-5.63,2.99.358,3.332,3.806,3.282,6.205-.042,2.332-.275,4.664-.292,7-.025,2.4.383,4.756.416,7.146C98.7,223.454,96.826,226.552,93.836,229.184Z" transform="translate(-43.007 -199.002)" fill="#46a62b"/>
            <path id="Path_4573" data-name="Path 4573" d="M75.5,269.945a38.208,38.208,0,0,0-3.24-6.172c-1.757-2.707-3.715-5.347-4.9-8.379-1.208-3.1-1.033-6.4-1.149-9.662-.083-2.4-.8-4.781-.608-7.188.092-1.149.758-3.015,2.249-2.823,1.158.15,1.849,1.582,2.29,2.507a43.882,43.882,0,0,1,1.891,4.989c.225.658.441,1.324.725,1.957.167.366.691,1.266,1.191,1.149.85-.208.075-3.665-.05-4.281-.633-3.073-1.582-5.93-1.716-9.1-.192-4.589.167-10.053,4.656-12.56,1.174-.658,2.657-1.049,3.773-.067,1.1.966,1.408,2.64,1.574,4.023.5,4.239-.5,8.246-1.857,12.235-1.124,3.29-2.457,6.688-2.557,10.211-.092,3.39,1.666,6.388,2.5,9.595a30.137,30.137,0,0,1,1.049,9.453c.008,2.066-.067,4.114-.217,6.18-.142,1.9-.3,3.79-.533,5.68-.05.383-.092.783-.142,1.183.733-1.757.983-3.765,1.591-5.53,1.074-3.132,2.315-6.205,3.348-9.353a79.813,79.813,0,0,1,2.774-7.729,18.658,18.658,0,0,1,4.289-6.555,6.282,6.282,0,0,1,4.214-1.641,11.535,11.535,0,0,1,2.9.616,3.253,3.253,0,0,0,3.115-.55c3.215-2.474,4.2-6.9,6.572-10.036,1.774-2.332,5.988-6.313,9.087-3.765,1.641,1.349,2.1,3.956,2.007,5.964a14.524,14.524,0,0,1-2.507,6.9c-1.391,2.232-3.182,4.231-4.456,6.522a6.863,6.863,0,0,0-.75,4.181,9.894,9.894,0,0,1-.25,4.223c-1.474,4.173-6.08,3.59-9.662,3.7a26.832,26.832,0,0,0-7.571,1.249,8.422,8.422,0,0,0-5.522,5.43c-.708,1.966-1.091,4.206-2.432,5.872a6.348,6.348,0,0,1-2.382,1.774c-1.4.616-5.655.883-5.68.5a19.5,19.5,0,0,0-1.108-3.906C77.295,274.442,76.445,272.185,75.5,269.945Z" transform="translate(-55.034 -202.466)" fill="#46a62b"/>
            <path id="Path_4574" data-name="Path 4574" d="M115.239,277.6c.366-2.382.3-5.014,1.433-7.2a.324.324,0,0,1,.441-.117c.808.45.841,1.757.908,2.557.108,1.333.025,2.665.192,3.99a29.453,29.453,0,0,0,1.666,6.921,7.442,7.442,0,0,0,5.181,4.664,13.292,13.292,0,0,1,4.539,2,9.455,9.455,0,0,1,2.657,3.665,54.892,54.892,0,0,1,3.248,11.96c.525,2.7.949,5.414,1.607,8.087a78.457,78.457,0,0,1,1.732,8.062c.067.142.133.275.192.416.175.408-.466.625-.683.292-2.59-3.981-5.739-7.563-10.045-9.753-1.941-.991-4.523-1.2-6.147-2.757a5.39,5.39,0,0,1-1.216-4.606,14.472,14.472,0,0,1,2.315-5.664,4.77,4.77,0,0,0,1.033-3.257,4.239,4.239,0,0,0-2.1-2.557c-1.791-1.108-3.881-1.607-5.339-3.207a8.782,8.782,0,0,1-2.265-5.339A35.821,35.821,0,0,1,115.239,277.6Z" transform="translate(-114.534 -210.907)" fill="#46a62b"/>
            <path id="Path_4575" data-name="Path 4575" d="M95,293.73a34.334,34.334,0,0,1,8.137-7.538c1.657-1.1,5.555-3.265,6.347-.025.458,1.9-1.4,3.765-2.624,4.956-1.841,1.791-3.965,3.332-5.514,5.4,1.924.616,3.931.733,5.6,2.057,1.974,1.574,2.865,4.606.9,6.538a12.465,12.465,0,0,1-3.407,2.091c-1.549.75-3.123,1.424-4.706,2.091-3.423,1.433-6.888,2.882-9.8,5.222-2.973,2.382-5.772,6.422-6.005,10.311-.025.375.117.033-.1-.133-.125.108-.525-.083-.525-.3a41.08,41.08,0,0,1,3.457-16.566A68.67,68.67,0,0,1,95,293.73Z" transform="translate(-59.002 -213.283)" fill="#46a62b"/>
          </g>
          <g id="Group_2077" data-name="Group 2077" transform="translate(22.052 26.303)">
            <path id="Path_4576" data-name="Path 4576" d="M113.1,230.964c-1.258,2.615-2.574,5.172-3.973,7.721a61.585,61.585,0,0,0-3.7,7.513c-1.241,3.223-2.54,6.4-3.848,9.595a93.506,93.506,0,0,0-3.556,10.161A120.335,120.335,0,0,0,94,286.617a83.118,83.118,0,0,0-.416,10.678c.075,2.782.391,5.539.65,8.312a48.932,48.932,0,0,1,.225,8.7c-.2,2.415-.583,5.3-2.465,7.021a.43.43,0,0,1-.675-.516c2.232-4.573,2.107-9.562,1.682-14.517-.233-2.74-.558-5.464-.658-8.212a81.614,81.614,0,0,1,.35-10.486,124.776,124.776,0,0,1,3.781-20.248,91.656,91.656,0,0,1,3.323-10.02c1.3-3.282,2.8-6.48,4.056-9.778,2.274-5.972,5.739-11.261,8.812-16.824.15-.308.566-.05.433.241Z" transform="translate(-91.269 -230.583)" fill="#43588e"/>
          </g>
          <g id="Group_2078" data-name="Group 2078" transform="translate(19.231 51.405)">
            <path id="Path_4577" data-name="Path 4577" d="M119.372,284.807a49.538,49.538,0,0,0-2.207-12.677c-.683-1.932-1.508-3.815-2.174-5.755-.541-1.608-1.358-3.806-.941-5.514a.2.2,0,0,1,.375,0c.283.975.25,2.041.45,3.04a28.592,28.592,0,0,0,.758,2.873c.641,2.007,1.483,3.931,2.207,5.914a29.219,29.219,0,0,1,1.824,12.119.146.146,0,0,1-.292,0Z" transform="translate(-113.936 -260.721)" fill="#43588e"/>
          </g>
          <g id="Group_2079" data-name="Group 2079" transform="translate(29.497 50.223)">
            <path id="Path_4578" data-name="Path 4578" d="M104.466,259.592c-1.724,4.164-6.913,4.406-10.694,5.339a10.014,10.014,0,0,0-6.122,4.806,36.863,36.863,0,0,0-3.5,8.412c-.008.033-.058.017-.05-.017,1.058-5,2.574-11.011,7.721-13.335,4.131-1.866,9.57-.924,12.2-5.389.142-.217.541-.075.441.183Z" transform="translate(-84.101 -259.303)" fill="#43588e"/>
          </g>
          <g id="Group_2080" data-name="Group 2080" transform="translate(25.861 74.744)">
            <path id="Path_4579" data-name="Path 4579" d="M112.615,288.832c-.208.275-.391.566-.608.841a2.374,2.374,0,0,1-.341.366.77.77,0,0,1-.483.242.108.108,0,0,1-.092-.158,1.474,1.474,0,0,1,.358-.325c.125-.108.25-.217.366-.333.242-.225.458-.475.7-.708.05-.042.142.017.1.075Z" transform="translate(-111.077 -288.743)" fill="#43588e"/>
          </g>
          <g id="Group_2081" data-name="Group 2081" transform="translate(24.782 87.675)">
            <path id="Path_4580" data-name="Path 4580" d="M111.458,304.653a41.859,41.859,0,0,0-7.9,8.5,52.69,52.69,0,0,0-2.882,4.731,52.1,52.1,0,0,0-2.324,5.489c-.058.142-.316.142-.292-.042.416-3.923,2.9-7.279,4.881-10.544a25.326,25.326,0,0,1,3.7-4.473,33.032,33.032,0,0,1,4.548-4.015c.208-.142.475.183.275.35Z" transform="translate(-98.055 -304.268)" fill="#43588e"/>
          </g>
          <g id="Group_2082" data-name="Group 2082" transform="translate(14.115 83.409)">
            <path id="Path_4581" data-name="Path 4581" d="M116.314,299.174c1.433.816,1.483,3.073,1.508,4.523.05,2.782-.633,5.389.583,8.037,1.1,2.39,2.857,4.389,4.239,6.6,1.291,2.082,2.574,4.739,2.54,7.238,0,.142-.225.225-.292.075a29.629,29.629,0,0,1-1.083-3.615,15.023,15.023,0,0,0-1.766-3.731A62.188,62.188,0,0,1,118,312.151c-1.141-2.34-.974-4.656-.9-7.188.05-1.616.208-4.214-1.091-5.414-.192-.183.067-.5.308-.375Z" transform="translate(-115.939 -299.146)" fill="#43588e"/>
          </g>
        </g>
        <path id="Path_4582" data-name="Path 4582" d="M111.706,331.162c5.772-.083,16.774-.142,16.774-.142l-2.724,20.206a9.16,9.16,0,0,1-9.079,7.937h-9.936a9.153,9.153,0,0,1-9.079-7.937L94.94,331.02C94.932,331.02,105.926,331.087,111.706,331.162Z" transform="translate(-87.63 -221.064)" fill="#fff"/>
      </g>
      <g id="Group_2090" data-name="Group 2090" transform="translate(12.443 156.126)">
        <g id="Group_2088" data-name="Group 2088" transform="translate(0.408)">
          <g id="Group_2085" data-name="Group 2085" transform="translate(0 1.491)">
            <path id="Path_4583" data-name="Path 4583" d="M295.33,286.424l32.941,65.249,96.041.691L394.677,285.5Z" transform="translate(-295.33 -285.5)" fill="#f6f7fa"/>
          </g>
          <g id="Group_2086" data-name="Group 2086">
            <path id="Path_4584" data-name="Path 4584" d="M411.523,351.657l-.017-5.222H349.331l-28.6-62.725H221.3l-2.5,2.415h97.132l29.726,65.482S411.523,351.482,411.523,351.657Z" transform="translate(-218.8 -283.71)" fill="#d9dee8"/>
          </g>
          <g id="Group_2087" data-name="Group 2087" transform="translate(49.701 32.242)">
            <path id="Path_4585" data-name="Path 4585" d="M363.412,328.6c1.083,3.257,6.971,5.772,13.151,5.614s10.311-2.915,9.22-6.172-6.971-5.772-13.151-5.614S362.33,325.344,363.412,328.6Z" transform="translate(-363.24 -322.421)" fill="#d9dee8"/>
          </g>
        </g>
        <g id="Group_2089" data-name="Group 2089" transform="translate(0 2.007)">
          <path id="Path_4586" data-name="Path 4586" d="M424.643,352.427a.435.435,0,0,0,.175-.033.418.418,0,0,0,.208-.55L395.192,286.12h-97.4a.416.416,0,0,0,0,.833h96.865l29.618,65.24A.4.4,0,0,0,424.643,352.427Z" transform="translate(-297.377 -286.12)" fill="#fff"/>
        </g>
      </g>
      <g id="Group_2092" data-name="Group 2092" transform="translate(0 224.023)">
        <g id="Group_2091" data-name="Group 2091" transform="translate(4.997 4.997)">
          <rect id="Rectangle_309" data-name="Rectangle 309" width="114.248" height="25.328" transform="translate(204.908)" fill="#596b9b"/>
          <rect id="Rectangle_310" data-name="Rectangle 310" width="205.558" height="25.328" transform="translate(0)" fill="#7a89af"/>
        </g>
        <path id="Path_4587" data-name="Path 4587" d="M281.338,371.23H395.586v4.648H76.43V371.23Z" transform="translate(-71.433 -366.233)" fill="#bdc4d7"/>
        <rect id="Rectangle_311" data-name="Rectangle 311" width="124.759" height="6.205" transform="translate(204.908)" fill="#6f7fa9"/>
        <rect id="Rectangle_312" data-name="Rectangle 312" width="205.558" height="6.205" fill="#9ca6c3"/>
      </g>
      <g id="Group_2094" data-name="Group 2094" transform="translate(222.732 61.942)">
        <path id="Path_4588" data-name="Path 4588" d="M129.643,199.806h40.329a4.521,4.521,0,0,0,4.523-4.523V175.153a4.521,4.521,0,0,0-4.523-4.523H129.643a4.521,4.521,0,0,0-4.523,4.523v20.131A4.527,4.527,0,0,0,129.643,199.806Z" transform="translate(-113.626 -170.63)" fill="#fff"/>
        <path id="Path_4589" data-name="Path 4589" d="M180.01,186.858l15.15-6.388v12.785Z" transform="translate(-180.01 -172.274)" fill="#fff"/>
        <g id="Group_2093" data-name="Group 2093" transform="translate(23.829 11.794)">
          <circle id="Ellipse_48" data-name="Ellipse 48" cx="2.79" cy="2.79" r="2.79" transform="translate(19.132)" fill="#223a7a"/>
          <circle id="Ellipse_49" data-name="Ellipse 49" cx="2.79" cy="2.79" r="2.79" transform="translate(9.562)" fill="#223a7a"/>
          <circle id="Ellipse_50" data-name="Ellipse 50" cx="2.79" cy="2.79" r="2.79" transform="translate(0)" fill="#223a7a"/>
        </g>
      </g>
      <g id="Group_2095" data-name="Group 2095" transform="translate(22.588)">
        <path id="Path_4590" data-name="Path 4590" d="M311.527,96.26h93.117a10.827,10.827,0,0,1,10.828,10.828v44.168a10.827,10.827,0,0,1-10.828,10.828H396.3c-.233,4.006.341,9.961,3.681,17.574a46.8,46.8,0,0,1-20.189-17.574H311.528A10.827,10.827,0,0,1,300.7,151.256V107.088A10.827,10.827,0,0,1,311.527,96.26Z" transform="translate(-300.7 -96.26)" fill="#3d3d40"/>
        <path id="Path_4591" data-name="Path 4591" d="M321.9,120.618h46.184a2.3,2.3,0,0,0,2.3-2.3h0a2.3,2.3,0,0,0-2.3-2.3H321.9a2.3,2.3,0,0,0-2.3,2.3h0A2.3,2.3,0,0,0,321.9,120.618Z" transform="translate(-271.351 -99.562)" fill="#fff"/>
        <path id="Path_4592" data-name="Path 4592" d="M321.008,137.045H401.2a1.411,1.411,0,0,0,1.408-1.408h0a1.411,1.411,0,0,0-1.408-1.408H321.008a1.411,1.411,0,0,0-1.408,1.408h0A1.411,1.411,0,0,0,321.008,137.045Z" transform="translate(-303.575 -102.605)" fill="#d2e6ff"/>
        <path id="Path_4593" data-name="Path 4593" d="M321.008,146.425H401.2a1.411,1.411,0,0,0,1.408-1.408h0a1.411,1.411,0,0,0-1.408-1.408H321.008a1.411,1.411,0,0,0-1.408,1.408h0A1.411,1.411,0,0,0,321.008,146.425Z" transform="translate(-303.575 -104.173)" fill="#d2e6ff"/>
        <path id="Path_4594" data-name="Path 4594" d="M321.018,156.425h62.692a1.411,1.411,0,0,0,1.408-1.408h0a1.411,1.411,0,0,0-1.408-1.408H321.018a1.411,1.411,0,0,0-1.408,1.408h0A1.411,1.411,0,0,0,321.018,156.425Z" transform="translate(-286.094 -105.844)" fill="#d2e6ff"/>
        <path id="Path_4595" data-name="Path 4595" d="M389.9,120.618h22.03a2.3,2.3,0,0,0,2.3-2.3h0a2.3,2.3,0,0,0-2.3-2.3H389.9a2.3,2.3,0,0,0-2.3,2.3h0A2.3,2.3,0,0,0,389.9,120.618Z" transform="translate(-371.833 -99.562)" fill="#fff"/>
      </g>
      <g id="Group_2102" data-name="Group 2102" transform="translate(84.863 93.234)">
        <path id="Path_4596" data-name="Path 4596" d="M319.776,239.4h25.012a1.671,1.671,0,0,0,1.666-1.666V220.646a1.671,1.671,0,0,0-1.666-1.666H319.776a1.671,1.671,0,0,0-1.666,1.666v17.091A1.66,1.66,0,0,0,319.776,239.4Z" transform="translate(-308.457 -210.001)" fill="#fff"/>
        <g id="Group_2099" data-name="Group 2099" transform="translate(9.755 9.458)">
          <g id="Group_2096" data-name="Group 2096" transform="translate(0.003)">
            <path id="Path_4597" data-name="Path 4597" d="M332.125,232.344a.651.651,0,0,0,.4-.142l13.618-11.244a.627.627,0,1,0-.8-.966L332.134,230.9l-12.868-11.194a.626.626,0,0,0-.825.941l13.268,11.544A.64.64,0,0,0,332.125,232.344Z" transform="translate(-318.229 -219.556)" fill="#6f7fa9"/>
          </g>
          <g id="Group_2097" data-name="Group 2097" transform="translate(17.37 8.213)">
            <path id="Path_4598" data-name="Path 4598" d="M328.376,240.68a.629.629,0,0,0,.458-1.058l-9.52-10.011a.625.625,0,0,0-.908.858l9.52,10.011A.567.567,0,0,0,328.376,240.68Z" transform="translate(-318.237 -229.417)" fill="#6f7fa9"/>
          </g>
          <g id="Group_2098" data-name="Group 2098" transform="translate(0 8.351)">
            <path id="Path_4599" data-name="Path 4599" d="M339.755,240.341a.618.618,0,0,0,.441-.183l9.487-9.512a.624.624,0,0,0-.883-.883l-9.487,9.512a.628.628,0,0,0,0,.883A.618.618,0,0,0,339.755,240.341Z" transform="translate(-339.132 -229.583)" fill="#6f7fa9"/>
          </g>
        </g>
        <g id="Group_2101" data-name="Group 2101" transform="translate(0)">
          <g id="Group_2100" data-name="Group 2100">
            <circle id="Ellipse_51" data-name="Ellipse 51" cx="8.354" cy="8.354" r="8.354" fill="#ff5f42"/>
          </g>
          <text id="_85" data-name="85" transform="matrix(-1, 0, 0, 1, 14.224, 12.378)" fill="#fff" font-size="9" font-family="SegoeUI, Segoe UI"><tspan x="0" y="0">85</tspan></text>
        </g>
      </g>
      <g id="Group_2109" data-name="Group 2109" transform="translate(5.939 84.205)">
        <g id="Group_2103" data-name="Group 2103">
          <path id="Path_4600" data-name="Path 4600" d="M395.2,211.661h48.824a3.331,3.331,0,0,0,3.332-3.332v-7.638a3.331,3.331,0,0,0-3.332-3.332H395.2a3.331,3.331,0,0,0-3.332,3.332v7.638A3.331,3.331,0,0,0,395.2,211.661Z" transform="translate(-391.87 -197.36)" fill="#223a7a"/>
        </g>
        <g id="Group_2104" data-name="Group 2104" transform="translate(45.203 3.415)">
          <path id="Path_4601" data-name="Path 4601" d="M399.492,208.948a.649.649,0,0,0,.525-.233.778.778,0,0,0,.175-.583l-.208-1.849c-.017-.05-.008-.075.025-.092s.067-.008.117.025l1.524,1.1a.705.705,0,0,0,.583.15.734.734,0,0,0,.491-.366.714.714,0,0,0,.083-.658.76.76,0,0,0-.433-.4l-1.707-.775c-.05-.017-.067-.042-.067-.067s.025-.058.067-.067l1.707-.775a.717.717,0,0,0,.425-.441.784.784,0,0,0-.067-.608.761.761,0,0,0-.491-.366.743.743,0,0,0-.583.125l-1.524,1.124c-.05.033-.083.042-.117.025s-.042-.05-.025-.092l.208-1.849a.744.744,0,0,0-.192-.583.712.712,0,0,0-.566-.233.7.7,0,0,0-.541.233.711.711,0,0,0-.167.583l.208,1.849c.017.05.008.075-.025.092s-.067.008-.117-.025l-1.524-1.1a.72.72,0,0,0-.6-.15.67.67,0,0,0-.483.366.714.714,0,0,0-.083.658.787.787,0,0,0,.433.4l1.707.775c.05.017.067.042.067.067s-.025.058-.067.067l-1.707.775a.731.731,0,0,0-.433.441.7.7,0,0,0,.083.608.676.676,0,0,0,.483.366.782.782,0,0,0,.6-.125l1.524-1.124c.05-.033.083-.042.117-.025s.042.05.025.092l-.208,1.849a.656.656,0,0,0,.175.583A.785.785,0,0,0,399.492,208.948Z" transform="translate(-396.063 -201.46)" fill="#fff"/>
        </g>
        <g id="Group_2105" data-name="Group 2105" transform="translate(35.109 3.415)">
          <path id="Path_4602" data-name="Path 4602" d="M411.612,208.948a.649.649,0,0,0,.525-.233.778.778,0,0,0,.175-.583l-.208-1.849c-.017-.05-.008-.075.025-.092s.067-.008.117.025l1.524,1.1a.705.705,0,0,0,.583.15.734.734,0,0,0,.491-.366.714.714,0,0,0,.083-.658.759.759,0,0,0-.433-.4l-1.707-.775c-.05-.017-.067-.042-.067-.067s.025-.058.067-.067l1.707-.775a.717.717,0,0,0,.425-.441.784.784,0,0,0-.067-.608.761.761,0,0,0-.491-.366.743.743,0,0,0-.583.125l-1.524,1.124c-.05.033-.083.042-.117.025s-.042-.05-.025-.092l.208-1.849a.744.744,0,0,0-.192-.583.712.712,0,0,0-.566-.233.7.7,0,0,0-.541.233.711.711,0,0,0-.167.583l.208,1.849c.017.05.008.075-.025.092s-.067.008-.117-.025l-1.524-1.1a.72.72,0,0,0-.6-.15.686.686,0,0,0-.483.366.714.714,0,0,0-.083.658.787.787,0,0,0,.433.4l1.707.775c.05.017.067.042.067.067s-.025.058-.067.067l-1.707.775a.731.731,0,0,0-.433.441.7.7,0,0,0,.083.608.676.676,0,0,0,.483.366.782.782,0,0,0,.6-.125l1.524-1.124c.05-.033.083-.042.117-.025s.042.05.025.092l-.208,1.849a.656.656,0,0,0,.175.583A.785.785,0,0,0,411.612,208.948Z" transform="translate(-408.183 -201.46)" fill="#fff"/>
        </g>
        <g id="Group_2106" data-name="Group 2106" transform="translate(25.006 3.415)">
          <path id="Path_4603" data-name="Path 4603" d="M423.742,208.948a.649.649,0,0,0,.525-.233.778.778,0,0,0,.175-.583l-.208-1.849c-.017-.05-.008-.075.025-.092s.067-.008.117.025l1.524,1.1a.705.705,0,0,0,.583.15.734.734,0,0,0,.491-.366.714.714,0,0,0,.083-.658.759.759,0,0,0-.433-.4l-1.707-.775c-.05-.017-.067-.042-.067-.067s.025-.058.067-.067l1.707-.775a.717.717,0,0,0,.425-.441.784.784,0,0,0-.067-.608.761.761,0,0,0-.491-.366.743.743,0,0,0-.583.125l-1.524,1.124c-.05.033-.083.042-.117.025s-.042-.05-.025-.092l.208-1.849a.744.744,0,0,0-.192-.583.712.712,0,0,0-.566-.233.7.7,0,0,0-.541.233.711.711,0,0,0-.167.583l.208,1.849c.017.05.008.075-.025.092s-.067.008-.117-.025l-1.524-1.1a.72.72,0,0,0-.6-.15.67.67,0,0,0-.483.366.714.714,0,0,0-.083.658.787.787,0,0,0,.433.4l1.707.775c.05.017.067.042.067.067s-.025.058-.067.067l-1.707.775a.731.731,0,0,0-.433.441.7.7,0,0,0,.083.608.676.676,0,0,0,.483.366.782.782,0,0,0,.6-.125l1.524-1.124c.05-.033.083-.042.117-.025s.042.05.025.092l-.208,1.849a.656.656,0,0,0,.175.583A.785.785,0,0,0,423.742,208.948Z" transform="translate(-420.313 -201.46)" fill="#fff"/>
        </g>
        <g id="Group_2107" data-name="Group 2107" transform="translate(14.911 3.415)">
          <path id="Path_4604" data-name="Path 4604" d="M435.862,208.948a.649.649,0,0,0,.525-.233.778.778,0,0,0,.175-.583l-.208-1.849c-.017-.05-.008-.075.025-.092s.067-.008.117.025l1.524,1.1a.705.705,0,0,0,.583.15.734.734,0,0,0,.491-.366.714.714,0,0,0,.083-.658.76.76,0,0,0-.433-.4l-1.707-.775c-.05-.017-.067-.042-.067-.067s.025-.058.067-.067l1.707-.775a.717.717,0,0,0,.425-.441.784.784,0,0,0-.067-.608.761.761,0,0,0-.491-.366.743.743,0,0,0-.583.125l-1.524,1.124c-.05.033-.083.042-.117.025s-.042-.05-.025-.092l.208-1.849a.744.744,0,0,0-.192-.583.712.712,0,0,0-.566-.233.7.7,0,0,0-.541.233.711.711,0,0,0-.167.583l.208,1.849c.017.05.008.075-.025.092s-.067.008-.117-.025l-1.524-1.1a.72.72,0,0,0-.6-.15.67.67,0,0,0-.483.366.714.714,0,0,0-.083.658.787.787,0,0,0,.433.4l1.707.775c.05.017.067.042.067.067s-.025.058-.067.067l-1.707.775a.731.731,0,0,0-.433.441.7.7,0,0,0,.083.608.676.676,0,0,0,.483.366.782.782,0,0,0,.6-.125l1.524-1.124c.05-.033.083-.042.117-.025s.042.05.025.092l-.208,1.849a.656.656,0,0,0,.175.583A.785.785,0,0,0,435.862,208.948Z" transform="translate(-432.433 -201.46)" fill="#fff"/>
        </g>
        <g id="Group_2108" data-name="Group 2108" transform="translate(4.808 3.415)">
          <path id="Path_4605" data-name="Path 4605" d="M447.992,208.948a.649.649,0,0,0,.525-.233.778.778,0,0,0,.175-.583l-.208-1.849c-.017-.05-.008-.075.025-.092s.067-.008.117.025l1.524,1.1a.705.705,0,0,0,.583.15.734.734,0,0,0,.491-.366.714.714,0,0,0,.083-.658.76.76,0,0,0-.433-.4l-1.707-.775c-.05-.017-.067-.042-.067-.067s.025-.058.067-.067l1.707-.775a.717.717,0,0,0,.425-.441.784.784,0,0,0-.067-.608.761.761,0,0,0-.491-.366.743.743,0,0,0-.583.125l-1.524,1.124c-.05.033-.083.042-.117.025s-.042-.05-.025-.092l.208-1.849a.744.744,0,0,0-.192-.583.712.712,0,0,0-.566-.233.7.7,0,0,0-.541.233.711.711,0,0,0-.167.583l.208,1.849c.017.05.008.075-.025.092s-.067.008-.117-.025l-1.524-1.1a.72.72,0,0,0-.6-.15.67.67,0,0,0-.483.366.714.714,0,0,0-.083.658.787.787,0,0,0,.433.4l1.707.775c.05.017.067.042.067.067s-.025.058-.067.067l-1.707.775a.731.731,0,0,0-.433.441.7.7,0,0,0,.083.608.676.676,0,0,0,.483.366.782.782,0,0,0,.6-.125l1.524-1.124c.05-.033.083-.042.117-.025s.042.05.025.092l-.208,1.849a.656.656,0,0,0,.175.583A.785.785,0,0,0,447.992,208.948Z" transform="translate(-444.563 -201.46)" fill="#67acff"/>
        </g>
      </g>
    </g>
  </g>
</svg>
