<svg xmlns="http://www.w3.org/2000/svg" width="468.105" height="446.307" viewBox="0 0 468.105 446.307">
  <g id="_2794206" data-name="2794206" transform="translate(-37.393 -45.027)">
    <g id="Floor" transform="translate(37.392 241.475)">
      <path id="Floor_1_" d="M105.942,441.269c91.4,48.787,239.606,48.787,331.005,0s91.4-127.893,0-176.679-239.606-48.787-331.005,0S14.543,392.483,105.942,441.269Z" transform="translate(-37.393 -228)" fill="#f0f0f0" opacity="0.09"/>
    </g>
    <g id="Shadow_1_" transform="translate(267.985 318.781)" opacity="0.17">
      <path id="Shadow_7_" d="M252.739,370.206l66.792,38.4a3.115,3.115,0,0,0,2.791,0l118.23-68.262a.849.849,0,0,0,0-1.61l-66.792-38.4a3.115,3.115,0,0,0-2.791,0L252.739,368.6A.853.853,0,0,0,252.739,370.206Z" transform="translate(-252.167 -300.003)" fill="#e0e0e0"/>
      <path id="Shadow" d="M449.94,386.055c-.215-1.707-2.265-2.577-3.393-3.232l-45.609-26.412a6.534,6.534,0,0,0-6.528-.043l-45.6,26.3c-1.342.773-3.543,2.255-3.543,3.994s1.2,2.115,3.414,3.393l45.276,26.154a7.47,7.47,0,0,0,7.462,0l46.714-26.766A3.489,3.489,0,0,0,449.94,386.055Z" transform="translate(-245.311 -295.914)" fill="#e0e0e0"/>
    </g>
    <g id="Servers" transform="translate(50.843 45.027)">
      <g id="Server_1_" transform="translate(126.486)">
        <g id="XMLID_1318_" transform="translate(126.476 206.672)">
          <path id="XMLID_1325_" d="M297.73,258.355l10.758-6.216a5.14,5.14,0,0,1,4.649,0l67.457,38.941" transform="translate(-284.632 -236.487)" fill="none" stroke="#46a62b" stroke-miterlimit="10" stroke-width="1"/>
          <path id="XMLID_1324_" d="M293.67,256.187l15.117-8.729a5.14,5.14,0,0,1,4.649,0l71.816,41.464" transform="translate(-284.931 -236.832)" fill="none" stroke="#46a62b" stroke-miterlimit="10" stroke-width="1"/>
          <path id="XMLID_1323_" d="M389.911,286.745l-76.175-43.977a5.14,5.14,0,0,0-4.649,0L289.6,254.009" transform="translate(-285.23 -237.177)" fill="none" stroke="#46a62b" stroke-miterlimit="10" stroke-width="1"/>
          <path id="XMLID_1322_" d="M394.57,284.578l-80.534-46.5a5.14,5.14,0,0,0-4.649,0L285.53,251.842" transform="translate(-285.53 -237.522)" fill="none" stroke="#46a62b" stroke-miterlimit="10" stroke-width="1"/>
        </g>
        <g id="XMLID_1245_" transform="translate(0 0.22)">
          <path id="XMLID_1296_" d="M239.546,45.788l-69.5,40.122a5.121,5.121,0,0,0-2.319,4.026V280.971A5.149,5.149,0,0,0,170.049,285l69.5,40.122a5.14,5.14,0,0,0,4.649,0L313.682,285a5.132,5.132,0,0,0,2.33-4.026V89.936a5.132,5.132,0,0,0-2.33-4.026L244.2,45.788A5.14,5.14,0,0,0,239.546,45.788Z" transform="translate(-167.73 -45.232)" fill="#37474f"/>
          <path id="XMLID_1295_" d="M310.925,87.035V278.069a5.149,5.149,0,0,1-2.319,4.026l-69.5,40.122a4.663,4.663,0,0,1-2.319.558v-196.4a4.81,4.81,0,0,0,2.319-.558l69.5-40.122.633-.526.827-.687A4.818,4.818,0,0,1,310.925,87.035Z" transform="translate(-162.644 -42.342)" fill="#263238"/>
          <g id="XMLID_1290_" transform="translate(8.707 63.186)">
            <path id="XMLID_1294_" d="M178.181,104.4l52.05,30.051a5.121,5.121,0,0,1,2.319,4.026v19.809c0,1.482-1.041,2.083-2.33,1.342l-52.05-30.051a5.132,5.132,0,0,1-2.33-4.026V105.744C175.851,104.262,176.892,103.661,178.181,104.4Z" transform="translate(-175.84 -104.085)" fill="#455a64"/>
            <path id="XMLID_1293_" d="M179.91,112.614a5.012,5.012,0,0,0,2.319,3.865L225.551,141.5c1.288.741,2.33.215,2.33-1.181a5,5,0,0,0-2.33-3.865l-43.322-25.016C180.951,110.692,179.91,111.218,179.91,112.614Z" transform="translate(-175.54 -103.568)" fill="#46a62b"/>
            <path id="XMLID_1292_" d="M179.91,121.994a5.012,5.012,0,0,0,2.319,3.865l43.322,25.016c1.288.741,2.33.215,2.33-1.181a5,5,0,0,0-2.33-3.865l-43.322-25.016C180.951,120.072,179.91,120.6,179.91,121.994Z" transform="translate(-175.54 -102.877)" fill="#263238"/>
            <path id="XMLID_1291_" d="M182.24,120.813l23.846,13.764v5.035L182.24,125.848a4.979,4.979,0,0,1-2.33-3.865C179.91,120.6,180.951,120.072,182.24,120.813Z" transform="translate(-175.54 -102.877)" fill="#46a62b"/>
          </g>
          <g id="XMLID_1285_" transform="translate(8.707 98.434)">
            <path id="XMLID_1289_" d="M178.181,137.232l52.05,30.051a5.121,5.121,0,0,1,2.319,4.026v19.809c0,1.482-1.041,2.083-2.33,1.342l-52.05-30.051a5.132,5.132,0,0,1-2.33-4.026V138.574C175.851,137.092,176.892,136.491,178.181,137.232Z" transform="translate(-175.84 -136.915)" fill="#455a64"/>
            <path id="XMLID_1288_" d="M179.91,145.444a5.012,5.012,0,0,0,2.319,3.865l43.322,25.016c1.288.741,2.33.215,2.33-1.181a5,5,0,0,0-2.33-3.865l-43.322-25.016C180.951,143.532,179.91,144.059,179.91,145.444Z" transform="translate(-175.54 -136.398)" fill="#46a62b"/>
            <path id="XMLID_1287_" d="M179.91,154.824a5.012,5.012,0,0,0,2.319,3.865L225.551,183.7c1.288.741,2.33.215,2.33-1.181a5,5,0,0,0-2.33-3.865l-43.322-25.016C180.951,152.912,179.91,153.439,179.91,154.824Z" transform="translate(-175.54 -135.707)" fill="#263238"/>
            <path id="XMLID_1286_" d="M182.24,153.653l36.923,21.323v5.035L182.24,158.689a4.979,4.979,0,0,1-2.33-3.865C179.91,153.428,180.951,152.912,182.24,153.653Z" transform="translate(-175.54 -135.707)" fill="#46a62b"/>
          </g>
          <g id="XMLID_1280_" transform="translate(8.707 133.682)">
            <path id="XMLID_1284_" d="M178.181,170.062l52.05,30.051a5.121,5.121,0,0,1,2.319,4.026v19.809c0,1.482-1.041,2.083-2.33,1.342l-52.05-30.051a5.132,5.132,0,0,1-2.33-4.026V171.4C175.851,169.922,176.892,169.321,178.181,170.062Z" transform="translate(-175.84 -169.745)" fill="#455a64"/>
            <path id="XMLID_1283_" d="M179.91,178.274a5.012,5.012,0,0,0,2.319,3.865l43.322,25.016c1.288.741,2.33.215,2.33-1.181a5,5,0,0,0-2.33-3.865l-43.322-25.016C180.951,176.362,179.91,176.889,179.91,178.274Z" transform="translate(-175.54 -169.228)" fill="#46a62b"/>
            <path id="XMLID_1282_" d="M179.91,187.664a5.012,5.012,0,0,0,2.319,3.865l43.322,25.016c1.288.741,2.33.215,2.33-1.181a5,5,0,0,0-2.33-3.865l-43.322-25.016C180.951,185.742,179.91,186.268,179.91,187.664Z" transform="translate(-175.54 -168.537)" fill="#263238"/>
            <path id="XMLID_1281_" d="M182.24,186.483l15.117,8.729v5.035l-15.117-8.729a4.979,4.979,0,0,1-2.33-3.865C179.91,186.258,180.951,185.742,182.24,186.483Z" transform="translate(-175.54 -168.537)" fill="#46a62b"/>
          </g>
          <g id="XMLID_1275_" transform="translate(8.707 168.941)">
            <path id="XMLID_1279_" d="M178.181,202.9l52.05,30.051a5.121,5.121,0,0,1,2.319,4.026v19.809c0,1.482-1.041,2.083-2.33,1.342l-52.05-30.051a5.132,5.132,0,0,1-2.33-4.026V204.244C175.851,202.762,176.892,202.161,178.181,202.9Z" transform="translate(-175.84 -202.585)" fill="#455a64"/>
            <path id="XMLID_1278_" d="M179.91,211.114a5.012,5.012,0,0,0,2.319,3.865L225.551,240c1.288.741,2.33.215,2.33-1.181a5,5,0,0,0-2.33-3.865l-43.322-25.016C180.951,209.192,179.91,209.718,179.91,211.114Z" transform="translate(-175.54 -202.068)" fill="#46a62b"/>
            <path id="XMLID_1277_" d="M179.91,220.494a5.012,5.012,0,0,0,2.319,3.865l43.322,25.016c1.288.741,2.33.215,2.33-1.181a5,5,0,0,0-2.33-3.865l-43.322-25.016C180.951,218.572,179.91,219.1,179.91,220.494Z" transform="translate(-175.54 -201.377)" fill="#263238"/>
            <path id="XMLID_1276_" d="M182.24,219.313l23.846,13.764v5.035L182.24,224.349a4.979,4.979,0,0,1-2.33-3.865C179.91,219.088,180.951,218.572,182.24,219.313Z" transform="translate(-175.54 -201.377)" fill="#46a62b"/>
          </g>
          <g id="XMLID_1270_" transform="translate(8.707 204.188)">
            <path id="XMLID_1274_" d="M178.181,235.732l52.05,30.051a5.121,5.121,0,0,1,2.319,4.026v19.809c0,1.482-1.041,2.083-2.33,1.342l-52.05-30.051a5.132,5.132,0,0,1-2.33-4.026V237.074C175.851,235.592,176.892,234.991,178.181,235.732Z" transform="translate(-175.84 -235.415)" fill="#455a64"/>
            <path id="XMLID_1273_" d="M179.91,243.944a5.012,5.012,0,0,0,2.319,3.865l43.322,25.016c1.288.741,2.33.215,2.33-1.181a5,5,0,0,0-2.33-3.865l-43.322-25.016C180.951,242.022,179.91,242.559,179.91,243.944Z" transform="translate(-175.54 -234.898)" fill="#46a62b"/>
            <path id="XMLID_1272_" d="M179.91,253.324a5.012,5.012,0,0,0,2.319,3.865L225.551,282.2c1.288.741,2.33.215,2.33-1.181a5,5,0,0,0-2.33-3.865l-43.322-25.016C180.951,251.412,179.91,251.939,179.91,253.324Z" transform="translate(-175.54 -234.207)" fill="#263238"/>
            <path id="XMLID_1271_" d="M182.24,252.153l32.564,18.8v5.035l-32.564-18.8a4.979,4.979,0,0,1-2.33-3.865C179.91,251.928,180.951,251.412,182.24,252.153Z" transform="translate(-175.54 -234.207)" fill="#46a62b"/>
          </g>
          <g id="XMLID_1255_" transform="translate(80.685 65.384)">
            <path id="XMLID_1269_" d="M247.239,134.839c2.4-1.4,4.359-.129,4.359,2.845v115.17a10,10,0,0,1-4.359,7.891c-2.4,1.4-4.359.129-4.359-2.845V142.73A10,10,0,0,1,247.239,134.839Z" transform="translate(-242.88 -104.059)" fill="#37474f"/>
            <path id="XMLID_1268_" d="M247.09,258a4.988,4.988,0,0,0,2.18-3.94V138.567c0-1.482-.977-2.126-2.18-1.428a4.988,4.988,0,0,0-2.18,3.94V256.572C244.91,258.064,245.887,258.7,247.09,258Z" transform="translate(-242.73 -103.869)" fill="#263238"/>
            <path id="XMLID_1267_" d="M247.09,253.748a4.988,4.988,0,0,0,2.18-3.94V194.59l-4.359,2.523v55.218C244.91,253.812,245.887,254.446,247.09,253.748Z" transform="translate(-242.73 -99.617)" fill="#46a62b"/>
            <path id="XMLID_1266_" d="M259.419,127.8c2.4-1.4,4.359-.129,4.359,2.845v115.17a10.033,10.033,0,0,1-4.359,7.9c-2.4,1.4-4.359.129-4.359-2.845V135.7A10.017,10.017,0,0,1,259.419,127.8Z" transform="translate(-241.983 -104.578)" fill="#37474f"/>
            <path id="XMLID_1265_" d="M259.28,250.97a4.988,4.988,0,0,0,2.179-3.94V131.537c0-1.482-.977-2.126-2.179-1.428a4.988,4.988,0,0,0-2.18,3.94V249.542C257.089,251.023,258.066,251.668,259.28,250.97Z" transform="translate(-241.833 -104.386)" fill="#46a62b"/>
            <path id="XMLID_1264_" d="M271.609,120.769c2.4-1.4,4.359-.129,4.359,2.845v115.17a10,10,0,0,1-4.359,7.891c-2.4,1.4-4.359.129-4.359-2.845V128.66A10,10,0,0,1,271.609,120.769Z" transform="translate(-241.085 -105.095)" fill="#37474f"/>
            <path id="XMLID_1263_" d="M271.459,243.93a4.988,4.988,0,0,0,2.18-3.94V124.5c0-1.482-.977-2.126-2.18-1.428a4.988,4.988,0,0,0-2.18,3.94V242.5C269.28,243.994,270.257,244.628,271.459,243.93Z" transform="translate(-240.936 -104.905)" fill="#263238"/>
            <path id="XMLID_1262_" d="M271.459,242.01a4.988,4.988,0,0,0,2.18-3.94V148.86l-4.359,2.523v89.209C269.28,242.074,270.257,242.708,271.459,242.01Z" transform="translate(-240.936 -102.985)" fill="#46a62b"/>
            <path id="XMLID_1261_" d="M283.8,113.729c2.4-1.4,4.359-.129,4.359,2.845v115.17a10,10,0,0,1-4.359,7.891c-2.4,1.4-4.359.129-4.359-2.845V121.62A9.967,9.967,0,0,1,283.8,113.729Z" transform="translate(-240.187 -105.614)" fill="#37474f"/>
            <path id="XMLID_1260_" d="M283.65,236.9a4.988,4.988,0,0,0,2.18-3.94V117.467c0-1.482-.977-2.115-2.18-1.428a4.988,4.988,0,0,0-2.18,3.94V235.472C281.47,236.953,282.447,237.6,283.65,236.9Z" transform="translate(-240.038 -105.422)" fill="#263238"/>
            <path id="XMLID_1259_" d="M283.65,230.2a4.988,4.988,0,0,0,2.18-3.94v-19.5l-4.359,2.523v19.5C281.47,230.251,282.447,230.9,283.65,230.2Z" transform="translate(-240.038 -98.721)" fill="#46a62b"/>
            <path id="XMLID_1258_" d="M295.979,106.7c2.4-1.4,4.359-.129,4.359,2.845v115.17a10,10,0,0,1-4.359,7.891c-2.4,1.4-4.359.129-4.359-2.845V114.59A10,10,0,0,1,295.979,106.7Z" transform="translate(-239.29 -106.132)" fill="#37474f"/>
            <path id="XMLID_1257_" d="M295.829,229.86a4.988,4.988,0,0,0,2.18-3.94V110.427c0-1.482-.977-2.126-2.18-1.428a4.988,4.988,0,0,0-2.18,3.94V228.432C293.65,229.924,294.627,230.558,295.829,229.86Z" transform="translate(-239.141 -105.941)" fill="#263238"/>
            <path id="XMLID_1256_" d="M295.829,225.953a4.988,4.988,0,0,0,2.18-3.94V161.76l-4.359,2.523v60.253C293.65,226.018,294.627,226.651,295.829,225.953Z" transform="translate(-239.141 -102.035)" fill="#46a62b"/>
          </g>
          <g id="XMLID_1247_" transform="translate(80.685 202.729)">
            <path id="XMLID_1254_" d="M244.737,267.408l57.333-33.1c1.031-.591,1.857-.107,1.857,1.074v20.882a4.131,4.131,0,0,1-1.857,3.221l-57.333,33.1c-1.031.591-1.857.107-1.857-1.074V270.629A4.1,4.1,0,0,1,244.737,267.408Z" transform="translate(-242.88 -234.055)" fill="#37474f"/>
            <g id="XMLID_1251_" transform="translate(4.209 7.636)">
              <path id="XMLID_1253_" d="M246.8,273.079c0,1.4,1.041,1.922,2.33,1.181L297.1,246.549a4.979,4.979,0,0,0,2.33-3.865c0-1.4-1.041-1.922-2.319-1.181l-47.971,27.711A4.963,4.963,0,0,0,246.8,273.079Z" transform="translate(-246.8 -241.167)" fill="#263238"/>
              <path id="XMLID_1252_" d="M246.8,272.538c0,1.4,1.041,1.922,2.33,1.17l34.894-20.152V248.52L249.13,268.672A4.979,4.979,0,0,0,246.8,272.538Z" transform="translate(-246.8 -240.626)" fill="#46a62b"/>
            </g>
            <g id="XMLID_1248_" transform="translate(4.209 17.707)">
              <path id="XMLID_1250_" d="M246.8,282.459c0,1.4,1.041,1.922,2.33,1.181L297.1,255.929a4.979,4.979,0,0,0,2.33-3.865c0-1.4-1.041-1.922-2.319-1.181l-47.971,27.711A4.963,4.963,0,0,0,246.8,282.459Z" transform="translate(-246.8 -250.547)" fill="#263238"/>
              <path id="XMLID_1249_" d="M246.8,281.053c0,1.4,1.041,1.922,2.33,1.181l13.088-7.559V269.64L249.13,277.2A4.943,4.943,0,0,0,246.8,281.053Z" transform="translate(-246.8 -249.141)" fill="#46a62b"/>
            </g>
          </g>
          <path id="XMLID_1246_" d="M313.588,85.91,244.1,45.788a5.14,5.14,0,0,0-4.649,0L169.966,85.91c-1.288.741-1.288,1.943,0,2.684l69.5,40.122a5.14,5.14,0,0,0,4.649,0L313.6,88.594C314.876,87.854,314.876,86.651,313.588,85.91Z" transform="translate(-167.636 -45.232)" fill="#455a64"/>
        </g>
        <g id="XMLID_1241_" transform="translate(17.436 4.934)">
          <path id="XMLID_1244_" d="M239.274,118.849,185.366,87.724a3.067,3.067,0,0,1-1.4-2.416V83.493a3.067,3.067,0,0,1,1.4-2.416l53.908-31.125a3.115,3.115,0,0,1,2.791,0l53.908,31.125a3.067,3.067,0,0,1,1.4,2.416v1.814a3.067,3.067,0,0,1-1.4,2.416l-53.908,31.125A3.049,3.049,0,0,1,239.274,118.849Z" transform="translate(-183.97 -49.622)" fill="#263238"/>
          <path id="XMLID_1243_" d="M185.32,82.615l53.908,31.125a3.115,3.115,0,0,0,2.792,0l53.908-31.125a.849.849,0,0,0,0-1.61L242.019,50.953a3.115,3.115,0,0,0-2.792,0L185.32,81C184.547,81.455,184.547,82.174,185.32,82.615Z" transform="translate(-183.913 -49.549)" fill="#455a64"/>
          <path id="XMLID_1242_" d="M240.679,111.976v5.035a2.825,2.825,0,0,1-1.4-.333L185.376,85.553a3.067,3.067,0,0,1-1.4-2.416V81.323a3.1,3.1,0,0,1,1.138-2.233c-.5.44-.419,1.041.258,1.428l53.908,31.125A2.825,2.825,0,0,0,240.679,111.976Z" transform="translate(-183.969 -47.452)" fill="#37474f"/>
        </g>
        <g id="XMLID_1102_" transform="translate(34.883)">
          <path id="XMLID_1240_" d="M238.077,104.081,201.616,83.026a3.067,3.067,0,0,1-1.4-2.416V78.8a3.067,3.067,0,0,1,1.4-2.416l23.373-13.5a9.129,9.129,0,0,0,2.351-2.094l11.166-15.042a1.833,1.833,0,0,1,2.351-.483L277.319,66.32a3.067,3.067,0,0,1,1.4,2.416V80.621a3.067,3.067,0,0,1-1.4,2.416l-36.461,21.054A3.06,3.06,0,0,1,238.077,104.081Z" transform="translate(-200.22 -45.027)" fill="#263238"/>
          <path id="XMLID_1239_" d="M240.811,99.045l23.373-13.5a9.146,9.146,0,0,0,2.362-2.094l11.166-15.042a1.4,1.4,0,0,0-.429-2.094L240.822,45.266a1.855,1.855,0,0,0-2.351.483L227.3,60.791a8.677,8.677,0,0,1-2.158,2.18L201.58,76.38a.849.849,0,0,0,0,1.61l36.461,21.054A3,3,0,0,0,240.811,99.045Z" transform="translate(-200.163 -45.027)" fill="#455a64"/>
          <path id="XMLID_1238_" d="M275.546,66.31,239.085,45.256a1.855,1.855,0,0,0-2.351.483L225.568,60.781a8.9,8.9,0,0,1-1.138,1.192s39.242,22.675,39.253,22.665a8.3,8.3,0,0,0,1.138-1.192L275.987,68.4A1.4,1.4,0,0,0,275.546,66.31Z" transform="translate(-198.437 -45.027)" fill="#37474f"/>
          <g id="XMLID_1152_" transform="translate(9.566 22.842)">
            <path id="XMLID_1237_" d="M209.806,74.607a3.594,3.594,0,0,1,3.275,0,1,1,0,0,1,0,1.89,3.594,3.594,0,0,1-3.275,0A1,1,0,0,1,209.806,74.607Z" transform="translate(-209.13 -65.72)" fill="#46a62b"/>
            <path id="XMLID_1236_" d="M215.906,78.127a3.594,3.594,0,0,1,3.275,0,1,1,0,0,1,0,1.89,3.594,3.594,0,0,1-3.275,0A1,1,0,0,1,215.906,78.127Z" transform="translate(-208.681 -65.461)" fill="#46a62b"/>
            <path id="XMLID_1235_" d="M222,81.637a3.594,3.594,0,0,1,3.275,0,1,1,0,0,1,0,1.89,3.594,3.594,0,0,1-3.275,0A1,1,0,0,1,222,81.637Z" transform="translate(-208.232 -65.202)" fill="#263238"/>
            <path id="XMLID_1234_" d="M228.086,85.157a3.594,3.594,0,0,1,3.275,0,1,1,0,0,1,0,1.89,3.594,3.594,0,0,1-3.275,0A1,1,0,0,1,228.086,85.157Z" transform="translate(-207.784 -64.943)" fill="#263238"/>
            <ellipse id="XMLID_1233_" cx="2.308" cy="1.331" rx="2.308" ry="1.331" transform="translate(4.917 5.666)" fill="#46a62b"/>
            <path id="XMLID_1232_" d="M220.477,75.487a3.594,3.594,0,0,1,3.275,0,1,1,0,0,1,0,1.89,3.594,3.594,0,0,1-3.275,0C219.564,76.851,219.564,76,220.477,75.487Z" transform="translate(-208.345 -65.655)" fill="#263238"/>
            <ellipse id="XMLID_1231_" cx="2.308" cy="1.331" rx="2.308" ry="1.331" transform="translate(17.994 13.225)" fill="#46a62b"/>
            <path id="XMLID_1230_" d="M232.656,82.517a3.594,3.594,0,0,1,3.275,0,1,1,0,0,1,0,1.89,3.594,3.594,0,0,1-3.275,0A1,1,0,0,1,232.656,82.517Z" transform="translate(-207.447 -65.137)" fill="#263238"/>
            <path id="XMLID_1229_" d="M218.946,69.327a3.594,3.594,0,0,1,3.275,0,1,1,0,0,1,0,1.89,3.594,3.594,0,0,1-3.275,0A1,1,0,0,1,218.946,69.327Z" transform="translate(-208.457 -66.109)" fill="#263238"/>
            <path id="XMLID_1228_" d="M225.047,72.847a3.594,3.594,0,0,1,3.275,0,1,1,0,0,1,0,1.89,3.594,3.594,0,0,1-3.275,0A.994.994,0,0,1,225.047,72.847Z" transform="translate(-208.008 -65.85)" fill="#46a62b"/>
            <path id="XMLID_1227_" d="M231.136,76.367a3.594,3.594,0,0,1,3.275,0,1,1,0,0,1,0,1.89,3.594,3.594,0,0,1-3.275,0A1,1,0,0,1,231.136,76.367Z" transform="translate(-207.559 -65.59)" fill="#263238"/>
            <path id="XMLID_1226_" d="M234.216,88.607a3.594,3.594,0,0,1,3.275,0,1,1,0,0,1,0,1.89,3.594,3.594,0,0,1-3.275,0A1,1,0,0,1,234.216,88.607Z" transform="translate(-207.332 -64.689)" fill="#46a62b"/>
            <ellipse id="XMLID_1225_" cx="2.308" cy="1.331" rx="2.308" ry="1.331" transform="translate(31.114 20.697)" fill="#263238"/>
            <path id="XMLID_1159_" d="M237.226,79.887a3.594,3.594,0,0,1,3.275,0,1,1,0,0,1,0,1.89,3.594,3.594,0,0,1-3.275,0A1,1,0,0,1,237.226,79.887Z" transform="translate(-207.111 -65.331)" fill="#263238"/>
            <path id="XMLID_1158_" d="M223.516,66.7a3.594,3.594,0,0,1,3.275,0,1,1,0,0,1,0,1.89,3.594,3.594,0,0,1-3.275,0A1,1,0,0,1,223.516,66.7Z" transform="translate(-208.12 -66.302)" fill="#46a62b"/>
            <ellipse id="XMLID_1157_" cx="2.308" cy="1.331" rx="2.308" ry="1.331" transform="translate(21.269 3.777)" fill="#263238"/>
            <path id="XMLID_1156_" d="M235.706,73.727a3.594,3.594,0,0,1,3.275,0,1,1,0,0,1,0,1.89,3.594,3.594,0,0,1-3.275,0A1,1,0,0,1,235.706,73.727Z" transform="translate(-207.223 -65.785)" fill="#46a62b"/>
            <ellipse id="XMLID_1155_" cx="2.308" cy="1.331" rx="2.308" ry="1.331" transform="translate(34.346 11.335)" fill="#263238"/>
            <path id="XMLID_1154_" d="M243.356,83.337a3.594,3.594,0,0,1,3.275,0,1,1,0,0,1,0,1.89,3.594,3.594,0,0,1-3.275,0A1,1,0,0,1,243.356,83.337Z" transform="translate(-206.659 -65.077)" fill="#46a62b"/>
            <path id="XMLID_1153_" d="M247.926,80.7a3.594,3.594,0,0,1,3.275,0,1,1,0,0,1,0,1.89,3.594,3.594,0,0,1-3.275,0A1,1,0,0,1,247.926,80.7Z" transform="translate(-206.323 -65.271)" fill="#263238"/>
          </g>
          <path id="XMLID_1151_" d="M239.558,97.215v5.025a2.883,2.883,0,0,1-1.471-.322L201.626,80.863a3.067,3.067,0,0,1-1.4-2.416V76.633a3.1,3.1,0,0,1,1.138-2.233c-.5.44-.419,1.041.258,1.428l36.461,21.054A2.888,2.888,0,0,0,239.558,97.215Z" transform="translate(-200.219 -42.864)" fill="#37474f"/>
          <g id="XMLID_1103_" transform="translate(31.755 4.056)">
            <path id="XMLID_1150_" d="M229.993,59.156l.032-.043a1.229,1.229,0,0,1,1.568-.322L263.32,77.107a.93.93,0,0,1,.29,1.4l-.032.043a1.232,1.232,0,0,1-1.568.322L230.283,60.551A.935.935,0,0,1,229.993,59.156Z" transform="translate(-229.796 -48.081)" fill="#263238"/>
            <path id="XMLID_1149_" d="M229.993,59.156l.032-.043a1.229,1.229,0,0,1,1.568-.322l23.588,13.625-1.321,1.761L230.283,60.562A.947.947,0,0,1,229.993,59.156Z" transform="translate(-229.796 -48.081)" fill="#46a62b"/>
            <path id="XMLID_1148_" d="M232.444,55.876l.032-.043a1.229,1.229,0,0,1,1.568-.322L265.77,73.827a.93.93,0,0,1,.29,1.4l-.032.043a1.232,1.232,0,0,1-1.568.322L232.734,57.282A.94.94,0,0,1,232.444,55.876Z" transform="translate(-229.616 -48.323)" fill="#263238"/>
            <path id="XMLID_1147_" d="M232.444,55.876l.032-.043a1.229,1.229,0,0,1,1.568-.322l7.891,4.552-1.321,1.761-7.881-4.552A.927.927,0,0,1,232.444,55.876Z" transform="translate(-229.616 -48.323)" fill="#46a62b"/>
            <path id="XMLID_1146_" d="M234.884,52.606l.032-.043a1.229,1.229,0,0,1,1.568-.322L268.21,70.557a.93.93,0,0,1,.29,1.4l-.032.043a1.232,1.232,0,0,1-1.568.322L235.174,54A.93.93,0,0,1,234.884,52.606Z" transform="translate(-229.437 -48.564)" fill="#263238"/>
            <path id="XMLID_1145_" d="M234.884,52.606l.032-.043a1.245,1.245,0,0,1,1.568-.333l16.523,9.513L251.686,63.5l-16.523-9.513A.922.922,0,0,1,234.884,52.606Z" transform="translate(-229.437 -48.564)" fill="#46a62b"/>
            <path id="XMLID_1140_" d="M237.323,49.326l.032-.043a1.229,1.229,0,0,1,1.568-.322L270.66,67.266a.93.93,0,0,1,.29,1.4l-.032.043a1.232,1.232,0,0,1-1.568.322L237.624,50.711A.92.92,0,0,1,237.323,49.326Z" transform="translate(-229.257 -48.805)" fill="#263238"/>
            <path id="XMLID_1127_" d="M237.324,49.326l.032-.043a1.229,1.229,0,0,1,1.568-.322l28.806,16.631-1.321,1.761-28.8-16.62A.951.951,0,0,1,237.324,49.326Z" transform="translate(-229.257 -48.805)" fill="#46a62b"/>
          </g>
        </g>
      </g>
      <g id="Server" transform="translate(0 73.008)">
        <g id="XMLID_1084_" transform="translate(130.835 201.816)">
          <path id="XMLID_10_" d="M183.98,325.231l10.758-6.216a5.14,5.14,0,0,1,4.649,0l63.9,36.9a2.36,2.36,0,0,0,3.543-2.051V301.01" transform="translate(-170.882 -300.999)" fill="none" stroke="#46a62b" stroke-miterlimit="10" stroke-width="1"/>
          <path id="XMLID_9_" d="M179.91,322.709l15.117-8.729a5.14,5.14,0,0,1,4.649,0l68.273,39.414a2.36,2.36,0,0,0,3.543-2.051V301" transform="translate(-171.181 -301)" fill="none" stroke="#46a62b" stroke-miterlimit="10" stroke-width="1"/>
          <path id="XMLID_8_" d="M175.85,320.165l19.487-11.241a5.14,5.14,0,0,1,4.649,0l72.632,41.937a2.36,2.36,0,0,0,3.543-2.051V301.29" transform="translate(-171.48 -300.979)" fill="none" stroke="#46a62b" stroke-miterlimit="10" stroke-width="1"/>
          <path id="XMLID_7_" d="M171.78,317.653l23.856-13.764a5.14,5.14,0,0,1,4.649,0l76.991,44.449a2.36,2.36,0,0,0,3.543-2.051V301.28" transform="translate(-171.78 -300.979)" fill="none" stroke="#46a62b" stroke-miterlimit="10" stroke-width="1"/>
        </g>
        <g id="XMLID_1101_" transform="translate(0 0.22)">
          <path id="XMLID_1098_" d="M121.747,113.788,52.25,153.91a5.132,5.132,0,0,0-2.33,4.026V348.971A5.132,5.132,0,0,0,52.25,353l69.5,40.122a5.14,5.14,0,0,0,4.649,0L195.882,353a5.121,5.121,0,0,0,2.319-4.026V157.936a5.149,5.149,0,0,0-2.319-4.026L126.4,113.788A5.14,5.14,0,0,0,121.747,113.788Z" transform="translate(-49.92 -113.232)" fill="#37474f"/>
          <path id="XMLID_1106_" d="M193.125,155.035V346.069a5.149,5.149,0,0,1-2.319,4.026l-69.5,40.122a4.663,4.663,0,0,1-2.319.558v-196.4a4.81,4.81,0,0,0,2.319-.558l69.5-40.122.633-.526.827-.687A4.818,4.818,0,0,1,193.125,155.035Z" transform="translate(-44.833 -110.342)" fill="#263238"/>
          <g id="XMLID_1126_" transform="translate(8.729 63.186)">
            <path id="XMLID_1122_" d="M60.38,172.4l52.05,30.051a5.132,5.132,0,0,1,2.33,4.026v19.809c0,1.482-1.041,2.083-2.33,1.342L60.38,197.579a5.132,5.132,0,0,1-2.33-4.026V173.744C58.05,172.262,59.091,171.661,60.38,172.4Z" transform="translate(-58.05 -172.085)" fill="#455a64"/>
            <path id="XMLID_1123_" d="M62.12,180.614a5,5,0,0,0,2.33,3.865L107.771,209.5c1.288.741,2.33.215,2.33-1.181a5,5,0,0,0-2.33-3.865L64.45,179.433C63.151,178.692,62.12,179.218,62.12,180.614Z" transform="translate(-57.75 -171.568)" fill="#46a62b"/>
            <path id="XMLID_1125_" d="M62.12,189.994a5,5,0,0,0,2.33,3.865l43.322,25.016c1.288.741,2.33.215,2.33-1.181a5,5,0,0,0-2.33-3.865L64.45,188.813C63.151,188.072,62.12,188.6,62.12,189.994Z" transform="translate(-57.75 -170.877)" fill="#263238"/>
            <path id="XMLID_1124_" d="M64.44,188.813l23.846,13.764v5.035L64.44,193.848a4.979,4.979,0,0,1-2.33-3.865C62.121,188.6,63.151,188.072,64.44,188.813Z" transform="translate(-57.751 -170.877)" fill="#46a62b"/>
          </g>
          <g id="XMLID_1128_" transform="translate(8.729 98.434)">
            <path id="XMLID_1132_" d="M60.38,205.232l52.05,30.051a5.132,5.132,0,0,1,2.33,4.026v19.809c0,1.482-1.041,2.083-2.33,1.342L60.38,230.409a5.132,5.132,0,0,1-2.33-4.026V206.574C58.05,205.092,59.091,204.491,60.38,205.232Z" transform="translate(-58.05 -204.915)" fill="#455a64"/>
            <path id="XMLID_1131_" d="M62.12,213.444a5,5,0,0,0,2.33,3.865l43.322,25.016c1.288.741,2.33.215,2.33-1.181a5,5,0,0,0-2.33-3.865L64.45,212.263C63.151,211.532,62.12,212.059,62.12,213.444Z" transform="translate(-57.75 -204.398)" fill="#46a62b"/>
            <path id="XMLID_1130_" d="M62.12,222.824a5,5,0,0,0,2.33,3.865L107.771,251.7c1.288.741,2.33.215,2.33-1.181a5,5,0,0,0-2.33-3.865L64.45,221.643C63.151,220.912,62.12,221.439,62.12,222.824Z" transform="translate(-57.75 -203.707)" fill="#263238"/>
            <path id="XMLID_1129_" d="M64.44,221.653l36.923,21.323v5.035L64.44,226.688a4.979,4.979,0,0,1-2.33-3.865C62.121,221.438,63.151,220.912,64.44,221.653Z" transform="translate(-57.751 -203.707)" fill="#46a62b"/>
          </g>
          <g id="XMLID_1133_" transform="translate(8.729 133.682)">
            <path id="XMLID_1214_" d="M60.38,238.062l52.05,30.051a5.132,5.132,0,0,1,2.33,4.026v19.809c0,1.482-1.041,2.083-2.33,1.342L60.38,263.25a5.132,5.132,0,0,1-2.33-4.026V239.415C58.05,237.922,59.091,237.321,60.38,238.062Z" transform="translate(-58.05 -237.745)" fill="#455a64"/>
            <path id="XMLID_1213_" d="M62.12,246.274a5,5,0,0,0,2.33,3.865l43.322,25.016c1.288.741,2.33.215,2.33-1.181a5,5,0,0,0-2.33-3.865L64.45,245.093C63.151,244.362,62.12,244.889,62.12,246.274Z" transform="translate(-57.75 -237.228)" fill="#46a62b"/>
            <path id="XMLID_1212_" d="M62.12,255.664a5,5,0,0,0,2.33,3.865l43.322,25.016c1.288.741,2.33.215,2.33-1.181a5,5,0,0,0-2.33-3.865L64.45,254.483C63.151,253.742,62.12,254.268,62.12,255.664Z" transform="translate(-57.75 -236.537)" fill="#263238"/>
            <path id="XMLID_1134_" d="M64.44,254.483l15.117,8.729v5.035L64.44,259.518a4.979,4.979,0,0,1-2.33-3.865C62.121,254.268,63.151,253.742,64.44,254.483Z" transform="translate(-57.751 -236.537)" fill="#46a62b"/>
          </g>
          <g id="XMLID_1215_" transform="translate(8.729 168.941)">
            <path id="XMLID_1219_" d="M60.38,270.9l52.05,30.051a5.132,5.132,0,0,1,2.33,4.026v19.809c0,1.482-1.041,2.083-2.33,1.342L60.38,296.079a5.132,5.132,0,0,1-2.33-4.026V272.244C58.05,270.762,59.091,270.161,60.38,270.9Z" transform="translate(-58.05 -270.585)" fill="#455a64"/>
            <path id="XMLID_1218_" d="M62.12,279.114a5,5,0,0,0,2.33,3.865L107.771,308c1.288.741,2.33.215,2.33-1.181a5,5,0,0,0-2.33-3.865L64.45,277.933C63.151,277.192,62.12,277.718,62.12,279.114Z" transform="translate(-57.75 -270.068)" fill="#46a62b"/>
            <path id="XMLID_1217_" d="M62.12,288.494a5,5,0,0,0,2.33,3.865l43.322,25.016c1.288.741,2.33.215,2.33-1.181a5,5,0,0,0-2.33-3.865L64.45,287.313C63.151,286.572,62.12,287.1,62.12,288.494Z" transform="translate(-57.75 -269.377)" fill="#263238"/>
            <path id="XMLID_1216_" d="M64.44,287.313l23.846,13.764v5.035L64.44,292.348a4.979,4.979,0,0,1-2.33-3.865C62.121,287.1,63.151,286.572,64.44,287.313Z" transform="translate(-57.751 -269.377)" fill="#46a62b"/>
          </g>
          <g id="XMLID_1220_" transform="translate(8.729 204.188)">
            <path id="XMLID_1224_" d="M60.38,303.732l52.05,30.051a5.132,5.132,0,0,1,2.33,4.026v19.809c0,1.482-1.041,2.083-2.33,1.342L60.38,328.909a5.132,5.132,0,0,1-2.33-4.026V305.074C58.05,303.592,59.091,302.991,60.38,303.732Z" transform="translate(-58.05 -303.415)" fill="#455a64"/>
            <path id="XMLID_1223_" d="M62.12,311.944a5,5,0,0,0,2.33,3.865l43.322,25.016c1.288.741,2.33.215,2.33-1.181a5,5,0,0,0-2.33-3.865L64.45,310.763C63.151,310.032,62.12,310.559,62.12,311.944Z" transform="translate(-57.75 -302.898)" fill="#46a62b"/>
            <path id="XMLID_1222_" d="M62.12,321.324a5,5,0,0,0,2.33,3.865L107.771,350.2c1.288.741,2.33.215,2.33-1.181a5,5,0,0,0-2.33-3.865L64.45,320.143C63.151,319.412,62.12,319.939,62.12,321.324Z" transform="translate(-57.75 -302.207)" fill="#263238"/>
            <path id="XMLID_1221_" d="M64.44,320.153,97,338.953v5.035l-32.564-18.8a4.979,4.979,0,0,1-2.33-3.865C62.121,319.938,63.151,319.412,64.44,320.153Z" transform="translate(-57.751 -302.207)" fill="#46a62b"/>
          </g>
          <g id="XMLID_43_" transform="translate(80.695 65.384)">
            <path id="XMLID_40_" d="M129.439,202.839c2.4-1.4,4.359-.129,4.359,2.845v115.17a10,10,0,0,1-4.359,7.891c-2.4,1.4-4.359.129-4.359-2.845V210.73A10,10,0,0,1,129.439,202.839Z" transform="translate(-125.08 -172.059)" fill="#37474f"/>
            <path id="XMLID_42_" d="M129.289,326a4.988,4.988,0,0,0,2.18-3.94V206.567c0-1.482-.977-2.126-2.18-1.428a4.988,4.988,0,0,0-2.179,3.94V324.572C127.11,326.064,128.087,326.7,129.289,326Z" transform="translate(-124.93 -171.869)" fill="#263238"/>
            <path id="XMLID_1091_" d="M129.289,321.748a4.988,4.988,0,0,0,2.18-3.94V262.59l-4.359,2.523v55.218C127.11,321.812,128.087,322.446,129.289,321.748Z" transform="translate(-124.93 -167.617)" fill="#46a62b"/>
            <path id="XMLID_45_" d="M141.629,195.8c2.4-1.4,4.359-.129,4.359,2.845v115.17a10,10,0,0,1-4.359,7.891c-2.4,1.4-4.359.129-4.359-2.845V203.69A9.955,9.955,0,0,1,141.629,195.8Z" transform="translate(-124.182 -172.578)" fill="#37474f"/>
            <path id="XMLID_44_" d="M141.48,318.97a4.988,4.988,0,0,0,2.18-3.94V199.537c0-1.482-.977-2.126-2.18-1.428a4.988,4.988,0,0,0-2.18,3.94V317.542C139.289,319.023,140.266,319.668,141.48,318.97Z" transform="translate(-124.033 -172.387)" fill="#46a62b"/>
            <path id="XMLID_47_" d="M153.809,188.769c2.4-1.4,4.359-.129,4.359,2.845v115.17a10,10,0,0,1-4.359,7.891c-2.4,1.4-4.359.129-4.359-2.845V196.66A10,10,0,0,1,153.809,188.769Z" transform="translate(-123.285 -173.095)" fill="#37474f"/>
            <path id="XMLID_46_" d="M153.659,311.929a4.988,4.988,0,0,0,2.18-3.94V192.5c0-1.482-.977-2.115-2.18-1.428a4.988,4.988,0,0,0-2.18,3.94V310.5C151.48,311.994,152.457,312.627,153.659,311.929Z" transform="translate(-123.136 -172.905)" fill="#263238"/>
            <path id="XMLID_1092_" d="M153.659,310.01a4.988,4.988,0,0,0,2.18-3.94V216.86l-4.359,2.523v89.209C151.48,310.074,152.457,310.707,153.659,310.01Z" transform="translate(-123.136 -170.985)" fill="#46a62b"/>
            <path id="XMLID_654_" d="M166,181.729c2.4-1.4,4.359-.129,4.359,2.845v115.17a10.033,10.033,0,0,1-4.359,7.9c-2.4,1.4-4.359.129-4.359-2.845V189.631A9.971,9.971,0,0,1,166,181.729Z" transform="translate(-122.387 -173.614)" fill="#37474f"/>
            <path id="XMLID_48_" d="M165.85,304.9a4.988,4.988,0,0,0,2.18-3.94V185.467c0-1.482-.977-2.126-2.18-1.428a4.988,4.988,0,0,0-2.18,3.94V303.472C163.67,304.953,164.647,305.6,165.85,304.9Z" transform="translate(-122.238 -173.423)" fill="#263238"/>
            <path id="XMLID_1093_" d="M165.85,298.2a4.988,4.988,0,0,0,2.18-3.94v-19.5l-4.359,2.523v19.5C163.67,298.251,164.647,298.9,165.85,298.2Z" transform="translate(-122.238 -166.721)" fill="#46a62b"/>
            <path id="XMLID_656_" d="M178.179,174.7c2.4-1.4,4.359-.129,4.359,2.845v115.17a10,10,0,0,1-4.359,7.891c-2.4,1.4-4.359.129-4.359-2.845V182.59A10,10,0,0,1,178.179,174.7Z" transform="translate(-121.49 -174.132)" fill="#37474f"/>
            <path id="XMLID_655_" d="M178.029,297.86a4.988,4.988,0,0,0,2.18-3.94V178.427c0-1.482-.977-2.126-2.18-1.428a4.988,4.988,0,0,0-2.18,3.94V296.432C175.85,297.924,176.827,298.558,178.029,297.86Z" transform="translate(-121.341 -173.941)" fill="#263238"/>
            <path id="XMLID_1094_" d="M178.029,293.953a4.988,4.988,0,0,0,2.18-3.94V229.76l-4.359,2.523v60.253C175.85,294.018,176.827,294.651,178.029,293.953Z" transform="translate(-121.341 -170.035)" fill="#46a62b"/>
          </g>
          <g id="XMLID_1100_" transform="translate(80.695 202.729)">
            <path id="XMLID_1086_" d="M126.937,335.408l57.333-33.1c1.031-.59,1.857-.107,1.857,1.074v20.882a4.131,4.131,0,0,1-1.857,3.221l-57.333,33.1c-1.031.59-1.857.107-1.857-1.074V338.629A4.1,4.1,0,0,1,126.937,335.408Z" transform="translate(-125.08 -302.055)" fill="#37474f"/>
            <g id="XMLID_39_" transform="translate(4.209 7.636)">
              <path id="XMLID_1088_" d="M129,341.079c0,1.4,1.041,1.922,2.33,1.181L179.3,314.549a4.979,4.979,0,0,0,2.33-3.865c0-1.4-1.041-1.922-2.319-1.181l-47.971,27.711A4.963,4.963,0,0,0,129,341.079Z" transform="translate(-129 -309.167)" fill="#263238"/>
              <path id="XMLID_1087_" d="M129,340.537c0,1.4,1.041,1.922,2.33,1.17l34.894-20.152V316.52L131.33,336.672A4.979,4.979,0,0,0,129,340.537Z" transform="translate(-129 -308.626)" fill="#46a62b"/>
            </g>
            <g id="XMLID_41_" transform="translate(4.209 17.707)">
              <path id="XMLID_1090_" d="M129,350.459c0,1.4,1.041,1.922,2.33,1.181L179.3,323.929a4.979,4.979,0,0,0,2.33-3.865c0-1.4-1.041-1.922-2.319-1.181l-47.971,27.711A4.963,4.963,0,0,0,129,350.459Z" transform="translate(-129 -318.547)" fill="#263238"/>
              <path id="XMLID_1089_" d="M129,349.053c0,1.4,1.041,1.922,2.33,1.181l13.088-7.558V337.64L131.33,345.2A4.943,4.943,0,0,0,129,349.053Z" transform="translate(-129 -317.141)" fill="#46a62b"/>
            </g>
          </g>
          <path id="XMLID_1095_" d="M195.788,153.91,126.3,113.788a5.14,5.14,0,0,0-4.649,0L52.166,153.91c-1.288.741-1.288,1.943,0,2.684l69.5,40.122a5.14,5.14,0,0,0,4.649,0L195.8,156.594C197.076,155.854,197.076,154.651,195.788,153.91Z" transform="translate(-49.826 -113.232)" fill="#455a64"/>
        </g>
        <g id="XMLID_1074_" transform="translate(17.447 4.934)">
          <path id="XMLID_1096_" d="M121.474,186.849,67.566,155.724a3.067,3.067,0,0,1-1.4-2.416v-1.814a3.067,3.067,0,0,1,1.4-2.416l53.908-31.125a3.115,3.115,0,0,1,2.791,0l53.908,31.125a3.067,3.067,0,0,1,1.4,2.416v1.814a3.067,3.067,0,0,1-1.4,2.416l-53.908,31.125A3.049,3.049,0,0,1,121.474,186.849Z" transform="translate(-66.17 -117.622)" fill="#263238"/>
          <path id="XMLID_1097_" d="M67.52,150.624l53.908,31.125a3.115,3.115,0,0,0,2.791,0l53.908-31.125a.849.849,0,0,0,0-1.61l-53.908-30.051a3.115,3.115,0,0,0-2.791,0L67.52,149.014C66.747,149.454,66.747,150.174,67.52,150.624Z" transform="translate(-66.113 -117.548)" fill="#455a64"/>
          <path id="XMLID_1136_" d="M122.879,179.976v5.035a2.825,2.825,0,0,1-1.4-.333L67.576,153.553a3.067,3.067,0,0,1-1.4-2.416v-1.814a3.1,3.1,0,0,1,1.138-2.233c-.5.44-.419,1.041.258,1.428l53.908,31.125A2.825,2.825,0,0,0,122.879,179.976Z" transform="translate(-66.169 -115.452)" fill="#37474f"/>
        </g>
        <g id="XMLID_1073_" transform="translate(34.894)">
          <path id="XMLID_657_" d="M120.277,172.081,83.816,151.026a3.067,3.067,0,0,1-1.4-2.416V146.8a3.067,3.067,0,0,1,1.4-2.416l23.373-13.5a9.128,9.128,0,0,0,2.351-2.094l11.166-15.042a1.833,1.833,0,0,1,2.351-.483l36.461,21.054a3.067,3.067,0,0,1,1.4,2.416v11.885a3.067,3.067,0,0,1-1.4,2.416l-36.461,21.054A3.06,3.06,0,0,1,120.277,172.081Z" transform="translate(-82.42 -113.027)" fill="#263238"/>
          <path id="XMLID_660_" d="M123.011,167.045l23.373-13.5a9.146,9.146,0,0,0,2.362-2.094l11.166-15.042a1.4,1.4,0,0,0-.429-2.094l-36.461-21.054a1.855,1.855,0,0,0-2.351.483L109.5,128.791a8.677,8.677,0,0,1-2.158,2.18L83.78,144.38a.849.849,0,0,0,0,1.61l36.461,21.054A3.005,3.005,0,0,0,123.011,167.045Z" transform="translate(-82.363 -113.027)" fill="#455a64"/>
          <path id="XMLID_38_" d="M157.746,134.31l-36.461-21.054a1.855,1.855,0,0,0-2.351.483l-11.166,15.042a8.9,8.9,0,0,1-1.138,1.192s39.242,22.675,39.253,22.665a8.3,8.3,0,0,0,1.138-1.192L158.187,136.4A1.4,1.4,0,0,0,157.746,134.31Z" transform="translate(-80.637 -113.027)" fill="#37474f"/>
          <g id="XMLID_52_" transform="translate(9.566 22.85)">
            <path id="XMLID_1144_" d="M92.006,142.607a3.594,3.594,0,0,1,3.275,0,1,1,0,0,1,0,1.89,3.594,3.594,0,0,1-3.275,0A1,1,0,0,1,92.006,142.607Z" transform="translate(-91.33 -133.728)" fill="#46a62b"/>
            <path id="XMLID_1143_" d="M98.106,146.127a3.594,3.594,0,0,1,3.275,0,1,1,0,0,1,0,1.89,3.594,3.594,0,0,1-3.275,0A1,1,0,0,1,98.106,146.127Z" transform="translate(-90.881 -133.469)" fill="#46a62b"/>
            <path id="XMLID_1142_" d="M104.2,149.637a3.594,3.594,0,0,1,3.275,0,1,1,0,0,1,0,1.89,3.594,3.594,0,0,1-3.275,0A1,1,0,0,1,104.2,149.637Z" transform="translate(-90.432 -133.21)" fill="#263238"/>
            <path id="XMLID_1141_" d="M110.286,153.157a3.594,3.594,0,0,1,3.275,0,1,1,0,0,1,0,1.89,3.594,3.594,0,0,1-3.275,0A1,1,0,0,1,110.286,153.157Z" transform="translate(-89.984 -132.951)" fill="#263238"/>
            <path id="XMLID_1139_" d="M96.576,139.967a3.594,3.594,0,0,1,3.275,0,1,1,0,0,1,0,1.89,3.594,3.594,0,0,1-3.275,0A1,1,0,0,1,96.576,139.967Z" transform="translate(-90.993 -133.922)" fill="#46a62b"/>
            <ellipse id="XMLID_1138_" cx="2.308" cy="1.331" rx="2.308" ry="1.331" transform="translate(11.456 9.437)" fill="#263238"/>
            <path id="XMLID_1137_" d="M108.766,147.007a3.594,3.594,0,0,1,3.275,0,1,1,0,0,1,0,1.89,3.594,3.594,0,0,1-3.275,0A1,1,0,0,1,108.766,147.007Z" transform="translate(-90.096 -133.404)" fill="#46a62b"/>
            <ellipse id="XMLID_1135_" cx="2.308" cy="1.331" rx="2.308" ry="1.331" transform="translate(24.544 16.985)" fill="#263238"/>
            <path id="XMLID_1116_" d="M101.146,137.327a3.594,3.594,0,0,1,3.275,0,1,1,0,0,1,0,1.89,3.594,3.594,0,0,1-3.275,0A1,1,0,0,1,101.146,137.327Z" transform="translate(-90.657 -134.117)" fill="#263238"/>
            <path id="XMLID_1105_" d="M107.247,140.847a3.594,3.594,0,0,1,3.275,0,1,1,0,0,1,0,1.89,3.594,3.594,0,0,1-3.275,0C106.345,142.211,106.334,141.373,107.247,140.847Z" transform="translate(-90.208 -133.858)" fill="#46a62b"/>
            <path id="XMLID_1104_" d="M113.336,144.367a3.594,3.594,0,0,1,3.275,0,1,1,0,0,1,0,1.89,3.594,3.594,0,0,1-3.275,0A1,1,0,0,1,113.336,144.367Z" transform="translate(-89.759 -133.598)" fill="#263238"/>
            <path id="XMLID_663_" d="M116.416,156.607a3.594,3.594,0,0,1,3.275,0,1,1,0,0,1,0,1.89,3.594,3.594,0,0,1-3.275,0A1,1,0,0,1,116.416,156.607Z" transform="translate(-89.532 -132.697)" fill="#46a62b"/>
            <path id="XMLID_661_" d="M120.986,153.967a3.594,3.594,0,0,1,3.275,0,1,1,0,0,1,0,1.89,3.594,3.594,0,0,1-3.275,0A1,1,0,0,1,120.986,153.967Z" transform="translate(-89.196 -132.891)" fill="#263238"/>
            <path id="XMLID_1068_" d="M119.426,147.887a3.594,3.594,0,0,1,3.275,0,1,1,0,0,1,0,1.89,3.594,3.594,0,0,1-3.275,0A1,1,0,0,1,119.426,147.887Z" transform="translate(-89.311 -133.339)" fill="#263238"/>
            <ellipse id="XMLID_1067_" cx="2.308" cy="1.331" rx="2.308" ry="1.331" transform="translate(14.73)" fill="#46a62b"/>
            <path id="XMLID_666_" d="M111.817,138.207a3.594,3.594,0,0,1,3.275,0,1,1,0,0,1,0,1.89,3.594,3.594,0,0,1-3.275,0C110.9,139.581,110.9,138.733,111.817,138.207Z" transform="translate(-89.872 -134.052)" fill="#263238"/>
            <path id="XMLID_664_" d="M2.308,0C3.583,0,4.617.6,4.617,1.331S3.583,2.663,2.308,2.663,0,2.067,0,1.331,1.033,0,2.308,0Z" transform="translate(27.807 7.548)" fill="#46a62b"/>
            <path id="XMLID_662_" d="M124,145.247a3.594,3.594,0,0,1,3.275,0,1,1,0,0,1,0,1.89,3.594,3.594,0,0,1-3.275,0A1,1,0,0,1,124,145.247Z" transform="translate(-88.974 -133.534)" fill="#263238"/>
            <path id="XMLID_54_" d="M125.556,151.337a3.594,3.594,0,0,1,3.275,0,1,1,0,0,1,0,1.89,3.594,3.594,0,0,1-3.275,0A1,1,0,0,1,125.556,151.337Z" transform="translate(-88.859 -133.085)" fill="#46a62b"/>
            <ellipse id="XMLID_665_" cx="2.308" cy="1.331" rx="2.308" ry="1.331" transform="translate(40.927 15.031)" fill="#263238"/>
          </g>
          <path id="XMLID_667_" d="M121.758,165.215v5.025a2.884,2.884,0,0,1-1.471-.322L83.826,148.863a3.067,3.067,0,0,1-1.4-2.416v-1.814a3.1,3.1,0,0,1,1.138-2.233c-.5.44-.419,1.041.258,1.428l36.461,21.054A2.887,2.887,0,0,0,121.758,165.215Z" transform="translate(-82.419 -110.864)" fill="#37474f"/>
          <g id="XMLID_1069_" transform="translate(31.755 4.056)">
            <path id="XMLID_1082_" d="M112.194,127.156l.032-.043a1.229,1.229,0,0,1,1.568-.322l31.726,18.316a.93.93,0,0,1,.29,1.4l-.032.043a1.232,1.232,0,0,1-1.568.322l-31.726-18.316A.935.935,0,0,1,112.194,127.156Z" transform="translate(-111.996 -116.081)" fill="#46a62b"/>
            <path id="XMLID_669_" d="M112.194,127.156l.032-.043a1.229,1.229,0,0,1,1.568-.322l23.588,13.625-1.321,1.761-23.577-13.614A.947.947,0,0,1,112.194,127.156Z" transform="translate(-111.996 -116.081)" fill="#46a62b"/>
            <path id="XMLID_1081_" d="M114.644,123.876l.032-.043a1.229,1.229,0,0,1,1.568-.322l31.726,18.316a.93.93,0,0,1,.29,1.4l-.032.043a1.232,1.232,0,0,1-1.568.322l-31.726-18.316A.927.927,0,0,1,114.644,123.876Z" transform="translate(-111.816 -116.323)" fill="#46a62b"/>
            <path id="XMLID_1070_" d="M114.644,123.876l.032-.043a1.229,1.229,0,0,1,1.568-.322l7.891,4.552-1.321,1.761-7.881-4.552A.927.927,0,0,1,114.644,123.876Z" transform="translate(-111.816 -116.323)" fill="#46a62b"/>
            <path id="XMLID_1080_" d="M117.084,120.606l.032-.043a1.229,1.229,0,0,1,1.568-.322l31.726,18.316a.93.93,0,0,1,.29,1.4l-.032.043a1.232,1.232,0,0,1-1.568.322L117.374,122A.93.93,0,0,1,117.084,120.606Z" transform="translate(-111.637 -116.564)" fill="#46a62b"/>
            <path id="XMLID_1071_" d="M117.084,120.606l.032-.043a1.245,1.245,0,0,1,1.568-.333l16.523,9.513-1.321,1.761-16.523-9.513A.922.922,0,0,1,117.084,120.606Z" transform="translate(-111.637 -116.564)" fill="#46a62b"/>
            <path id="XMLID_1079_" d="M119.524,117.326l.032-.043a1.229,1.229,0,0,1,1.568-.322l31.726,18.316a.93.93,0,0,1,.29,1.4l-.032.043a1.232,1.232,0,0,1-1.568.322l-31.726-18.316A.938.938,0,0,1,119.524,117.326Z" transform="translate(-111.457 -116.805)" fill="#46a62b"/>
            <path id="XMLID_1072_" d="M119.524,117.326l.032-.043a1.229,1.229,0,0,1,1.568-.322l28.806,16.631-1.321,1.761-28.8-16.62A.951.951,0,0,1,119.524,117.326Z" transform="translate(-111.457 -116.805)" fill="#46a62b"/>
          </g>
        </g>
      </g>
    </g>
    <g id="Desk_2_" transform="translate(267.161 215.485)">
      <g id="Desk_3_">
        <g id="Desk_4_" transform="translate(0 39.328)">
          <g id="XMLID_280_" transform="translate(5.497 72.608)">
            <g id="XMLID_283_">
              <path id="XMLID_284_" d="M256.52,308.855v58.8a1.56,1.56,0,0,0,.7,1.213l56.366,32.5a1.525,1.525,0,0,0,1.4,0l1.879-1.084a1.543,1.543,0,0,0,.7-1.213v-58.8a.811.811,0,0,0-.805-.805L257.336,308.05A.813.813,0,0,0,256.52,308.855Z" transform="translate(-256.52 -308.05)" fill="#fafafa"/>
            </g>
            <g id="XMLID_281_" transform="translate(57.762 31.415)">
              <path id="XMLID_282_" d="M312.789,337.31h-1.664a.811.811,0,0,0-.805.805v60.693c0,.44.311.623.7.408l1.879-1.084a1.543,1.543,0,0,0,.7-1.213v-58.8A.811.811,0,0,0,312.789,337.31Z" transform="translate(-310.32 -337.31)" fill="#f5f5f5"/>
            </g>
          </g>
          <g id="XMLID_270_" transform="translate(117.747 5.226)">
            <g id="XMLID_273_">
              <path id="XMLID_274_" d="M361.07,246.106v58.8a1.524,1.524,0,0,0,.7,1.2l58.589,33.8a1.525,1.525,0,0,0,1.4,0l1.879-1.084a1.543,1.543,0,0,0,.7-1.213v-58.8a.811.811,0,0,0-.805-.805L361.886,245.29A.816.816,0,0,0,361.07,246.106Z" transform="translate(-361.07 -245.29)" fill="#e0e0e0"/>
            </g>
            <g id="XMLID_271_" transform="translate(59.974 32.725)">
              <path id="XMLID_272_" d="M419.4,275.77h-1.664a.811.811,0,0,0-.805.805v60.693c0,.44.311.623.7.408l1.879-1.084a1.543,1.543,0,0,0,.7-1.213v-58.8A.8.8,0,0,0,419.4,275.77Z" transform="translate(-416.93 -275.77)" fill="#ebebeb"/>
            </g>
          </g>
          <g id="XMLID_261_">
            <g id="XMLID_268_">
              <path id="XMLID_269_" d="M251.4,311.989v-.558a3.067,3.067,0,0,1,1.4-2.416l118.23-68.262a3.115,3.115,0,0,1,2.791,0l62.626,36.16a3.067,3.067,0,0,1,1.4,2.416v.558a3.067,3.067,0,0,1-1.4,2.416l-118.23,68.263a3.116,3.116,0,0,1-2.792,0L252.8,314.4A3.1,3.1,0,0,1,251.4,311.989Z" transform="translate(-251.4 -240.422)" fill="#f5f5f5"/>
            </g>
            <g id="XMLID_266_" transform="translate(0.011 68.786)">
              <path id="XMLID_267_" d="M316.827,342.411v3.779a2.945,2.945,0,0,1-1.4-.333L252.806,309.7a3.084,3.084,0,0,1-1.4-2.416v-.558a3.081,3.081,0,0,1,1.138-2.233c-.5.429-.419,1.031.258,1.428l62.626,36.16A2.825,2.825,0,0,0,316.827,342.411Z" transform="translate(-251.41 -304.49)" fill="#ebebeb"/>
            </g>
            <g id="XMLID_264_" transform="translate(0.824 0.011)">
              <path id="XMLID_265_" d="M252.739,310.636l62.626,36.16a3.115,3.115,0,0,0,2.792,0l118.23-68.263a.849.849,0,0,0,0-1.61l-62.626-36.16a3.115,3.115,0,0,0-2.791,0l-118.23,68.262A.853.853,0,0,0,252.739,310.636Z" transform="translate(-252.167 -240.432)" fill="#fafafa"/>
            </g>
            <path id="XMLID_263_" d="M346.753,283.724l35.409-20.485a2.525,2.525,0,0,1,2.287,0l11.209,6.549a.7.7,0,0,1,0,1.321l-35.409,20.485a2.525,2.525,0,0,1-2.287,0l-11.209-6.549A.7.7,0,0,1,346.753,283.724Z" transform="translate(-244.412 -238.762)" fill="#ebebeb"/>
            <path id="XMLID_262_" d="M354.448,271.96l-.032-.021-3.747-2.169a.566.566,0,0,1,0-1.074l29.418-16.985a.566.566,0,0,0,0-1.074l-.3-.172a2.026,2.026,0,0,0-1.857,0l-28.591,16.513c-.515.3-.988.322-1.009.054a1.912,1.912,0,0,1,.032-.494l1.621-8.4a1.622,1.622,0,0,0-.73-1.589l-.29-.172a.724.724,0,0,0-1.138.526l-1.868,9.749a3.33,3.33,0,0,0-.021,1.084,1.575,1.575,0,0,1-.633,1.568l-17.844,10.307a.566.566,0,0,0,0,1.074l.3.172a2.025,2.025,0,0,0,1.857,0l17.06-9.845a3.918,3.918,0,0,1,1-.483.453.453,0,0,0,.075.054l5.8,3.35a2.025,2.025,0,0,0,1.857,0c2.545-1.46,9.588-5.519,12.132-6.989.515-.3.687-.676.376-.848a1.976,1.976,0,0,0-1.525.15l-10.951,5.272C354.91,271.767,354.459,271.971,354.448,271.96Z" transform="translate(-245.827 -239.699)" fill="#ebebeb"/>
          </g>
        </g>
        <g id="Device_1_" transform="translate(80.695)">
          <g id="Keyboard_1_" transform="translate(21.494 60.825)">
            <path id="XMLID_260_" d="M384.275,260.719l10.608,6.12a2.146,2.146,0,0,1,0,3.8l-34.249,19.777a2.525,2.525,0,0,1-2.287,0l-10.608-6.12a2.146,2.146,0,0,1,0-3.8l34.249-19.777A2.525,2.525,0,0,1,384.275,260.719Z" transform="translate(-346.579 -260.445)" fill="#37474f"/>
            <path id="XMLID_259_" d="M359.485,289.363a2.362,2.362,0,0,1-1.149-.279l-10.608-6.12a2.146,2.146,0,0,1,0-3.8l1.106-.633h10.651Z" transform="translate(-346.58 -259.113)" fill="#263238"/>
            <path id="XMLID_258_" d="M347.683,280.5l34.249-19.777a2.525,2.525,0,0,1,2.287,0l10.608,6.12a.7.7,0,0,1,0,1.321l-34.249,19.777a2.525,2.525,0,0,1-2.287,0l-10.608-6.12A.7.7,0,0,1,347.683,280.5Z" transform="translate(-346.534 -260.445)" fill="#455a64"/>
            <path id="XMLID_149_" d="M378.876,269.764l1.074-.623c.043-.021.043-.075-.011-.1l-1.245-.719a.165.165,0,0,0-.172,0l-1.074.623c-.043.021-.043.075.011.1l1.245.719A.237.237,0,0,0,378.876,269.764Zm-2.126-2.48-1.074.623c-.043.021-.043.075.011.1l1.245.719a.164.164,0,0,0,.172,0l1.074-.623c.043-.021.043-.075-.011-.1l-1.245-.719A.236.236,0,0,0,376.751,267.284Zm-3.489,2.018-1.825,1.052c-.043.021-.043.075.011.1l1.245.719a.165.165,0,0,0,.172,0l1.825-1.052c.043-.021.043-.075-.011-.1l-1.245-.719A.165.165,0,0,0,373.261,269.3Zm1.911-1.106-1.074.623c-.043.021-.043.075.011.1l1.245.719a.165.165,0,0,0,.172,0l1.074-.623c.043-.021.043-.075-.011-.1l-1.245-.719A.193.193,0,0,0,375.172,268.2Zm-4.23,2.437-1.074.623c-.043.021-.043.075.011.1l1.245.719a.165.165,0,0,0,.172,0l1.074-.623c.043-.021.043-.075-.011-.1l-1.245-.719A.237.237,0,0,0,370.942,270.634Zm-1.578.913-1.074.623c-.043.021-.043.075.011.1l1.245.719a.165.165,0,0,0,.172,0l1.074-.623c.043-.021.043-.075-.011-.1l-1.245-.719A.237.237,0,0,0,369.364,271.547Zm4.907,2.931,1.074-.623c.043-.021.043-.075-.011-.1l-1.245-.719a.164.164,0,0,0-.172,0l-1.074.623c-.043.021-.043.075.011.1l1.245.719A.237.237,0,0,0,374.271,274.478Zm-1.578.913,1.074-.623c.043-.021.043-.075-.011-.1l-1.245-.719a.165.165,0,0,0-.172,0l-1.074.623c-.043.021-.043.075.011.1l1.245.719A.237.237,0,0,0,372.692,275.39Zm-1.578.9,1.074-.623c.043-.021.043-.075-.011-.1l-1.245-.719a.165.165,0,0,0-.172,0l-1.074.623c-.043.021-.043.075.011.1l1.245.719A.165.165,0,0,0,371.114,276.292Zm-1.568.913,1.074-.623c.043-.021.043-.075-.011-.1l-1.245-.719a.165.165,0,0,0-.172,0l-1.074.623c-.043.021-.043.075.011.1l1.245.719A.193.193,0,0,0,369.546,277.2Zm7.752-6.539,1.074-.623c.043-.021.043-.075-.011-.1l-1.245-.719a.164.164,0,0,0-.172,0l-1.074.623c-.043.021-.043.075.011.1l1.245.719A.164.164,0,0,0,377.3,270.666Zm-1.449,2.9,2.4-1.385c.043-.021.043-.075-.011-.1l-3.028-1.75a.165.165,0,0,0-.172,0l-1.245.719c-.043.021-.043.075.011.1l1.6.923c.054.032.054.075.011.1l-1,.58c-.043.021-.043.075.011.1l1.245.719A.193.193,0,0,0,375.849,273.565Zm-8.063-1.106-1.074.623c-.043.021-.043.075.011.1l1.245.719a.164.164,0,0,0,.172,0l1.074-.623c.043-.021.043-.075-.011-.1l-1.245-.719A.193.193,0,0,0,367.786,272.459Zm-1.568.913-1.074.623c-.043.021-.043.075.011.1l1.245.719a.165.165,0,0,0,.172,0l1.074-.623c.043-.021.043-.075-.011-.1l-1.245-.719A.164.164,0,0,0,366.218,273.372Zm-7.881,10.2a.165.165,0,0,0,.172,0l1.074-.623c.043-.021.043-.075-.011-.1l-1.245-.719a.165.165,0,0,0-.172,0l-1.074.623c-.043.021-.043.075.011.1Zm-4.735-2.92-1.074.623c-.043.021-.043.075.011.1l1.245.719a.165.165,0,0,0,.172,0l1.074-.623c.043-.021.043-.075-.011-.1l-1.245-.719A.165.165,0,0,0,353.6,280.651Zm2.534,2.137a.164.164,0,0,0,.172,0l1.074-.623c.043-.021.043-.075-.011-.1l-1.245-.719a.165.165,0,0,0-.172,0l-1.074.623c-.043.021-.043.075.011.1Zm4.982,1.342,1.074-.623c.043-.021.043-.075-.011-.1l-1.245-.719a.165.165,0,0,0-.172,0l-1.074.623c-.043.021-.043.075.011.1l1.245.719A.237.237,0,0,0,361.118,284.13Zm-1.75.9a.165.165,0,0,0,.172,0l1.074-.623c.043-.021.043-.075-.011-.1l-1.245-.719a.165.165,0,0,0-.172,0l-1.074.623c-.043.021-.043.075.011.1Zm-4.187-5.293-1.074.623c-.043.021-.043.075.011.1l1.245.719a.164.164,0,0,0,.172,0l1.074-.623c.043-.021.043-.075-.011-.1l-1.245-.719A.237.237,0,0,0,355.181,279.738Zm7.881-4.552-1.074.623c-.043.021-.043.075.011.1l1.245.719a.165.165,0,0,0,.172,0L364.49,276c.043-.021.043-.075-.011-.1l-1.245-.719A.237.237,0,0,0,363.062,275.186Zm-6.3,3.64-1.074.623c-.043.021-.043.075.011.1l1.245.719a.165.165,0,0,0,.172,0l1.074-.623c.043-.021.043-.075-.011-.1l-1.245-.719A.237.237,0,0,0,356.759,278.826Zm7.881-4.552-1.074.623c-.043.021-.043.075.011.1l1.245.719a.165.165,0,0,0,.172,0l1.074-.623c.043-.021.043-.075-.011-.1l-1.245-.719A.237.237,0,0,0,364.64,274.274Zm-3.157,1.825-1.074.623c-.043.021-.043.075.011.1l1.245.719a.164.164,0,0,0,.172,0l1.074-.623c.043-.021.043-.075-.011-.1l-1.245-.719A.193.193,0,0,0,361.483,276.1Zm-1.578.913-1.074.623c-.043.021-.043.075.011.1l1.245.719a.165.165,0,0,0,.172,0l1.074-.623c.043-.021.043-.075-.011-.1l-1.245-.719A.164.164,0,0,0,359.905,277.011Zm-1.568.9-1.074.623c-.043.021-.043.075.011.1l1.245.719a.165.165,0,0,0,.172,0l1.074-.623c.043-.021.043-.075-.011-.1l-1.245-.719A.237.237,0,0,0,358.338,277.913Zm8.052,1.117,1.074-.623c.043-.021.043-.075-.011-.1l-1.245-.719a.165.165,0,0,0-.172,0l-1.074.623c-.043.021-.043.075.011.1l1.245.719A.237.237,0,0,0,366.39,279.03Zm13.839-13.753-1.074.623c-.043.021-.043.075.011.1l1.245.719a.164.164,0,0,0,.172,0l1.074-.623c.043-.021.043-.075-.011-.1l-1.245-.719A.164.164,0,0,0,380.229,265.276Zm-1.9,1.1-1.074.623c-.043.021-.043.075.011.1l1.245.719a.165.165,0,0,0,.172,0l1.074-.623c.043-.021.043-.075-.011-.1l-1.245-.719A.237.237,0,0,0,378.329,266.372Zm3.479-2.008-1.074.623c-.043.021-.043.075.011.1l1.245.719a.164.164,0,0,0,.172,0l1.074-.623c.043-.021.043-.075-.011-.1l-1.245-.719A.237.237,0,0,0,381.808,264.364Zm-8.16,8.417,1.074-.623c.043-.021.043-.075-.011-.1l-1.245-.719a.164.164,0,0,0-.172,0l-1.074.623c-.043.021-.043.075.011.1l1.245.719A.237.237,0,0,0,373.648,272.781Zm9.91-9.319a.165.165,0,0,0-.172,0l-1.074.623c-.043.021-.043.075.011.1l1.245.719a.165.165,0,0,0,.172,0l1.074-.623c.043-.021.043-.075-.011-.1Zm-15.589,14.655,1.074-.623c.043-.021.043-.075-.011-.1l-1.245-.719a.164.164,0,0,0-.172,0l-1.074.623c-.043.021-.043.075.011.1l1.245.719A.237.237,0,0,0,367.968,278.117Zm19.326-11.155,1.074-.623c.043-.021.043-.075-.011-.1l-1.245-.719a.164.164,0,0,0-.172,0l-1.074.623c-.043.021-.043.075.011.1l1.245.719A.237.237,0,0,0,387.294,266.962Zm-3.361-.129,1.074-.623c.043-.021.043-.075-.011-.1l-1.245-.719a.165.165,0,0,0-.172,0l-1.074.623c-.043.021-.043.075.011.1l1.245.719A.165.165,0,0,0,383.933,266.833Zm1.406-2.351a.165.165,0,0,0-.172,0l-1.074.623c-.043.021-.043.075.011.1l1.245.719a.165.165,0,0,0,.172,0l1.074-.623c.043-.021.043-.075-.011-.1Zm.333-.183,3.028,1.75a.164.164,0,0,0,.172,0l1.074-.623c.043-.021.043-.075-.011-.1l-3.028-1.75a.164.164,0,0,0-.172,0l-1.074.623C385.619,264.224,385.619,264.267,385.673,264.3Zm-3.661,2.008-1.074.623c-.043.021-.043.075.011.1l1.245.719a.164.164,0,0,0,.172,0l1.074-.623c.043-.021.043-.075-.011-.1l-1.245-.719A.165.165,0,0,0,382.012,266.307Zm-11.864,6.85-1.074.623c-.043.021-.043.075.011.1l1.245.719a.165.165,0,0,0,.172,0l1.074-.623c.043-.021.043-.075-.011-.1l-1.245-.719A.165.165,0,0,0,370.148,273.157Zm15.4-5.293a.165.165,0,0,0,.172,0l1.074-.623c.043-.021.043-.075-.011-.1l-1.245-.719a.165.165,0,0,0-.172,0l-1.074.623c-.043.021-.043.075.011.1Zm-13.818,4.38-1.074.623c-.043.021-.043.075.011.1l1.245.719a.165.165,0,0,0,.172,0l1.074-.623c.043-.021.043-.075-.011-.1l-1.245-.719A.165.165,0,0,0,371.726,272.244Zm-11.81,10.414a.165.165,0,0,0,.172,0l1.074-.623c.043-.021.043-.075-.011-.1l-1.245-.719a.164.164,0,0,0-.172,0l-1.074.623c-.043.021-.043.075.011.1Zm-2.373-2.222-1.074.623c-.043.021-.043.075.011.1l1.245.719a.165.165,0,0,0,.172,0l1.074-.623c.043-.021.043-.075-.011-.1l-1.245-.719A.164.164,0,0,0,357.543,280.436Zm4.123,1.321,1.074-.623c.043-.021.043-.075-.011-.1l-1.245-.719a.164.164,0,0,0-.172,0l-1.074.623c-.043.021-.043.075.011.1l1.245.719A.236.236,0,0,0,361.666,281.757Zm1.568-.913,1.074-.623c.043-.021.043-.075-.011-.1l-1.245-.719a.165.165,0,0,0-.172,0l-1.074.623c-.043.021-.043.075.011.1l1.245.719A.193.193,0,0,0,363.233,280.844Zm1.578-.913,1.074-.623c.043-.021.043-.075-.011-.1l-1.245-.719a.165.165,0,0,0-.172,0l-1.074.623c-.043.021-.043.075.011.1l1.245.719A.165.165,0,0,0,364.812,279.932Zm-5.69-.408-1.074.623c-.043.021-.043.075.011.1l1.245.719a.165.165,0,0,0,.172,0l1.074-.623c.043-.021.043-.075-.011-.1l-1.245-.719A.164.164,0,0,0,359.121,279.524Zm1.578-.913-1.074.623c-.043.021-.043.075.011.1l1.245.719a.164.164,0,0,0,.172,0l1.074-.623c.043-.021.043-.075-.011-.1l-1.245-.719A.237.237,0,0,0,360.7,278.611Zm6.3-3.64-1.074.623c-.043.021-.043.075.011.1l1.245.719a.164.164,0,0,0,.172,0l1.074-.623c.043-.021.043-.075-.011-.1l-1.245-.719A.237.237,0,0,0,367,274.971Zm-1.578.913-1.074.623c-.043.021-.043.075.011.1l1.245.719a.165.165,0,0,0,.172,0l1.074-.623c.043-.021.043-.075-.011-.1l-1.245-.719A.164.164,0,0,0,365.424,275.884Zm3.157-1.825-1.074.623c-.043.021-.043.075.011.1l1.245.719a.164.164,0,0,0,.172,0l1.074-.623c.043-.021.043-.075-.011-.1l-1.245-.719A.237.237,0,0,0,368.58,274.059Zm-6.313,3.64-1.074.623c-.043.021-.043.075.011.1l1.245.719a.165.165,0,0,0,.172,0l1.074-.623c.043-.021.043-.075-.011-.1l-1.245-.719A.237.237,0,0,0,362.267,277.7Zm1.578-.9-1.074.623c-.043.021-.043.075.011.1l1.245.719a.165.165,0,0,0,.172,0l1.074-.623c.043-.021.043-.075-.011-.1l-1.245-.719A.165.165,0,0,0,363.845,276.8Zm-1.149,6.42,1.074-.623c.043-.021.043-.075-.011-.1l-1.245-.719a.164.164,0,0,0-.172,0l-1.074.623c-.043.021-.043.075.011.1l1.245.719A.237.237,0,0,0,362.7,283.217Zm-9.244-.934-1.245-.719a.165.165,0,0,0-.172,0l-1.074.623c-.043.021-.043.075.011.1l1.245.719a.165.165,0,0,0,.172,0l1.074-.623C353.5,282.358,353.5,282.315,353.452,282.283Zm2.351.687-1.245-.719a.164.164,0,0,0-.172,0l-1.664.956c-.043.021-.043.075.011.1l1.245.719a.165.165,0,0,0,.172,0l1.664-.956C355.857,283.045,355.857,283,355.8,282.97Zm-4.273-2.083-1.245-.719a.164.164,0,0,0-.172,0l-1.331.762c-.043.021-.043.075.011.1l1.245.719a.164.164,0,0,0,.172,0l1.331-.762C351.584,280.962,351.584,280.919,351.531,280.887Zm1.02-.58a.165.165,0,0,0,.172,0l1.074-.623c.043-.021.043-.075-.011-.1l-1.245-.719a.164.164,0,0,0-.172,0l-1.074.623c-.043.021-.043.075.011.1ZM358,283.765l-1.245-.719a.165.165,0,0,0-.172,0l-2.072,1.2c-.043.021-.043.075.011.1l1.245.719a.164.164,0,0,0,.172,0l2.072-1.2C358.058,283.84,358.058,283.8,358,283.765Zm1.031,1.46-1.245-.719a.165.165,0,0,0-.172,0l-1.331.762c-.043.021-.043.075.011.1l1.245.719a.165.165,0,0,0,.172,0l1.331-.762C359.089,285.3,359.089,285.257,359.035,285.225Zm5.239-11.692a.165.165,0,0,0,.172,0l1.074-.623c.043-.021.043-.075-.011-.1l-1.245-.719a.165.165,0,0,0-.172,0l-1.074.623c-.043.021-.043.075.011.1Zm-3.157,1.825a.164.164,0,0,0,.172,0l1.074-.623c.043-.021.043-.075-.011-.1l-1.245-.719a.164.164,0,0,0-.172,0l-1.074.623c-.043.021-.043.075.011.1Zm-6.989,4.037a.164.164,0,0,0,.172,0l1.074-.623c.043-.021.043-.075-.011-.1l-1.245-.719a.164.164,0,0,0-.172,0l-1.074.623c-.043.021-.043.075.011.1Zm8.568-4.95a.165.165,0,0,0,.172,0l1.074-.623c.043-.021.043-.075-.011-.1l-1.245-.719a.165.165,0,0,0-.172,0l-1.074.623c-.043.021-.043.075.011.1Zm-3.157,1.825a.165.165,0,0,0,.172,0l1.074-.623c.043-.021.043-.075-.011-.1l-1.245-.719a.164.164,0,0,0-.172,0l-1.074.623c-.043.021-.043.075.011.1Zm.365,9.072a.164.164,0,0,0-.172,0l-1.664.956c-.043.021-.043.075.011.1l1.245.719a.165.165,0,0,0,.172,0l1.664-.956c.043-.021.043-.075-.011-.1Zm-2.63-7.773a.165.165,0,0,0,.172,0l1.074-.623c.043-.021.043-.075-.011-.1l-1.245-.719a.165.165,0,0,0-.172,0l-1.074.623c-.043.021-.043.075.011.1Zm-1.568.913a.165.165,0,0,0,.172,0l1.074-.623c.043-.021.043-.075-.011-.1l-1.245-.719a.165.165,0,0,0-.172,0l-1.074.623c-.043.021-.043.075.011.1Zm33.4-10a.165.165,0,0,0-.172,0l-2.652,1.535c-.043.021-.043.075.011.1l1.245.719a.165.165,0,0,0,.172,0l2.652-1.535c.043-.021.043-.075-.011-.1Zm-3.489,2.008a.165.165,0,0,0-.172,0l-1.074.623c-.043.021-.043.075.011.1l1.245.719a.165.165,0,0,0,.172,0l1.074-.623c.043-.021.043-.075-.011-.1ZM364.275,282.3l1.074-.623c.043-.021.043-.075-.011-.1l-1.245-.719a.165.165,0,0,0-.172,0l-1.074.623c-.043.021-.043.075.011.1l1.245.719A.193.193,0,0,0,364.275,282.3Zm18.2-10a.164.164,0,0,0-.172,0l-1.074.623c-.043.021-.043.075.011.1l1.245.719a.164.164,0,0,0,.172,0l1.074-.623c.043-.021.043-.075-.011-.1Zm8.213-4.735a.165.165,0,0,0-.172,0l-1.074.623c-.043.021-.043.075.011.1l1.245.719a.165.165,0,0,0,.172,0l1.074-.623c.043-.021.043-.075-.011-.1Zm2.824-.193-3.028-1.75a.165.165,0,0,0-.172,0l-1.074.623c-.043.021-.043.075.011.1l3.028,1.75a.165.165,0,0,0,.172,0l1.074-.623C393.553,267.456,393.553,267.413,393.51,267.381Zm-16.931,8.331a.164.164,0,0,0-.172,0l-1.331.762c-.043.021-.043.075.011.1l1.245.719a.164.164,0,0,0,.172,0l1.331-.762c.043-.021.043-.075-.011-.1Zm3.983-2.3a.165.165,0,0,0-.172,0l-1.664.956c-.043.021-.043.075.011.1l1.245.719a.164.164,0,0,0,.172,0l1.664-.956c.043-.021.043-.075-.011-.1Zm-7.634,4.4a.164.164,0,0,0-.172,0l-8.879,5.121c-.043.021-.043.075.011.1l1.245.719a.164.164,0,0,0,.172,0l8.879-5.121c.043-.021.043-.075-.011-.1Zm-9.373,5.411a.164.164,0,0,0-.172,0l-1.331.762c-.043.021-.043.075.011.1l1.245.719a.164.164,0,0,0,.172,0l1.331-.762c.043-.021.043-.075-.011-.1Zm11.2-6.463a.164.164,0,0,0-.172,0l-1.331.762c-.043.021-.043.075.011.1l1.245.719a.164.164,0,0,0,.172,0l1.331-.762c.043-.021.043-.075-.011-.1Zm-13.023,7.526a.164.164,0,0,0-.172,0l-1.331.762c-.043.021-.043.075.011.1l1.245.719a.164.164,0,0,0,.172,0l1.331-.762c.043-.021.043-.075-.011-.1ZM378.4,274.66a.164.164,0,0,0-.172,0l-1.331.762c-.043.021-.043.075.011.1l1.245.719a.164.164,0,0,0,.172,0l1.331-.762c.043-.021.043-.075-.011-.1Zm5.637-3.253a.164.164,0,0,0-.172,0l-1.074.623c-.043.021-.043.075.011.1l1.245.719a.164.164,0,0,0,.172,0l1.074-.623c.043-.021.043-.075-.011-.1Zm3.457-2.512,1.074-.623c.043-.021.043-.075-.011-.1l-1.245-.719a.164.164,0,0,0-.172,0l-1.074.623c-.043.021-.043.075.011.1l1.245.719A.193.193,0,0,0,387.5,268.895Zm-7.043-.043,1.074-.623c.043-.021.043-.075-.011-.1l-1.245-.719a.165.165,0,0,0-.172,0l-1.074.623c-.043.021-.043.075.011.1l1.245.719A.237.237,0,0,0,380.455,268.852Zm-3.575,6.173,3.157-1.825c.043-.021.043-.075-.011-.1l-1.245-.719a.164.164,0,0,0-.172,0l-3.157,1.825c-.043.021-.043.075.011.1l1.245.719A.193.193,0,0,0,376.879,275.025Zm8.868-5.229a.165.165,0,0,0,.172,0l1.074-.623c.043-.021.043-.075-.011-.1l-1.245-.719a.164.164,0,0,0-.172,0l-1.074.623c-.043.021-.043.075.011.1Zm-1.61-1.02,1.074-.623c.043-.021.043-.075-.011-.1l-1.245-.719a.165.165,0,0,0-.172,0l-1.074.623c-.043.021-.043.075.011.1l1.245.719A.237.237,0,0,0,384.137,268.777Zm-8.836,7.161,1.074-.623c.043-.021.043-.075-.011-.1l-1.245-.719a.164.164,0,0,0-.172,0l-1.074.623c-.043.021-.043.075.011.1l1.245.719A.237.237,0,0,0,375.3,275.938Zm6.968-4.123a.165.165,0,0,0,.172,0l1.074-.623c.043-.021.043-.075-.011-.1l-1.245-.719a.164.164,0,0,0-.172,0l-1.074.623c-.043.021-.043.075.011.1Zm-14.849,8.675,1.074-.623c.043-.021.043-.075-.011-.1l-1.245-.719a.165.165,0,0,0-.172,0l-1.074.623c-.043.021-.043.075.011.1l1.245.719A.237.237,0,0,0,367.421,280.49Zm1.578-.913,1.074-.623c.043-.021.043-.075-.011-.1l-1.245-.719a.164.164,0,0,0-.172,0l-1.074.623c-.043.021-.043.075.011.1l1.245.719A.237.237,0,0,0,369,279.577Zm-3.146,1.814,1.074-.623c.043-.021.043-.075-.011-.1l-1.245-.719a.165.165,0,0,0-.172,0l-1.074.623c-.043.021-.043.075.011.1l1.245.719A.165.165,0,0,0,365.853,281.392Zm6.3-3.64,1.074-.623c.043-.021.043-.075-.011-.1l-1.245-.719a.165.165,0,0,0-.172,0l-1.074.623c-.043.021-.043.075.011.1l1.245.719A.165.165,0,0,0,372.155,277.752Zm-1.578.913,1.074-.623c.043-.021.043-.075-.011-.1l-1.245-.719a.165.165,0,0,0-.172,0l-1.074.623c-.043.021-.043.075.011.1l1.245.719A.193.193,0,0,0,370.577,278.665Zm3.157-1.814,1.074-.623c.043-.021.043-.075-.011-.1l-1.245-.719a.165.165,0,0,0-.172,0l-1.074.623c-.043.021-.043.075.011.1l1.245.719A.237.237,0,0,0,373.734,276.85Zm7.2-13.464a.164.164,0,0,0,.172,0l1.074-.623c.043-.021.043-.075-.011-.1l-.333-.193a.165.165,0,0,0-.172,0l-1.074.623c-.043.021-.043.075.011.1Zm-7.752,5a.164.164,0,0,0,.172,0l1.074-.623c.043-.021.043-.075-.011-.1l-1.245-.719a.165.165,0,0,0-.172,0l-1.074.623c-.043.021-.043.075.011.1Zm3.146-1.825a.165.165,0,0,0,.172,0l1.074-.623c.043-.021.043-.075-.011-.1l-1.245-.719a.164.164,0,0,0-.172,0l-1.074.623c-.043.021-.043.075.011.1Zm-5.068,2.931a.165.165,0,0,0,.172,0l1.074-.623c.043-.021.043-.075-.011-.1l-1.245-.719a.165.165,0,0,0-.172,0l-1.074.623c-.043.021-.043.075.011.1Zm3.5-2.018a.165.165,0,0,0,.172,0l1.074-.623c.043-.021.043-.075-.011-.1l-1.245-.719a.165.165,0,0,0-.172,0l-1.074.623c-.043.021-.043.075.011.1Zm-6.657,3.844a.164.164,0,0,0,.172,0l1.074-.623c.043-.021.043-.075-.011-.1l-1.245-.719a.164.164,0,0,0-.172,0l-1.074.623c-.043.021-.043.075.011.1Zm1.578-.913a.164.164,0,0,0,.172,0l1.074-.623c.043-.021.043-.075-.011-.1l-1.245-.719a.165.165,0,0,0-.172,0l-1.074.623c-.043.021-.043.075.011.1Zm8.106-5.207a.165.165,0,0,0,.172,0l1.074-.623c.043-.021.043-.075-.011-.1l-.333-.193a.164.164,0,0,0-.172,0l-1.074.623c-.043.021-.043.075.011.1Zm4.724-2.727a.165.165,0,0,0,.172,0l1.074-.623c.043-.021.043-.075-.011-.1l-.333-.193a.164.164,0,0,0-.172,0l-1.074.623c-.043.021-.043.075.011.1Zm2.62,1.514a.165.165,0,0,0,.172,0l1.074-.623c.043-.021.043-.075-.011-.1l-1.245-.719a.165.165,0,0,0-.172,0l-1.074.623c-.043.021-.043.075.011.1Zm3.94,3.994,1.074-.623c.043-.021.043-.075-.011-.1l-1.245-.719a.165.165,0,0,0-.172,0l-1.074.623c-.043.021-.043.075.011.1l1.245.719A.165.165,0,0,0,389.076,267.982Zm-9.716-3.693a.165.165,0,0,0,.172,0l1.074-.623c.043-.021.043-.075-.011-.1l-.333-.193a.165.165,0,0,0-.172,0l-1.074.623c-.043.021-.043.075.011.1Zm-12.83,7.945a.165.165,0,0,0,.172,0l1.074-.623c.043-.021.043-.075-.011-.1l-1.245-.719a.165.165,0,0,0-.172,0l-1.074.623c-.043.021-.043.075.011.1Z" transform="translate(-346.42 -260.364)" fill="#46a62b"/>
          </g>
          <g id="Computer_1_">
            <g id="XMLID_145_" transform="translate(19.378 46.787)">
              <path id="XMLID_148_" d="M365.906,263.507l-12.884,7.44-.064-.032-4.864-2.813a2.643,2.643,0,0,1-1.192-2.6l1.825-9.448,10.736-8.686,2.147,1.245-1.814,9.448a2.635,2.635,0,0,0,1.181,2.6Z" transform="translate(-344.442 -247.37)" fill="#455a64"/>
              <path id="XMLID_147_" d="M353.189,270.436v2.48l-6.732-3.887a3.959,3.959,0,0,1-1.793-3.919l2.072-10.8,2.158,1.235-1.825,9.448a2.643,2.643,0,0,0,1.192,2.6l4.864,2.813Z" transform="translate(-344.608 -246.859)" fill="#263238"/>
              <path id="XMLID_146_" d="M365.484,262.4,352.6,269.84v2.48l12.884-7.44Z" transform="translate(-344.02 -246.263)" fill="#37474f"/>
            </g>
            <g id="XMLID_140_">
              <path id="XMLID_144_" d="M379.233,204.037a2.466,2.466,0,0,1,1.074,1.943v39.553a2.538,2.538,0,0,1-1.149,1.986l-49.3,28.462a2.151,2.151,0,0,1-3.3-1.9V234.528a2.538,2.538,0,0,1,1.149-1.986l49.3-28.462A2.459,2.459,0,0,1,379.233,204.037Z" transform="translate(-326.56 -203.792)" fill="#455a64"/>
              <path id="XMLID_143_" d="M329.866,273.951a2.151,2.151,0,0,1-3.3-1.9V232.5a2.353,2.353,0,0,1,.333-1.127l38.351,22.149Z" transform="translate(-326.559 -201.761)" fill="#263238"/>
              <path id="XMLID_142_" d="M380.159,245.439V205.886c0-.73-.515-1.031-1.149-.666l-49.291,28.462a2.538,2.538,0,0,0-1.149,1.986v39.553c0,.73.515,1.031,1.149.666l49.3-28.462A2.555,2.555,0,0,0,380.159,245.439Z" transform="translate(-326.412 -203.698)" fill="#37474f"/>
              <path id="XMLID_141_" d="M377.282,207.279l-46.79,27a2.016,2.016,0,0,0-.913,1.589v35.108c0,.58.408.827.913.526l46.79-27a2.016,2.016,0,0,0,.913-1.589V207.794C378.195,207.225,377.787,206.989,377.282,207.279Z" transform="translate(-326.338 -203.544)" fill="#fff"/>
            </g>
          </g>
        </g>
        <g id="Box_1_" transform="translate(37.073 82.768)">
          <path id="XMLID_139_" d="M315.079,329.955l-27.754-16.008a3.067,3.067,0,0,1-1.4-2.416V294.611a3.067,3.067,0,0,1,1.4-2.416l19.025-10.973a3.115,3.115,0,0,1,2.791,0l27.732,16.008a3.067,3.067,0,0,1,1.4,2.416l.011,16.921a3.067,3.067,0,0,1-1.4,2.416l-19.014,10.973A3.115,3.115,0,0,1,315.079,329.955Z" transform="translate(-285.93 -280.882)" fill="#263238"/>
          <path id="XMLID_138_" d="M317.805,309.815l19-10.983a.849.849,0,0,0,0-1.61l-27.732-16.008a3.115,3.115,0,0,0-2.791,0L287.26,292.185a.849.849,0,0,0,0,1.61L315,309.815A3.138,3.138,0,0,0,317.805,309.815Z" transform="translate(-285.875 -280.882)" fill="#455a64"/>
          <path id="XMLID_137_" d="M316.475,309.353v20.142a2.945,2.945,0,0,1-1.4-.333l-27.743-16.008a3.083,3.083,0,0,1-1.4-2.416l-.011-16.931a3.112,3.112,0,0,1,1.063-2.137c-.386.429-.29.977.333,1.331L315.08,309.02A2.915,2.915,0,0,0,316.475,309.353Z" transform="translate(-285.93 -280.088)" fill="#37474f"/>
          <g id="XMLID_125_" transform="translate(7.98 4.119)">
            <path id="XMLID_136_" d="M293.725,292.375a2.014,2.014,0,0,1,1.836.011l19.948,11.52c.515.3.526.773.032,1.063a2.014,2.014,0,0,1-1.836-.011l-19.948-11.52C293.242,293.148,293.231,292.675,293.725,292.375Z" transform="translate(-293.362 -284.171)" fill="#37474f"/>
            <path id="XMLID_135_" d="M293.725,292.375a2.014,2.014,0,0,1,1.836.011L307.7,299.4l-1.8,1.063-12.143-7.011C293.242,293.148,293.231,292.675,293.725,292.375Z" transform="translate(-293.362 -284.171)" fill="#46a62b"/>
            <path id="XMLID_134_" d="M296.945,290.515a2.014,2.014,0,0,1,1.836.011l19.948,11.52c.515.3.526.773.032,1.063a2.014,2.014,0,0,1-1.836-.011l-19.948-11.52C296.462,291.288,296.451,290.815,296.945,290.515Z" transform="translate(-293.125 -284.308)" fill="#37474f"/>
            <path id="XMLID_133_" d="M296.945,290.515a2.046,2.046,0,0,1,1.836,0l1.632.934-1.8,1.063-1.621-.934C296.462,291.288,296.451,290.816,296.945,290.515Z" transform="translate(-293.125 -284.308)" fill="#46a62b"/>
            <path id="XMLID_132_" d="M300.175,288.655a2.014,2.014,0,0,1,1.836.011l19.948,11.52c.515.3.526.773.032,1.063a2.014,2.014,0,0,1-1.836-.011l-19.948-11.52C299.682,289.428,299.671,288.955,300.175,288.655Z" transform="translate(-292.888 -284.445)" fill="#37474f"/>
            <path id="XMLID_131_" d="M300.175,288.655a2.014,2.014,0,0,1,1.836.011l7.054,4.069-1.8,1.063-7.054-4.069C299.682,289.428,299.671,288.955,300.175,288.655Z" transform="translate(-292.888 -284.445)" fill="#46a62b"/>
            <g id="XMLID_126_" transform="translate(10.378)">
              <path id="XMLID_130_" d="M303.4,286.795a2.014,2.014,0,0,1,1.836.011l19.948,11.52c.515.3.526.773.032,1.063a2.014,2.014,0,0,1-1.836-.011l-19.948-11.52C302.912,287.568,302.891,287.1,303.4,286.795Z" transform="translate(-303.029 -284.582)" fill="#37474f"/>
              <path id="XMLID_129_" d="M303.4,286.795a2.014,2.014,0,0,1,1.836.011l14.29,8.246-1.8,1.063-14.28-8.246C302.912,287.568,302.89,287.1,303.4,286.795Z" transform="translate(-303.028 -284.582)" fill="#46a62b"/>
              <path id="XMLID_128_" d="M306.615,284.935a2.014,2.014,0,0,1,1.836.011l19.948,11.52c.515.3.526.773.032,1.063a2.014,2.014,0,0,1-1.836-.011L306.647,286C306.132,285.708,306.121,285.225,306.615,284.935Z" transform="translate(-302.791 -284.719)" fill="#37474f"/>
              <path id="XMLID_127_" d="M306.615,284.935a2.014,2.014,0,0,1,1.836.011l17.962,10.371-1.8,1.063-17.962-10.371C306.132,285.708,306.121,285.225,306.615,284.935Z" transform="translate(-302.791 -284.719)" fill="#46a62b"/>
            </g>
          </g>
          <g id="XMLID_118_" transform="translate(32.714 35.805)">
            <g id="XMLID_122_" transform="translate(0 1.976)">
              <path id="XMLID_124_" d="M316.4,321.857v-3.425a2.783,2.783,0,0,1,1.1-2.244c.6-.344,1.1.1,1.1.977v3.425a2.783,2.783,0,0,1-1.1,2.244C316.894,323.177,316.4,322.737,316.4,321.857Z" transform="translate(-316.4 -316.071)" fill="#37474f"/>
              <path id="XMLID_123_" d="M317.519,316.667a1.6,1.6,0,0,0-.719,1.256c0,.462.322.644.719.419a1.6,1.6,0,0,0,.719-1.256C318.239,316.624,317.917,316.431,317.519,316.667Z" transform="translate(-316.371 -316.035)" fill="#27debf"/>
            </g>
            <g id="XMLID_119_" transform="translate(3.446)">
              <path id="XMLID_121_" d="M319.61,320.017v-3.425a2.783,2.783,0,0,1,1.1-2.244c.6-.344,1.1.1,1.1.977v3.425a2.784,2.784,0,0,1-1.1,2.244C320.093,321.337,319.61,320.9,319.61,320.017Z" transform="translate(-319.61 -314.231)" fill="#37474f"/>
              <path id="XMLID_120_" d="M320.669,318.507a1.6,1.6,0,0,0-.719,1.256c0,.462.322.644.719.419a1.6,1.6,0,0,0,.719-1.256C321.4,318.453,321.067,318.271,320.669,318.507Z" transform="translate(-319.585 -313.924)" fill="#27debf"/>
            </g>
          </g>
        </g>
      </g>
    </g>
    <g id="Character" transform="translate(358.089 264.785)">
      <g id="XMLID_1317_">
        <g id="Legs" transform="translate(0 73.533)">
          <g id="XMLID_1365_" transform="translate(17.855)">
            <g id="XMLID_1370_" transform="translate(0 39.472)">
              <path id="XMLID_1389_" d="M381.44,359.372c.408.537.483,1.793.9,3.489a4.98,4.98,0,0,1-4.048,7.215c-2.233.687-4.982.107-7.634-1.482s-4.66-3.522-8.45-4.6-5.68-1.954-7.473-3.393c-2.094-1.686-3.446-4.209.558-5.282,4.048-1.084,11.295.59,19.24.934Z" transform="translate(-352.721 -354.964)" fill="#263238"/>
            </g>
            <g id="XMLID_1368_" transform="translate(20.012 38.92)">
              <path id="XMLID_1369_" d="M380.067,354.45V360.4s-.816,1.976-4.209,2.1a5.112,5.112,0,0,1-4.5-2.158V354.45Z" transform="translate(-371.36 -354.45)" fill="#ffa8a7"/>
            </g>
            <g id="XMLID_1366_" transform="translate(17.359)">
              <path id="XMLID_1367_" d="M368.89,318.2c-.043,7.4,2.083,41.518,2.083,41.518s3.028,3.833,9.6,0L382.8,321.85Z" transform="translate(-368.889 -318.2)" fill="#37474f"/>
            </g>
          </g>
          <g id="XMLID_1353_" transform="translate(0 11.638)">
            <g id="XMLID_1356_" transform="translate(0 39.461)">
              <path id="XMLID_28704_" d="M364.81,370.2c.408.537.483,1.793.9,3.489a4.98,4.98,0,0,1-4.048,7.215c-2.233.687-4.982.107-7.634-1.482s-4.66-3.522-8.45-4.6-5.68-1.954-7.473-3.393c-2.094-1.686-3.446-4.209.558-5.282,4.048-1.084,11.295.59,19.24.934Z" transform="translate(-336.091 -365.794)" fill="#263238"/>
            </g>
            <g id="XMLID_1355_" transform="translate(20.012 38.909)">
              <path id="XMLID_28702_" d="M363.437,365.28v5.948s-.816,1.975-4.209,2.1a5.112,5.112,0,0,1-4.5-2.158V365.28Z" transform="translate(-354.73 -365.28)" fill="#ffa8a7"/>
            </g>
            <g id="XMLID_1354_" transform="translate(17.359)">
              <path id="XMLID_28700_" d="M352.26,329.04c-.043,7.4,2.083,41.518,2.083,41.518s3.028,3.833,9.6,0l2.233-37.868Z" transform="translate(-352.259 -329.04)" fill="#37474f"/>
            </g>
          </g>
        </g>
        <g id="Chair" transform="translate(27.774 73.67)">
          <g id="XMLID_42935_">
            <g id="XMLID_42937_">
              <g id="XMLID_42942_" transform="translate(10.285 20.874)">
                <g id="XMLID_42944_" transform="translate(0 27.646)">
                  <g id="XMLID_42975_" transform="translate(0 25.961)">
                    <path id="XMLID_42977_" d="M373.69,394.845a3.913,3.913,0,0,0,.086.827,1.892,1.892,0,0,0,.752,1.16l.021.021a2.181,2.181,0,0,0,2.308-.183,7,7,0,0,0,3.167-5.486,2.238,2.238,0,0,0-.891-2.008l.011-.011-.15-.086h-.011a1.984,1.984,0,0,0-1.353-.054,3.425,3.425,0,0,0-.773.344A6.981,6.981,0,0,0,373.69,394.845Z" transform="translate(-371.382 -387.609)" fill="#455a64"/>
                    <path id="XMLID_42976_" d="M374.718,388.129a2.854,2.854,0,0,1,1.406-.429,1.658,1.658,0,0,1,.891.247l.075.043,2.04,1.181a1.984,1.984,0,0,0-1.353-.054,3.427,3.427,0,0,0-.773.344,7,7,0,0,0-3.167,5.486,3.911,3.911,0,0,0,.086.827,1.893,1.893,0,0,0,.752,1.159l-2.094-1.213-.032-.021-.183-.107c-.021-.011-.032-.021-.054-.032a2.318,2.318,0,0,1-.773-1.943A7.041,7.041,0,0,1,374.718,388.129Z" transform="translate(-371.54 -387.7)" fill="#263238"/>
                  </g>
                  <g id="XMLID_42972_" transform="translate(34.292 7.516)">
                    <path id="XMLID_42974_" d="M405.63,377.675a3.913,3.913,0,0,0,.086.827,1.893,1.893,0,0,0,.752,1.16l.021.021a2.181,2.181,0,0,0,2.308-.183,7,7,0,0,0,3.167-5.486,2.238,2.238,0,0,0-.891-2.008l.011-.011-.15-.086h-.011a1.984,1.984,0,0,0-1.353-.054,3.425,3.425,0,0,0-.773.344A6.965,6.965,0,0,0,405.63,377.675Z" transform="translate(-403.322 -370.428)" fill="#455a64"/>
                    <path id="XMLID_42973_" d="M406.658,370.949a2.854,2.854,0,0,1,1.406-.429,1.658,1.658,0,0,1,.891.247l.075.043,2.04,1.181a1.984,1.984,0,0,0-1.353-.054,3.427,3.427,0,0,0-.773.344,7,7,0,0,0-3.167,5.486,3.911,3.911,0,0,0,.086.827,1.892,1.892,0,0,0,.752,1.159l-2.094-1.213-.032-.021-.183-.107c-.021-.011-.032-.021-.054-.032a2.318,2.318,0,0,1-.773-1.943A7.012,7.012,0,0,1,406.658,370.949Z" transform="translate(-403.48 -370.52)" fill="#263238"/>
                  </g>
                  <g id="XMLID_42969_" transform="translate(24.146 33.154)">
                    <path id="XMLID_42971_" d="M400.365,401.555a3.913,3.913,0,0,1-.086.827,1.893,1.893,0,0,1-.752,1.16l-.021.021a2.181,2.181,0,0,1-2.308-.183,7,7,0,0,1-3.167-5.486,2.238,2.238,0,0,1,.891-2.008l-.011-.011.15-.086h.011a1.984,1.984,0,0,1,1.353-.054,3.425,3.425,0,0,1,.773.344A6.965,6.965,0,0,1,400.365,401.555Z" transform="translate(-394.03 -394.308)" fill="#455a64"/>
                    <path id="XMLID_42970_" d="M399.433,394.829a2.854,2.854,0,0,0-1.406-.429,1.658,1.658,0,0,0-.891.247l-.075.043-2.04,1.181a1.984,1.984,0,0,1,1.353-.054,3.425,3.425,0,0,1,.773.344,7,7,0,0,1,3.167,5.486,3.913,3.913,0,0,1-.086.827,1.893,1.893,0,0,1-.752,1.16l2.094-1.213.032-.021.183-.107c.021-.011.032-.021.054-.032a2.318,2.318,0,0,0,.773-1.943A7.041,7.041,0,0,0,399.433,394.829Z" transform="translate(-393.957 -394.4)" fill="#263238"/>
                  </g>
                  <g id="XMLID_42966_" transform="translate(46.414 22.257)">
                    <path id="XMLID_42968_" d="M421.1,391.4a3.913,3.913,0,0,1-.086.827,1.893,1.893,0,0,1-.752,1.16l-.021.021a2.181,2.181,0,0,1-2.308-.183,7,7,0,0,1-3.167-5.486,2.238,2.238,0,0,1,.891-2.008l-.011-.011.15-.086h.011a1.984,1.984,0,0,1,1.353-.054,3.425,3.425,0,0,1,.773.344A7.01,7.01,0,0,1,421.1,391.4Z" transform="translate(-414.77 -384.159)" fill="#455a64"/>
                    <path id="XMLID_42967_" d="M420.163,384.679a2.854,2.854,0,0,0-1.406-.429,1.658,1.658,0,0,0-.891.247l-.075.043-2.04,1.181a1.984,1.984,0,0,1,1.353-.054,3.425,3.425,0,0,1,.773.344,7,7,0,0,1,3.167,5.486,3.91,3.91,0,0,1-.086.827,1.892,1.892,0,0,1-.752,1.16l2.094-1.213.032-.021.183-.107c.021-.011.032-.021.054-.032a2.318,2.318,0,0,0,.773-1.943A7.041,7.041,0,0,0,420.163,384.679Z" transform="translate(-414.698 -384.25)" fill="#263238"/>
                  </g>
                  <g id="XMLID_42963_" transform="translate(3.382 8.879)">
                    <path id="XMLID_42965_" d="M381.025,378.945a3.913,3.913,0,0,1-.086.827,1.893,1.893,0,0,1-.752,1.16l-.021.021a2.181,2.181,0,0,1-2.308-.183,7,7,0,0,1-3.167-5.486,2.238,2.238,0,0,1,.891-2.008l-.011-.011.15-.086h.011a1.984,1.984,0,0,1,1.353-.054,3.425,3.425,0,0,1,.773.344A6.965,6.965,0,0,1,381.025,378.945Z" transform="translate(-374.69 -371.698)" fill="#455a64"/>
                    <path id="XMLID_42964_" d="M380.083,372.219a2.854,2.854,0,0,0-1.406-.429,1.658,1.658,0,0,0-.891.247l-.075.043-2.04,1.181a1.984,1.984,0,0,1,1.353-.054,3.425,3.425,0,0,1,.773.344,7,7,0,0,1,3.167,5.486,3.911,3.911,0,0,1-.086.827,1.893,1.893,0,0,1-.752,1.16l2.094-1.213.032-.021.183-.107c.021-.011.032-.021.054-.032a2.318,2.318,0,0,0,.773-1.943A7.012,7.012,0,0,0,380.083,372.219Z" transform="translate(-374.618 -371.79)" fill="#263238"/>
                  </g>
                  <g id="XMLID_42960_" transform="translate(27.518 5.637)">
                    <path id="XMLID_42962_" d="M398.21,372.522l11.327-3.242V371.7l-11.327,6.528Z" transform="translate(-397.093 -368.732)" fill="#f5f5f5"/>
                    <path id="XMLID_42961_" d="M398.287,372.56l-1.117-.687,11.359-3.1,1.084.548Z" transform="translate(-397.17 -368.77)" fill="#fafafa"/>
                  </g>
                  <g id="XMLID_42957_" transform="translate(7.698 7.87)">
                    <path id="XMLID_42959_" d="M394.75,379.6l-16.04-6.012V371.14l16.04,1.428Z" transform="translate(-378.71 -370.829)" fill="#f5f5f5"/>
                    <path id="XMLID_42958_" d="M378.71,371.161l1.181-.311,15.815,1.02-.956.719Z" transform="translate(-378.71 -370.85)" fill="#fafafa"/>
                  </g>
                  <path id="XMLID_42956_" d="M393.25,379.388c0,1.814,5.583,1.814,5.583,0V363.52H393.25Z" transform="translate(-369.941 -363.52)" fill="#fafafa"/>
                  <g id="XMLID_42952_" transform="translate(25.596 11.735)">
                    <path id="XMLID_42955_" d="M397.28,374.45l3.071,19.927h-2.094L395.39,374.45A3.416,3.416,0,0,0,397.28,374.45Z" transform="translate(-395.379 -374.45)" fill="#fafafa"/>
                    <path id="XMLID_42954_" d="M395.38,374.45v5.476l2.867,17.823v-3.371Z" transform="translate(-395.38 -374.45)" fill="#f5f5f5"/>
                    <rect id="XMLID_42953_" width="2.094" height="3.371" transform="translate(2.867 19.927)" fill="#ebebeb"/>
                  </g>
                  <g id="XMLID_42948_" transform="translate(2.652 11.155)">
                    <path id="XMLID_42951_" d="M395.909,379.763,375.22,390.607v-3.339l20.689-12.8Z" transform="translate(-373.921 -373.869)" fill="#f5f5f5"/>
                    <path id="XMLID_42950_" d="M396,374.511a2.332,2.332,0,0,1-1.331-.6L374.01,386.439l1.288.87Z" transform="translate(-374.01 -373.91)" fill="#fafafa"/>
                    <path id="XMLID_42949_" d="M375.308,389.789V386.45l-1.288-.87v3.232Z" transform="translate(-374.009 -373.051)" fill="#ebebeb"/>
                  </g>
                  <path id="XMLID_42947_" d="M420.306,386.789,398.2,379.22v-4.96l22.106,9.19Z" transform="translate(-369.577 -362.729)" fill="#f5f5f5"/>
                  <path id="XMLID_42946_" d="M398.2,374.319c.183-.054.258-.365.268-.859l22.482,9.781-.655.268Z" transform="translate(-369.577 -362.788)" fill="#fafafa"/>
                  <path id="XMLID_42945_" d="M419.434,382.57V385.8l-.644.376v-3.339Z" transform="translate(-368.06 -362.117)" fill="#ebebeb"/>
                </g>
                <path id="XMLID_42943_" d="M400.9,337.77H391.45v32.725c0,2.716,9.448,2.716,9.448,0Z" transform="translate(-370.074 -337.77)" fill="#f0f0f0"/>
              </g>
              <g id="XMLID_42938_">
                <path id="XMLID_42941_" d="M361.96,342.144h0a4.734,4.734,0,0,1,2.362-4.091l33.068-19.089a4.7,4.7,0,0,1,4.724,0l33.058,19.089a4.734,4.734,0,0,1,2.362,4.091h0L399.752,363.96Z" transform="translate(-361.96 -318.327)" fill="#46a62b"/>
                <path id="XMLID_42940_" d="M361.96,340.51v2.727L397.412,363.7a4.69,4.69,0,0,0,4.67,0l35.452-20.464V340.51l-35.452,20.464a4.621,4.621,0,0,1-4.67,0Z" transform="translate(-361.96 -316.694)" fill="#fafafa"/>
                <path id="XMLID_42939_" d="M361.96,340.51v2.727L397.412,363.7a4.623,4.623,0,0,0,2.33.623V361.6a4.635,4.635,0,0,1-2.33-.633Z" transform="translate(-361.96 -316.694)" fill="#f5f5f5"/>
              </g>
            </g>
            <path id="XMLID_42936_" d="M361.96,340.654a4.712,4.712,0,0,1,.5-2.1l35.72,20.625a3.1,3.1,0,0,0,3.114,0l35.731-20.614a4.667,4.667,0,0,1,.5,2.094l-37.782,21.816L361.96,340.654Z" transform="translate(-361.96 -316.838)" opacity="0.1"/>
          </g>
        </g>
        <g id="Character_2_" transform="translate(4.957)">
          <g id="XMLID_1371_" transform="translate(12.384)">
            <g id="XMLID_1387_" transform="translate(15.209 68.915)">
              <path id="XMLID_1388_" d="M425.761,327.578s-30.674-9.255-36-10.715-15.557-3.919-18.553-2.577-4.509,2.888-4.778,7.2c-.054.805,0,4.756,0,4.756s14.827,4.584,26.97,4.584S425.761,327.578,425.761,327.578Z" transform="translate(-366.408 -313.899)" fill="#263238"/>
            </g>
            <g id="XMLID_1385_" transform="translate(48.344 27.592)">
              <path id="XMLID_1386_" d="M397.27,278.287l2.04,11,11.273,1.3-1.621-15.181Z" transform="translate(-397.27 -275.41)" fill="#ffa8a7"/>
            </g>
            <g id="XMLID_14575_" transform="translate(35.186)">
              <g id="XMLID_1383_" transform="translate(1.521 21.697)">
                <path id="XMLID_1384_" d="M387.547,269.92s-1.482,4.531-1.031,4.81a7.94,7.94,0,0,0,2.469.14Z" transform="translate(-386.43 -269.92)" fill="#f28f8f"/>
              </g>
              <g id="XMLID_1381_" transform="translate(2.374 3.57)">
                <path id="XMLID_1382_" d="M390.4,256.626c-1.943,2.04-3.79,5.465-2.974,14.129.891,9.491,3.726,12.025,4.928,12.583,1.782.837,7.87-.623,9.845-2.083,2.469-1.825,7.129-6.367,8.342-11.96,1.428-6.581-.4-14.054-5.207-15.568C398.557,251.6,392.04,254.9,390.4,256.626Z" transform="translate(-387.226 -253.036)" fill="#ffa8a7"/>
              </g>
              <g id="XMLID_14583_">
                <path id="XMLID_1380_" d="M386.126,261.542c1.149,2.18,3.328,7.58,9.5,9.115,0,0,.344-3.683,3.393-3.726,3.071-.032,4.1,3.726,2.577,6.356s-3.425,2.018-3.425,2.018.311,5.175,4.048,7.022c0,0,4.488,2.04,8.578-.569,1.847-1.181,3.973-6.27,5.068-10.361,2.33-8.654,1.911-15.289-3.6-16.631-1.16-3.629-3.017-4.8-6.485-5.025-7.451-.494-12.272,5.025-18.467,5.025C384.1,254.778,384.806,259.051,386.126,261.542Z" transform="translate(-385.014 -249.711)" fill="#263238"/>
              </g>
              <g id="XMLID_1378_" transform="translate(26.968 2.851)">
                <path id="XMLID_1379_" d="M410.3,255.194l3.736-1.6a2.032,2.032,0,0,0-3.736,1.6Z" transform="translate(-410.133 -252.367)" fill="#263238"/>
              </g>
            </g>
            <g id="XMLID_1376_" transform="translate(0 76.821)">
              <path id="XMLID_1377_" d="M426.729,323.353c-.011,5.894.558,12.025-1.9,16.341-2.373,4.177-13.582,13.206-26.122,11.091-8.192-1.374-34.647-11.467-34.647-11.467s-11.714-4.327-11.767-7.408c-.011-.752-.086-1.535-.032-2.351.247-4.1,1.9-8.514,10.479-8.289,9.362.247,37.137,4.8,37.137,4.8Z" transform="translate(-352.242 -321.262)" fill="#37474f"/>
            </g>
            <g id="XMLID_1374_" transform="translate(38.112 35.027)">
              <path id="XMLID_1375_" d="M421.936,288.138c-1.009-3.081-4.917-6.431-8.825-5.7-7.172,1.331-15.031,3.661-17.114,4.273h0s.934,15.815-7.183,20.6l-1.074,20.142s2.008,4.015,5.111,5.98c3.35,2.137,8.02,5.325,16.448,4.627a20.734,20.734,0,0,0,14.891-8.149s-.086-19.025-.408-27.55C423.5,295.127,422.634,290.253,421.936,288.138Z" transform="translate(-387.74 -282.336)" fill="#455a64"/>
            </g>
            <g id="XMLID_1372_" transform="translate(38.896 54.401)">
              <path id="XMLID_1373_" d="M388.556,309.882s4.241-4.4,5.733-9.5c0,0,0,7.473-5.819,11.5Z" transform="translate(-388.47 -300.38)" fill="#37474f"/>
            </g>
          </g>
          <g id="XMLID_1357_" transform="translate(28.529 39.402)">
            <g id="XMLID_1362_">
              <path id="XMLID_1363_" d="M397.5,286.41c-4.434,1.331-7.129,1.568-12.025,9.1s-15.622,22.471-16.674,24.264c-1.482,2.5-2.115,5.465-.837,7.762,1.192,2.137,4.66,1.2,9.512-3.06,4.692-4.123,14-15.783,14-15.783A80.3,80.3,0,0,0,397.5,286.41Z" transform="translate(-367.28 -286.41)" fill="#ffa8a7"/>
            </g>
            <g id="XMLID_1358_" transform="translate(10.639)">
              <path id="XMLID_1359_" d="M396.773,286.41a33.706,33.706,0,0,0-6.4,2.029,10.215,10.215,0,0,0-4.842,3.973c-3.425,5.69-8.321,13.786-8.321,13.786s-.837,7.054,7.73,9.513l4.552-4.917a25.7,25.7,0,0,0,4.542-6.764C395.968,299.8,398.169,293.067,396.773,286.41Z" transform="translate(-377.189 -286.41)" fill="#455a64"/>
            </g>
          </g>
          <path id="XMLID_1361_" d="M371.416,328.353c-4.1-.494-13.281-13.077-16.341-17.082s-5.626-6.377-8.385-7.891-5.153-3.908-5.905-8.729c-.7-4.488,3.479-7.354,6.9-2.834,2.169,2.867,4.359,4.67,4.477,4.2s-.676-2.469-.655-4.552c.021-2.5,1.772-.859,2.3.021a29.914,29.914,0,0,1,1.847,4.134c.87,2.233.515,4.5,1.578,6.034s15.342,15.2,15.342,15.2Z" transform="translate(-340.708 -246.778)" fill="#ffa8a7"/>
        </g>
        <g id="XMLID_42855_" transform="translate(68.605 41.243)">
          <path id="XMLID_42863_" d="M436.349,289.7v42.227L402.83,351.349V309.144Z" transform="translate(-399.781 -288.008)" fill="#27debf"/>
          <path id="XMLID_1352_" d="M436.349,289.7v42.227L402.83,351.349V309.144l11.634-6.749Z" transform="translate(-399.781 -288.008)" fill="#46a62b" opacity="0.82"/>
          <path id="XMLID_42862_" d="M399.99,349.7l3.049,1.761v-38.7c0-1.836.558-2.749,1.288-3.146,2.555-1.578,5.937,1.772,5.937,1.772l.011-2.813,32.381-18.757c-3.049-1.761-5.046-2.91-11.2.58s-24.189,13.925-27.045,15.686c-2.287,1.406-4.423,3.06-4.423,6.893C399.99,319.6,399.99,349.7,399.99,349.7Z" transform="translate(-399.99 -288.124)" fill="#46a62b"/>
          <path id="XMLID_42861_" d="M404.11,306.071c2.813-1.825,20.9-12.2,27.045-15.686s8.149-2.33,11.2-.58l-32.381,18.757A8.186,8.186,0,0,0,404.11,306.071Z" transform="translate(-399.687 -288.124)" fill="#46a62b"/>
          <path id="XMLID_42860_" d="M409.55,311.259l32.4-18.821V289.7l-32.392,18.746Z" transform="translate(-399.286 -288.008)" fill="#27debf"/>
          <path id="XMLID_1364_" d="M409.55,311.259l32.4-18.821V289.7l-32.392,18.746Z" transform="translate(-399.286 -288.008)" opacity="0.2"/>
          <g id="XMLID_42858_" transform="translate(6.055 50.177)">
            <path id="XMLID_42859_" d="M410.333,361.454a2.949,2.949,0,0,0,2.942-2.942V336.363a1.5,1.5,0,0,0-3.006,0v22.031l-2.383-1.374a1.5,1.5,0,0,0-1.5,2.6l2.491,1.439A2.846,2.846,0,0,0,410.333,361.454Z" transform="translate(-405.63 -334.86)" fill="#e6e6e6"/>
          </g>
          <g id="XMLID_42856_" transform="translate(24.382 39.505)">
            <path id="XMLID_42857_" d="M427.4,351.514a2.949,2.949,0,0,0,2.942-2.942V326.423a1.5,1.5,0,0,0-3.006,0v22.031l-2.383-1.374a1.5,1.5,0,1,0-1.5,2.6l2.491,1.439A2.954,2.954,0,0,0,427.4,351.514Z" transform="translate(-422.7 -324.92)" fill="#e6e6e6"/>
          </g>
        </g>
      </g>
    </g>
  </g>
</svg>
