<svg id="web-security" xmlns="http://www.w3.org/2000/svg" width="36.167" height="38" viewBox="0 0 36.167 38">
  <path id="Path_4606" data-name="Path 4606" d="M25.494,14.621c3.968,2.514,7.549,3.7,10.626,3.423C36.657,28.908,32.643,35.321,25.534,38c-6.865-2.5-10.925-8.646-10.626-20.119a15.2,15.2,0,0,0,10.585-3.259ZM13.653,29.483A28.593,28.593,0,0,1,8.405,23.9H4.122a13.9,13.9,0,0,0,1.354,1.571l0,0h0a13.582,13.582,0,0,0,2.078,1.71,14.618,14.618,0,0,0,2.421,1.308.287.287,0,0,1,.031.015,13.172,13.172,0,0,0,2.625.807c.334.068.674.124,1.017.167ZM3.238,22.544H7.552a13.748,13.748,0,0,1-1.923-6.389H1.373a14.63,14.63,0,0,0,.26,2.165,13.3,13.3,0,0,0,.823,2.656h0a15.432,15.432,0,0,0,.782,1.568ZM1.373,14.8h4.28A14.744,14.744,0,0,1,7.771,8.408H3.238a14.866,14.866,0,0,0-.782,1.571c-.006.009-.009.022-.015.031a13.235,13.235,0,0,0-.807,2.625,13.765,13.765,0,0,0-.26,2.162ZM4.122,7.051H8.64a31.59,31.59,0,0,1,5.112-5.594c-.377.043-.748.1-1.116.176a13.3,13.3,0,0,0-2.656.823h0A15.123,15.123,0,0,0,7.558,3.767,13.766,13.766,0,0,0,5.48,5.477l0,0h0A13.058,13.058,0,0,0,4.122,7.051ZM17.2,1.457a31.927,31.927,0,0,1,5.112,5.594H26.83A13.9,13.9,0,0,0,25.475,5.48l0,0h0a13.582,13.582,0,0,0-2.078-1.71,14.862,14.862,0,0,0-2.421-1.311.1.1,0,0,1-.031-.015,13.443,13.443,0,0,0-2.625-.807c-.368-.074-.739-.133-1.116-.176ZM27.714,8.405H23.181a16.545,16.545,0,0,1,1.571,3.516c-.393.285-.782.547-1.178.795a15.329,15.329,0,0,0-1.979-4.311H16.152v6.389h2.907a20.415,20.415,0,0,1-7.147.81c-.006.182-.009.365-.012.544H6.98a12.817,12.817,0,0,0,2.149,6.389H12.2c.056.461.118.912.189,1.358h-2.31a26.143,26.143,0,0,0,2.993,3.262,25.18,25.18,0,0,0,1.311,3.751,15.329,15.329,0,0,1-2.01-.266,14.747,14.747,0,0,1-2.891-.894c-.012-.006-.025-.009-.037-.015A16.282,16.282,0,0,1,6.806,28.3a14.937,14.937,0,0,1-2.282-1.88,15.12,15.12,0,0,1-1.88-2.282A16.282,16.282,0,0,1,1.212,21.5h0v0A14.772,14.772,0,0,1,.3,18.573a16.024,16.024,0,0,1,0-6.2A14.655,14.655,0,0,1,1.2,9.481a.189.189,0,0,1,.015-.037A16.282,16.282,0,0,1,2.644,6.806,15.379,15.379,0,0,1,6.806,2.644,16.282,16.282,0,0,1,9.444,1.212h0A14.481,14.481,0,0,1,12.37.3h0a16.071,16.071,0,0,1,6.213,0,14.655,14.655,0,0,1,2.888.894.189.189,0,0,1,.037.015,16.282,16.282,0,0,1,2.638,1.432,15.379,15.379,0,0,1,4.162,4.162A16.282,16.282,0,0,1,29.74,9.444h0v0a14.772,14.772,0,0,1,.909,2.925,15.588,15.588,0,0,1,.266,2.022q-.7-.283-1.416-.618c-.043-.383-.105-.764-.179-1.138A13.3,13.3,0,0,0,28.5,9.982h0a15.925,15.925,0,0,0-.782-1.577ZM16.155,2.335V7.051h4.49a32.433,32.433,0,0,0-4.49-4.716ZM14.8,14.8V8.405H9.355a13.98,13.98,0,0,0-2.347,6.389H14.8v0Zm0-7.746V2.335a32.433,32.433,0,0,0-4.49,4.716Zm10.78,11.287c2.706,1.713,5.149,2.526,7.246,2.335.365,7.406-2.369,11.782-7.218,13.607-.031-.012-.062-.022-.09-.034V18.384l.062-.046Zm-.08-2.375c3.51,2.227,6.683,3.278,9.4,3.031.476,9.614-3.077,15.3-9.367,17.664C19.457,34.44,15.861,29,16.13,18.848A13.448,13.448,0,0,0,25.5,15.963Z" fill="#46a62b" fill-rule="evenodd"/>
</svg>
